<?xml version="1.0" encoding="utf-8"?><svg xmlns="http://www.w3.org/2000/svg" xmlns:xlink="http://www.w3.org/1999/xlink" version="1.1" x="0px" y="0px" width="120px" height="38px" viewBox="0 0 120 38" enable-background="new 0 0 120 38" xml:space="preserve" xmlns:xml="http://www.w3.org/XML/1998/namespace"><defs/><style><![CDATA[ ]]></style><g transform="matrix(1 0 0 1 0 0)" type="LAYER" name="workspace" id="workspace"/><g transform="matrix(1 0 0 1 0 0)" type="LAYER" name="Layer 01" id="Layer 01"/><g transform="matrix(1 0 0 1 0 0)" id="website_interface" type="LAYER" name="website_interface"><path transform="matrix(0.2835639938418336 -6.739115917249926e-18 4.411057691290865e-18 0.283563993841833 9.131615742854848 -0.6003211545611578)" width="231.9091796875" height="50.4833984375" stroke-width="2" stroke-linecap="round" stroke-miterlimit="3" stroke="none" fill="#F3F3F3" d="M38.41796875,42.234375 L38.41796875,46.5751953125 L32.8466796875,47.5322265625 L32.8466796875,78.2255859375 Q32.8466796875,84.890625 28.62548828125,88.80419921875 Q24.404296875,92.7177734375 17.6708984375,92.7177734375 Q10.4931640625,92.7177734375 6.2548828125,89.07763671875 Q2.0166015625,85.4375 2.1875,78.4990234375 L2.255859375,78.2939453125 L8.7158203125,78.2939453125 Q8.7158203125,82.908203125 11.05712890625,85.18115234375 Q13.3984375,87.4541015625 17.6708984375,87.4541015625 Q21.396484375,87.4541015625 23.7548828125,84.94189453125 Q26.11328125,82.4296875 26.11328125,78.2255859375 L26.11328125,47.5322265625 L20.5419921875,46.5751953125 L20.5419921875,42.234375 L32.8466796875,42.234375 L38.41796875,42.234375 M67.607421875,92 Q67.2998046875,90.49609375 67.12890625,89.2998046875 Q66.9580078125,88.103515625 66.8896484375,86.9072265625 Q64.94140625,89.40234375 62.01904296875,91.06005859375 Q59.0966796875,92.7177734375 55.78125,92.7177734375 Q50.0048828125,92.7177734375 46.9970703125,89.89794921875 Q43.9892578125,87.078125 43.9892578125,81.951171875 Q43.9892578125,76.6875 48.24462890625,73.83349609375 Q52.5,70.9794921875 59.9169921875,70.9794921875 L66.85546875,70.9794921875 L66.85546875,66.6728515625 Q66.85546875,63.42578125 64.8046875,61.52880859375 Q62.75390625,59.6318359375 59.0966796875,59.6318359375 Q56.5673828125,59.6318359375 54.63623046875,60.28125 Q52.705078125,60.9306640625 51.5087890625,62.05859375 L50.791015625,65.955078125 L45.595703125,65.955078125 L45.595703125,58.77734375 Q48.125,56.7607421875 51.7138671875,55.54736328125 Q55.302734375,54.333984375 59.5068359375,54.333984375 Q65.7958984375,54.333984375 69.6923828125,57.546875 Q73.5888671875,60.759765625 73.5888671875,66.7412109375 L73.5888671875,84.548828125 Q73.5888671875,85.2666015625 73.60595703125,85.9501953125 Q73.623046875,86.6337890625 73.69140625,87.3173828125 L76.42578125,87.693359375 L76.42578125,92 L67.607421875,92 M56.7724609375,87.078125 Q60.1220703125,87.078125 62.890625,85.4716796875 Q65.6591796875,83.865234375 66.85546875,81.609375 L66.85546875,75.525390625 L59.677734375,75.525390625 Q55.5419921875,75.525390625 53.13232421875,77.439453125 Q50.72265625,79.353515625 50.72265625,82.087890625 Q50.72265625,84.5146484375 52.2265625,85.79638671875 Q53.73046875,87.078125 56.7724609375,87.078125 M81.0400390625,87.693359375 L86.611328125,86.736328125 L86.611328125,60.3154296875 L81.0400390625,59.3583984375 L81.0400390625,55.017578125 L92.626953125,55.017578125 L93.10546875,60.5205078125 Q94.951171875,57.5810546875 97.73681640625,55.95751953125 Q100.5224609375,54.333984375 104.0771484375,54.333984375 Q110.05859375,54.333984375 113.33984375,57.83740234375 Q116.62109375,61.3408203125 116.62109375,68.6552734375 L116.62109375,86.736328125 L122.1923828125,87.693359375 L122.1923828125,92 L104.31640625,92 L104.31640625,87.693359375 L109.8876953125,86.736328125 L109.8876953125,68.7919921875 Q109.8876953125,63.904296875 107.95654296875,61.853515625 Q106.025390625,59.802734375 102.060546875,59.802734375 Q99.1552734375,59.802734375 96.91650390625,61.2041015625 Q94.677734375,62.60546875 93.3447265625,65.0322265625 L93.3447265625,86.736328125 L98.916015625,87.693359375 L98.916015625,92 L81.0400390625,92 L81.0400390625,87.693359375 M139.7607421875,59.3583984375 L135.3173828125,60.0419921875 L142.939453125,81.0966796875 L143.5546875,83.7626953125 L143.759765625,83.7626953125 L144.4091796875,81.0966796875 L151.7919921875,60.0419921875 L147.314453125,59.3583984375 L147.314453125,55.017578125 L161.6015625,55.017578125 L161.6015625,59.3583984375 L158.5595703125,59.87109375 L146.15234375,92 L141.0595703125,92 L128.515625,59.87109375 L125.4736328125,59.3583984375 L125.4736328125,55.017578125 L139.7607421875,55.017578125 L139.7607421875,59.3583984375 M190.2783203125,92 Q189.970703125,90.49609375 189.7998046875,89.2998046875 Q189.62890625,88.103515625 189.560546875,86.9072265625 Q187.6123046875,89.40234375 184.68994140625,91.06005859375 Q181.767578125,92.7177734375 178.4521484375,92.7177734375 Q172.67578125,92.7177734375 169.66796875,89.89794921875 Q166.66015625,87.078125 166.66015625,81.951171875 Q166.66015625,76.6875 170.91552734375,73.83349609375 Q175.1708984375,70.9794921875 182.587890625,70.9794921875 L189.5263671875,70.9794921875 L189.5263671875,66.6728515625 Q189.5263671875,63.42578125 187.4755859375,61.52880859375 Q185.4248046875,59.6318359375 181.767578125,59.6318359375 Q179.23828125,59.6318359375 177.30712890625,60.28125 Q175.3759765625,60.9306640625 174.1796875,62.05859375 L173.4619140625,65.955078125 L168.2666015625,65.955078125 L168.2666015625,58.77734375 Q170.7958984375,56.7607421875 174.384765625,55.54736328125 Q177.9736328125,54.333984375 182.177734375,54.333984375 Q188.466796875,54.333984375 192.36328125,57.546875 Q196.259765625,60.759765625 196.259765625,66.7412109375 L196.259765625,84.548828125 Q196.259765625,85.2666015625 196.27685546875,85.9501953125 Q196.2939453125,86.6337890625 196.3623046875,87.3173828125 L199.0966796875,87.693359375 L199.0966796875,92 L190.2783203125,92 M179.443359375,87.078125 Q182.79296875,87.078125 185.5615234375,85.4716796875 Q188.330078125,83.865234375 189.5263671875,81.609375 L189.5263671875,75.525390625 L182.3486328125,75.525390625 Q178.212890625,75.525390625 175.80322265625,77.439453125 Q173.3935546875,79.353515625 173.3935546875,82.087890625 Q173.3935546875,84.5146484375 174.8974609375,85.79638671875 Q176.4013671875,87.078125 179.443359375,87.078125 M226.8505859375,62.1953125 Q225.6201171875,61.033203125 223.75732421875,60.33251953125 Q221.89453125,59.6318359375 219.5361328125,59.6318359375 Q215.947265625,59.6318359375 214.2041015625,61.2041015625 Q212.4609375,62.7763671875 212.4609375,64.998046875 Q212.4609375,67.185546875 213.9990234375,68.4501953125 Q215.537109375,69.71484375 220.25390625,70.7060546875 Q227.2607421875,72.2099609375 230.6787109375,74.79052734375 Q234.0966796875,77.37109375 234.0966796875,81.7119140625 Q234.0966796875,86.6337890625 230.11474609375,89.67578125 Q226.1328125,92.7177734375 219.70703125,92.7177734375 Q215.5029296875,92.7177734375 212.1533203125,91.74365234375 Q208.8037109375,90.76953125 206.171875,88.923828125 L206.1376953125,80.4814453125 L211.1962890625,80.4814453125 L212.4609375,85.4375 Q213.623046875,86.4970703125 215.62255859375,86.9755859375 Q217.6220703125,87.4541015625 219.70703125,87.4541015625 Q223.2958984375,87.4541015625 225.32958984375,86.00146484375 Q227.36328125,84.548828125 227.36328125,82.1904296875 Q227.36328125,79.96875 225.67138671875,78.533203125 Q223.9794921875,77.09765625 219.2626953125,76.0380859375 Q212.529296875,74.568359375 209.111328125,72.0390625 Q205.693359375,69.509765625 205.693359375,65.203125 Q205.693359375,60.69140625 209.53857421875,57.5126953125 Q213.3837890625,54.333984375 219.5361328125,54.333984375 Q223.740234375,54.333984375 227.08984375,55.427734375 Q230.439453125,56.521484375 232.6611328125,58.4697265625 L233.0029296875,66.638671875 L227.9443359375,66.638671875 L226.8505859375,62.1953125 Z "/><path transform="matrix(1 -2.4492127076447545e-16 2.4492127076447545e-16 1 46.23171365974102 -56.19125581619815)" width="27.35589805632128" height="5.44544503447824" stroke-width="2.411174481435125" stroke-linecap="round" stroke-linejoin="round" stroke="#F22F7E" fill="none" d="M63.98312380655523,74.00564073755042 C63.98312380655523,74.00564073755042 58.923397164185985,82.5242940970392 50.17954904419173,75.68555584844508 C41.43462085340332,68.84600754675556 36.62722575023395,76.72174876623949 36.62722575023395,76.72174876623949 "/><path transform="matrix(0.9542810958665956 -0.29891067239503083 0.29891067239503083 0.9542810958665956 37.799508737286914 -43.358565356848445)" width="11.602124807967698" height="22.192444072675585" stroke-width="0.5575527658961226" stroke-miterlimit="3" stroke="#A0BCBE" fill="none" d="M31.146731248703134,65.96636158044561 L42.74885605667083,88.15880565312119 "/><path transform="matrix(1 -3.797634949564976e-15 3.797634949564976e-15 1 95.02370328585286 18.110324738272823)" width="1.8474470878397256" height="1.8474470878395763" stroke-miterlimit="3" stroke="#A0BCBE" fill="#FFFFFF" d="M1.4210854715202004e-14,1.8474470878394982 L-2.5579538487363607e-13,-7.105427357601002e-15 L1.8474470878394698,-7.815970093361102e-14 L1.8474470878394555,1.8474470878394271 L1.4210854715202004e-14,1.8474470878394982 Z "/><path transform="matrix(1 0 0 1 85.9578523133347 8.907750280487392)" width="2.6143004322742627" height="2.614300432274259" stroke-miterlimit="3" stroke="#A0BCBE" fill="#8DF6FF" d="M0,1.3071502161371296 C0,0.5852310204478781 0.585231020447879,0 1.3071502161371313,0 C2.0290694118263835,0 2.6143004322742627,0.5852310204478781 2.6143004322742627,1.3071502161371296 C2.6143004322742627,2.029069411826381 2.0290694118263835,2.614300432274259 1.3071502161371313,2.614300432274259 C0.585231020447879,2.614300432274259 0,2.029069411826381 0,1.3071502161371296 Z "/><path transform="matrix(1 0 0 1 103.6966655775421 26.54808101173549)" width="2.6143004322742627" height="2.614300432274259" stroke-miterlimit="3" stroke="#A0BCBE" fill="#8DF6FF" d="M0,1.3071502161371296 C0,0.5852310204478781 0.585231020447879,0 1.3071502161371313,0 C2.0290694118263835,0 2.6143004322742627,0.5852310204478781 2.6143004322742627,1.3071502161371296 C2.6143004322742627,2.029069411826381 2.0290694118263835,2.614300432274259 1.3071502161371313,2.614300432274259 C0.585231020447879,2.614300432274259 0,2.029069411826381 0,1.3071502161371296 Z "/></g></svg>