<?xml version="1.0" encoding="utf-8"?><svg xmlns="http://www.w3.org/2000/svg" xmlns:xlink="http://www.w3.org/1999/xlink" version="1.1" x="0px" y="0px" width="38px" height="38px" viewBox="0 0 38 38" enable-background="new 0 0 38 38" xml:space="preserve" xmlns:xml="http://www.w3.org/XML/1998/namespace"><defs/><style><![CDATA[ ]]></style><g transform="matrix(1 0 0 1 0 0)" type="LAYER" name="workspace" id="workspace"/><g transform="matrix(1 0 0 1 0 0)" type="LAYER" name="Layer 01" id="Layer 01"><g transform="matrix(1 0 0 1 -581.0349999999999 11.752999999999929)"><g transform="matrix(1 0 0 1 0 0)"><path transform="matrix(1 0 0 1 590.894 -1.894)" width="17.565018867924522" height="17.565018867924522" stroke-miterlimit="3" stroke="#F3F3F3" fill="none" d="M0.35849056603774443,0.35849056603773555 L17.923509433962266,0.35849056603773555 L17.923509433962266,17.92350943396226 L0.35849056603774443,17.92350943396226 L0.35849056603774443,0.35849056603773555 Z "/><path transform="matrix(1 0 0 1 589.328 -3.461)" width="3.133999999999979" height="3.135" stroke-miterlimit="3" stroke="none" fill="#96A6C3" d="M0.35849056603776575,0.3584905660377533 L3.4924905660377448,0.3584905660377533 L3.4924905660377448,3.493490566037753 L0.35849056603776575,3.493490566037753 L0.35849056603776575,0.3584905660377533 Z "/><path transform="matrix(1 0 0 1 607.609 -3.461)" width="3.1340000000000146" height="3.135" stroke-miterlimit="3" stroke="none" fill="#96A6C3" d="M-0.3584905660378013,0.3584905660377533 L2.7755094339622133,0.3584905660377533 L2.7755094339622133,3.493490566037753 L-0.3584905660378013,3.493490566037753 L-0.3584905660378013,0.3584905660377533 Z "/><path transform="matrix(1 0 0 1 607.609 14.821)" width="3.1340000000000146" height="3.1340000000000003" stroke-miterlimit="3" stroke="none" fill="#96A6C3" d="M-0.3584905660378013,-0.35849056603773377 L2.7755094339622133,-0.35849056603773377 L2.7755094339622133,2.7755094339622666 L-0.3584905660378013,2.7755094339622666 L-0.3584905660378013,-0.35849056603773377 Z "/><path transform="matrix(1 0 0 1 589.327 14.821)" width="3.1330000000000098" height="3.1340000000000003" stroke-miterlimit="3" stroke="none" fill="#96A6C3" d="M0.35849056603774443,-0.35849056603773377 L3.491490566037754,-0.35849056603773377 L3.491490566037754,2.7755094339622666 L0.35849056603774443,2.7755094339622666 L0.35849056603774443,-0.35849056603773377 Z "/></g><g transform="matrix(1 0 0 1 0 0)"><g transform="matrix(1 0 0 1 0 0)"><path transform="matrix(1 0 0 1 0 0)" width="7.826999999999998" height="10.889" stroke-miterlimit="3" stroke="none" fill="#F8F8F8" d="M603.56,1.634 L596.107,7.929 L599,7.895 L596.414,12.523 L603.934,6.5 L600.735,6.534 Z "/></g></g></g></g></svg>