<?xml version="1.0" encoding="utf-8"?><svg xmlns="http://www.w3.org/2000/svg" xmlns:xlink="http://www.w3.org/1999/xlink" version="1.1" class="page" pageAlignment="none" x="0px" y="0px" width="38px" height="38px" viewBox="0 0 38 38" enable-background="new 0 0 38 38" xml:space="preserve" xmlns:xml="http://www.w3.org/XML/1998/namespace"><defs/><style><![CDATA[ ]]></style><g transform="matrix(1 0 0 1 0 0)" type="LAYER" name="workspace" id="workspace"/><g transform="matrix(1 0 0 1 0 0)" id="Layer 01" type="LAYER" name="Layer 01"><g transform="matrix(1 0 0 1 -1385.778856401604 -266.0019856847885)"><g transform="matrix(1 0 0 1 0 0)"><g transform="matrix(1 0 0 1 0 0)"><path transform="matrix(1 0 0 1 0 0)" width="18.439528023598996" height="19.009109812939187" stroke-width="1.5718314461136311" stroke-miterlimit="3" stroke="none" fill="#F3F3F3" d="M1403.027346905629,283.28596131626455 L1403.027346905629,275.49743077831886 L1406.5303658975788,275.49743077831886 L1406.5303658975788,283.28596131626455 L1413.9986204134034,283.28596131626455 L1413.9986204134034,286.6106447958969 L1406.5303658975788,286.6106447958969 L1406.5303658975788,294.50654059125804 L1403.027346905629,294.50654059125804 L1403.027346905629,286.6106447958969 L1395.5590923898044,286.6106447958969 L1395.5590923898044,283.28596131626455 L1403.027346905629,283.28596131626455 Z "/></g></g></g></g></svg>