<?xml version="1.0" encoding="utf-8"?><svg xmlns="http://www.w3.org/2000/svg" xmlns:xlink="http://www.w3.org/1999/xlink" version="1.1" x="0px" y="0px" width="38px" height="38px" viewBox="0 0 38 38" enable-background="new 0 0 38 38" xml:space="preserve" xmlns:xml="http://www.w3.org/XML/1998/namespace"><defs><linearGradient x1="327.27987348000033" y1="-41.247680579999724" x2="321.85924488000046" y2="-46.668309179999596" id="_0_" gradientUnits="userSpaceOnUse" gradientTransform="matrix(1 0 0 1 0 0)"><stop offset="0" style="stop-color:#000000"/><stop offset="1" style="stop-color:#ADB0B3"/></linearGradient></defs><style><![CDATA[ ]]></style><g transform="matrix(1 0 0 1 0 0)" type="LAYER" name="workspace" id="workspace"/><g transform="matrix(1 0 0 1 0 0)" type="LAYER" name="Layer 01" id="Layer 01"><path transform="matrix(0.9993331824213986 0.03651288144641137 -0.03651288144641137 0.9993331824213986 -251.38449666519847 49.636247388984856)" width="12.654022068942766" height="12.969304461570779" stroke-width="0.9865271420099173" stroke-miterlimit="3" stroke="none" fill="#FAFAFA" d="M265.03285473524005,-40.73028750758981 L271.65651323440636,-43.17766142523533 L274.305198492655,-40.563975955267985 L271.8747277425049,-33.61975650513052 C271.8747277425049,-33.61975650513052 265.1406160958126,-32.416322512325664 262.0875700632228,-30.20835696366455 L267.75261634841377,-36.025224797731894 C267.75261634841377,-36.025224797731894 270.9002005451504,-35.98570658263979 269.6650166649267,-38.39550875479727 C269.6650166649267,-38.39550875479727 267.319622203497,-40.22773988589806 267.20317589648477,-36.56072683278401 L261.65117642371223,-30.751594368278603 C261.65117642371223,-30.751594368278603 264.2558451744309,-35.82355934293084 265.03285473524005,-40.73028750758981 Z "/><path transform="matrix(1 0 0 1 -297.188 59.03350000000023)" width="10.144999999999982" height="9.977999999999994" stroke-miterlimit="3" stroke="none" fill="url(#_0_)" d="M329.28,-45.103 L324.666,-40.523 L322.108,-40.566 L319.592,-43.167 L319.135,-45.203 L323.836,-50.501 Z "/><path transform="matrix(1 0 0 1 -297.188 59.03350000000023)" width="5.944999999999993" height="6.126000000000005" stroke-miterlimit="3" stroke="none" fill="#F8F8F8" d="M306.438,-34.818 L305.7,-34.818 L305.7,-37.547 L303.096,-37.547 L303.096,-38.238 L305.7,-38.238 L305.7,-40.944 L306.438,-40.944 L306.438,-38.238 L309.041,-38.238 L309.041,-37.547 L306.438,-37.547 L306.438,-34.818 Z "/></g></svg>