<?xml version="1.0" encoding="utf-8"?><svg xmlns="http://www.w3.org/2000/svg" xmlns:xlink="http://www.w3.org/1999/xlink" version="1.1" x="0px" y="0px" width="38px" height="38px" viewBox="0 0 38 38" enable-background="new 0 0 38 38" xml:space="preserve" xmlns:xml="http://www.w3.org/XML/1998/namespace"><defs/><style><![CDATA[ ]]></style><g transform="matrix(1 0 0 1 0 0)" type="LAYER" name="workspace" id="workspace"/><g transform="matrix(1 0 0 1 0 0)" type="LAYER" name="Layer 01" id="Layer 01"><path transform="matrix(-5.053195275411816e-16 1 1 5.053195275411816e-16 11.809542952404541 11.438500775853186)" width="6" height="12.680404222612736" stroke-width="0.7211229622965535" stroke-miterlimit="3" stroke="none" fill="#FAFAFA" d="M3.126388037344441e-13,-8.526512829121202e-14 L6.000000000000313,-8.526512829121202e-14 L6.000000000000298,12.680404222612623 L3.126388037344441e-13,12.680404222612651 L3.126388037344441e-13,-8.526512829121202e-14 Z "/><path transform="matrix(-5.053195275411816e-16 1 1 5.053195275411816e-16 15.976947175017386 20.131871672203033)" width="6" height="8.512999999999977" stroke-width="0.9517337345336012" stroke-miterlimit="3" stroke="none" fill="#FAFAFA" d="M1.1368683772161603e-13,0 L6.000000000000114,0 L6.000000000000114,8.512999999999977 L1.1368683772161603e-13,8.512999999999977 L1.1368683772161603e-13,0 Z "/><g transform="matrix(-1 0 0 1 26.190457047595572 9.634600501069256)"><path transform="matrix(1.0000000000000002 -6.050715484207104e-15 6.050715484207104e-15 1.0000000000000002 0 1.7763568394002505e-15)" height="1.3144654088050327" stroke-width="0.6290651855059413" stroke-miterlimit="3" stroke="#FAFAFA" fill="none" d="M0,0 L0,1.3144654088050327 "/><path transform="matrix(1.0000000000000002 -6.050715484207104e-15 6.050715484207104e-15 1.0000000000000002 1.2434497875801753e-14 1.9351481765618281)" height="1.3144654088050327" stroke-width="0.6290651855059413" stroke-miterlimit="3" stroke="#FAFAFA" fill="none" d="M0,0 L0,1.3144654088050327 "/><path transform="matrix(1.0000000000000002 -6.050715484207104e-15 6.050715484207104e-15 1.0000000000000002 2.3092638912203256e-14 3.8702963531236616)" height="1.3144654088050327" stroke-width="0.6290651855059413" stroke-miterlimit="3" stroke="#FAFAFA" fill="none" d="M0,0 L0,1.3144654088050327 "/><path transform="matrix(1.0000000000000002 -6.050715484207104e-15 6.050715484207104e-15 1.0000000000000002 3.552713678800501e-14 5.805444529685493)" height="1.3144654088050327" stroke-width="0.6290651855059413" stroke-miterlimit="3" stroke="#FAFAFA" fill="none" d="M0,0 L0,1.3144654088050327 "/><path transform="matrix(1.0000000000000002 -6.050715484207104e-15 6.050715484207104e-15 1.0000000000000002 4.618527782440651e-14 7.7405927062473285)" height="1.3144654088050327" stroke-width="0.6290651855059413" stroke-miterlimit="3" stroke="#FAFAFA" fill="none" d="M0,0 L0,1.3144654088050327 "/><path transform="matrix(1.0000000000000002 -6.050715484207104e-15 6.050715484207104e-15 1.0000000000000002 5.861977570020827e-14 9.675740882809164)" height="1.3144654088050327" stroke-width="0.6290651855059413" stroke-miterlimit="3" stroke="#FAFAFA" fill="none" d="M0,0 L0,1.3144654088050327 "/><path transform="matrix(1.0000000000000002 -6.050715484207104e-15 6.050715484207104e-15 1.0000000000000002 7.105427357601002e-14 11.610889059370995)" height="1.3144654088050327" stroke-width="0.6290651855059413" stroke-miterlimit="3" stroke="#FAFAFA" fill="none" d="M0,0 L0,1.3144654088050327 "/><path transform="matrix(1.0000000000000002 -6.050715484207104e-15 6.050715484207104e-15 1.0000000000000002 8.171241461241152e-14 13.54603723593283)" height="1.3144654088050327" stroke-width="0.6290651855059413" stroke-miterlimit="3" stroke="#FAFAFA" fill="none" d="M0,0 L0,1.3144654088050327 "/><path transform="matrix(1.0000000000000002 -6.050715484207104e-15 6.050715484207104e-15 1.0000000000000002 9.414691248821327e-14 15.481185412494662)" height="1.3144654088050327" stroke-width="0.6290651855059413" stroke-miterlimit="3" stroke="#FAFAFA" fill="none" d="M0,0 L0,1.3144654088050327 "/><path transform="matrix(1.0000000000000002 -6.050715484207104e-15 6.050715484207104e-15 1.0000000000000002 1.0480505352461478e-13 17.4163335890565)" height="1.3144654088050327" stroke-width="0.6290651855059413" stroke-miterlimit="3" stroke="#FAFAFA" fill="none" d="M0,0 L0,1.3144654088050327 "/></g></g></svg>