<?xml version="1.0" encoding="utf-8"?><svg xmlns="http://www.w3.org/2000/svg" xmlns:xlink="http://www.w3.org/1999/xlink" version="1.1" x="0px" y="0px" width="38px" height="38px" viewBox="0 0 38 38" enable-background="new 0 0 38 38" xml:space="preserve" xmlns:xml="http://www.w3.org/XML/1998/namespace" preserveAspectRatio="xMidYMin"><defs/><style><![CDATA[ ]]></style><g transform="matrix(1 0 0 1 0 0)" type="LAYER" name="workspace" id="workspace"/><g transform="matrix(1 0 0 1 0 0)" type="LAYER" name="Layer 01" id="Layer 01"><path transform="matrix(0.7071067811865472 0.7071067811865478 -0.7071067811865478 0.7071067811865472 20.767204877684968 20.095152986953288)" width="9.883764870642395" height="9.883764870642407" stroke-width="0.8128028134928296" stroke-miterlimit="3" stroke="none" fill="#848484" opacity="0.6" d="M-2.2052198041149644,7.678545066527427 L-1.4210854715202004e-14,-8.881784197001252e-15 L7.67854506652743,-2.2052198041149804 L5.4733252624124695,5.473325262412461 L-2.2052198041149644,7.678545066527427 Z "/><path transform="matrix(0.7071067811865472 0.7071067811865478 -0.7071067811865478 0.7071067811865472 20.767204877684968 15.078880844000164)" width="9.883764870642388" height="9.883764870642407" stroke-width="0.8128028134928296" stroke-miterlimit="3" stroke="none" fill="#E6E6E6" opacity="0.6" d="M-2.205219804114961,7.678545066527427 L-2.1316282072803006e-14,-8.881784197001252e-15 L7.678545066527427,-2.2052198041149804 L5.473325262412466,5.473325262412457 L-2.205219804114961,7.678545066527427 Z "/><path transform="matrix(0.7071067811865472 0.7071067811865478 -0.7071067811865478 0.7071067811865472 20.767204877684968 10.164396195663727)" width="9.883764870642398" height="9.883764870642413" stroke-width="0.9816989199404279" stroke-miterlimit="3" stroke="none" fill="#ECECEC" d="M-2.2052198041149573,7.67854506652743 L-1.4210854715202004e-14,-8.881784197001252e-15 L7.678545066527441,-2.205219804114982 L5.473325262412473,5.473325262412459 L-2.2052198041149573,7.67854506652743 Z "/><path transform="matrix(-0.9997120472137309 0.023996305043295762 0.023996305043295762 0.9997120472137309 490.73888398801216 1.684218895006044)" width="4.0000000000001705" height="4.0000000000000036" stroke-width="0.7383706802431788" stroke-miterlimit="3" stroke="none" fill="#C1C1C1" d="M476.65404087756946,4.861348355442583 L480.6540408775696,4.861348355442564 L478.65291580725255,0.8613483554425798 L478.65291580725255,0.8613483554425798 Z "/><path transform="matrix(-1.0000000000000002 -2.8102520310824275e-16 -2.8102520310824275e-16 1.0000000000000002 458.4845843713599 15.217545829879327)" width="1.1368683772161603e-13" height="6.104205360557533" stroke-miterlimit="3" stroke="#C1C1C1" fill="none" d="M446.21694292138534,2.7535234950591345 L446.21694292138545,8.857728855616667 "/></g></svg>