<?xml version="1.0" encoding="utf-8"?><svg xmlns="http://www.w3.org/2000/svg" xmlns:xlink="http://www.w3.org/1999/xlink" version="1.1" x="0px" y="0px" width="38px" height="38px" viewBox="0 0 38 38" enable-background="new 0 0 38 38" xml:space="preserve" xmlns:xml="http://www.w3.org/XML/1998/namespace"><defs><linearGradient x1="407.3734732890032" y1="17.499781129958045" x2="400.9539632532282" y2="11.555518473420593" id="_0_" gradientUnits="userSpaceOnUse" gradientTransform="matrix(1 0 0 1 0 0)"><stop offset="0" style="stop-color:#000000"/><stop offset="0.5677" style="stop-color:#676767"/><stop offset="1" style="stop-color:#FFFFFF"/></linearGradient><linearGradient x1="413.61402563028525" y1="6.607771767857139" x2="408.9518311075657" y2="1.945577245137562" id="_1_" gradientUnits="userSpaceOnUse" gradientTransform="matrix(1 0 0 1 0 0)"><stop offset="0" style="stop-color:#000000"/><stop offset="1" style="stop-color:#ADB0B3"/></linearGradient></defs><style><![CDATA[ ]]></style><g transform="matrix(1 0 0 1 0 0)" type="LAYER" name="workspace" id="workspace"/><g transform="matrix(1 0 0 1 0 0)" type="LAYER" name="Layer 01" id="Layer 01"><g transform="matrix(1 0 0 1 -386.06330388204543 10.736326591528714)"><g transform="matrix(1 0 0 1 0 0)"><g transform="matrix(1 0 0 1 0 0)"><path transform="matrix(1 0 0 1 0 0)" width="13.771210417424413" height="12.636705784508553" stroke-width="0.9533548229438895" stroke-miterlimit="3" stroke="none" fill="url(#_0_)" d="M406.4094408920423,13.504271067000195 C406.4094408920423,18.211937182697127 396.5193379588224,18.650480401251315 394.79281237447105,17.04026410529908 C394.79281237447105,17.04026410529908 399.2039851402324,15.51012961447414 400.6445042777006,10.829157433819644 C402.08502341516885,6.148185253165147 406.21876992745354,5.239638106899621 406.21876992745354,5.239638106899621 L408.56402279189547,7.8241830319005015 C408.56402279189547,7.8241830319005015 406.4094408920423,8.797558306126215 406.4094408920423,13.504271067000195 Z "/><path transform="matrix(1 0 0 1 0 0)" width="8.72510333958246" height="8.580193406495006" stroke-width="0.9533548229438895" stroke-miterlimit="3" stroke="none" fill="url(#_1_)" d="M415.33379538962004,3.293840913271138 L411.36593261652763,7.231196332029404 L409.16654303999604,7.194015493934591 L407.00338094673634,4.957445079308227 L406.6086920500376,3.2080389792061883 L410.6528232089656,-1.3489970744656024 Z "/></g></g></g></g></svg>