<?xml version="1.0" encoding="utf-8"?><svg xmlns="http://www.w3.org/2000/svg" xmlns:xlink="http://www.w3.org/1999/xlink" version="1.1" x="0px" y="0px" width="38px" height="38px" viewBox="0 0 38 38" enable-background="new 0 0 38 38" xml:space="preserve" xmlns:xml="http://www.w3.org/XML/1998/namespace"><defs><linearGradient x1="381.4943557676739" y1="25.988539583780547" x2="375.6675703054456" y2="20.887632328950975" id="_0_" gradientUnits="userSpaceOnUse" gradientTransform="matrix(1 0 0 1 0 0)"><stop offset="0" style="stop-color:#000000"/><stop offset="1" style="stop-color:#ADB0B3"/></linearGradient></defs><style><![CDATA[ ]]></style><g transform="matrix(1 0 0 1 0 0)" type="LAYER" name="workspace" id="workspace"/><g transform="matrix(1 0 0 1 0 0)" type="LAYER" name="Layer 01" id="Layer 01"><g transform="matrix(0.7071067811865476 0.7071067811865475 -0.7071067811865475 0.7071067811865476 18.1097689781286 -0.7472458320123718)"><g transform="matrix(0.7503413269480663 -0.6610505979679733 0.6610505979679733 0.7503413269480663 -283.7775266136846 243.21133587136327)"><g transform="matrix(1 0 0 1 0 -2.4868995751603507e-14)"><g transform="matrix(1 0 0 1 1.1368683772161603e-13 3.552713678800501e-15)"><path transform="matrix(1 0 0 1 -5.684341886080802e-14 7.105427357601002e-15)" width="7.821206926027742" height="8.09624842312559" stroke-width="0.9611765911405615" stroke-miterlimit="3" stroke="none" fill="#EBE9E9" d="M370.18953165541404,26.66818364770766 L374.5074246651157,30.434493868432465 L366.68621773908797,34.76443207083325 Z "/><path transform="matrix(1 0 0 1 -5.684341886080802e-14 7.105427357601002e-15)" width="14.713736621959583" height="15.70139200346536" stroke-width="0.9611765911405615" stroke-miterlimit="3" stroke="none" fill="url(#_0_)" d="M374.5423517958317,30.439811614930388 L384.95654046283124,18.62067983498373 Q385.25760001522804,17.86356319048897 383.3142299000011,16.193979408274533 Q381.37085978477415,14.524395626059931 380.7139139118142,14.76801062307592 L370.28057145467477,26.612053866882615 Z "/><path transform="matrix(1 0 0 1 -5.684341886080802e-14 7.105427357601002e-15)" width="2.898462069474192" height="2.810085517597674" stroke-width="0.9611765911405615" stroke-miterlimit="3" stroke="none" fill="#FFFFFF" d="M367.99113326524696,31.954346553235577 L369.58467980856216,33.1592366235042 L366.68621773908797,34.76443207083325 Z "/></g></g></g></g></g></svg>