<?xml version="1.0" encoding="utf-8"?><svg xmlns="http://www.w3.org/2000/svg" xmlns:xlink="http://www.w3.org/1999/xlink" version="1.1" x="0px" y="0px" width="38px" height="38px" viewBox="0 0 38 38" enable-background="new 0 0 38 38" xml:space="preserve" xmlns:xml="http://www.w3.org/XML/1998/namespace"><defs><linearGradient x1="-2.842170943040401e-14" y1="2.4868995751603507e-14" x2="18.151927891512585" y2="17.698683144518625" id="_0_" gradientUnits="userSpaceOnUse" gradientTransform="matrix(1 0 0 1 0 0)"><stop offset="0" style="stop-color:#000000"/><stop offset="0.5276" style="stop-color:#FFFFFF"/><stop offset="1" style="stop-color:#000000"/></linearGradient></defs><style><![CDATA[ ]]></style><g transform="matrix(1 0 0 1 0 0)" type="LAYER" name="workspace" id="workspace"/><g transform="matrix(1 0 0 1 0 0)" type="LAYER" name="Layer 01" id="Layer 01"><path transform="matrix(1 0 0 1 10.302102915952268 10.72738112254628)" width="17.554048027444107" height="16.628926434152703" stroke-width="0.8947017343243682" stroke-miterlimit="3" stroke="none" fill="url(#_0_)" d="M17.554048027444054,-1.7763568394002505e-15 L17.554048027444054,16.628926434152703 L-5.3290705182007514e-14,16.628926434152703 L-5.3290705182007514e-14,-1.7763568394002505e-15 L17.554048027444054,-1.7763568394002505e-15 Z "/><path transform="matrix(1 0 0 1 -433.1328513436211 55.844112302267646)" width="3.3121858204688124" height="3.3121858204688124" stroke-width="0.8947017343243682" stroke-miterlimit="3" stroke="none" fill="#F7F7F7" d="M443.38197026872126,-46.82332056413147 C444.2966052104315,-46.82332056413147 445.03806317895567,-46.08186259560729 445.03806317895567,-45.16722765389707 C445.03806317895567,-44.25259271218684 444.2966052104315,-43.51113474366266 443.38197026872126,-43.51113474366266 C442.467335327011,-43.51113474366266 441.72587735848685,-44.25259271218684 441.72587735848685,-45.16722765389707 C441.72587735848685,-46.08186259560729 442.467335327011,-46.82332056413147 443.38197026872126,-46.82332056413147 Z "/><path transform="matrix(1 0 0 1 -433.0133544882752 56.0233575852865)" width="3.3121858204688124" height="3.3121858204688053" stroke-width="0.8947017343243682" stroke-miterlimit="3" stroke="none" fill="#F7F7F7" d="M460.764235563175,-30.35633514389148 C461.67887050488525,-30.35633514389148 462.4203284734094,-29.614877175367305 462.4203284734094,-28.700242233657075 C462.4203284734094,-27.78560729194685 461.67887050488525,-27.044149323422676 460.764235563175,-27.044149323422676 C459.8496006214648,-27.044149323422676 459.1081426529406,-27.78560729194685 459.1081426529406,-28.700242233657075 C459.1081426529406,-29.614877175367305 459.8496006214648,-30.35633514389148 460.764235563175,-30.35633514389148 Z "/><g transform="matrix(0.7071067811865435 -0.7071067811865519 0.7071067811865519 0.7071067811865435 12.137888697054642 12.465291801398516)"><path transform="matrix(1 0 0 1 0 0)" height="1.3144654088050327" stroke-width="0.6290651855059413" stroke-miterlimit="3" stroke="#FFFFFF" fill="none" d="M0,0 L0,1.3144654088050327 "/><path transform="matrix(1 0 0 1 0 1.9351481765618264)" height="1.3144654088050327" stroke-width="0.6290651855059413" stroke-miterlimit="3" stroke="#FFFFFF" fill="none" d="M0,0 L0,1.3144654088050327 "/><path transform="matrix(1 0 0 1 0 3.870296353123658)" height="1.3144654088050327" stroke-width="0.6290651855059413" stroke-miterlimit="3" stroke="#FFFFFF" fill="none" d="M0,0 L0,1.3144654088050327 "/><path transform="matrix(1 0 0 1 0 5.8054445296854915)" height="1.3144654088050327" stroke-width="0.6290651855059413" stroke-miterlimit="3" stroke="#FFFFFF" fill="none" d="M0,0 L0,1.3144654088050327 "/><path transform="matrix(1 0 0 1 0 7.740592706247325)" height="1.3144654088050327" stroke-width="0.6290651855059413" stroke-miterlimit="3" stroke="#FFFFFF" fill="none" d="M0,0 L0,1.3144654088050327 "/><path transform="matrix(1 0 0 1 0 9.67574088280916)" height="1.3144654088050327" stroke-width="0.6290651855059413" stroke-miterlimit="3" stroke="#FFFFFF" fill="none" d="M0,0 L0,1.3144654088050327 "/><path transform="matrix(1 0 0 1 0 11.610889059370992)" height="1.3144654088050327" stroke-width="0.6290651855059413" stroke-miterlimit="3" stroke="#FFFFFF" fill="none" d="M0,0 L0,1.3144654088050327 "/><path transform="matrix(1 0 0 1 0 13.546037235932827)" height="1.3144654088050327" stroke-width="0.6290651855059413" stroke-miterlimit="3" stroke="#FFFFFF" fill="none" d="M0,0 L0,1.3144654088050327 "/><path transform="matrix(1 0 0 1 0 15.481185412494659)" height="1.3144654088050327" stroke-width="0.6290651855059413" stroke-miterlimit="3" stroke="#FFFFFF" fill="none" d="M0,0 L0,1.3144654088050327 "/><path transform="matrix(1 0 0 1 0 17.416333589056492)" height="1.3144654088050327" stroke-width="0.6290651855059413" stroke-miterlimit="3" stroke="#FFFFFF" fill="none" d="M0,0 L0,1.3144654088050327 "/></g></g></svg>