<?xml version="1.0" encoding="utf-8"?><svg xmlns="http://www.w3.org/2000/svg" xmlns:xlink="http://www.w3.org/1999/xlink" version="1.1" x="0px" y="0px" width="38px" height="38px" viewBox="0 0 38 38" enable-background="new 0 0 38 38" xml:space="preserve" xmlns:xml="http://www.w3.org/XML/1998/namespace"><defs><linearGradient x1="518.9741" y1="5.6309" x2="514.9939" y2="1.7614" id="_0_" gradientUnits="userSpaceOnUse" gradientTransform="matrix(1 0 0 1 0 0)"><stop offset="0" style="stop-color:#000000"/><stop offset="1" style="stop-color:#ADB0B3"/></linearGradient><linearGradient x1="510.6284" y1="14.02" x2="506.2412" y2="9.8677" id="_1_" gradientUnits="userSpaceOnUse" gradientTransform="matrix(1 0 0 1 0 0)"><stop offset="0" style="stop-color:#8F8F8F"/><stop offset="0.2057" style="stop-color:#9C9C9C"/><stop offset="0.5875" style="stop-color:#BEBEBE"/><stop offset="1" style="stop-color:#EBEBEB"/></linearGradient><linearGradient x1="518.8145" y1="10.4097" x2="511.961" y2="3.4454" id="_2_" gradientUnits="userSpaceOnUse" gradientTransform="matrix(1 0 0 1 0 0)"><stop offset="0" style="stop-color:#000000"/><stop offset="1" style="stop-color:#ADB0B3"/></linearGradient></defs><style><![CDATA[ ]]></style><g transform="matrix(1 0 0 1 0 0)" type="LAYER" name="workspace" id="workspace"/><g transform="matrix(1 0 0 1 0 0)" type="LAYER" name="Layer 01" id="Layer 01"><g transform="matrix(1 0 0 1 -491.5698037484277 11.9302563396226)"><g transform="matrix(1 0 0 1 0 0)"><g transform="matrix(1 0 0 1 0 0)"><path transform="matrix(1 0 0 1 0 0)" width="3.241264000000001" height="3.2419120000000046" stroke-miterlimit="3" stroke="none" fill="#F5F5F5" d="M504.29261549685543,14.305703320754796 C504.48261549685543,14.496703320754792 504.4396154968555,14.849703320754797 504.1976154968554,15.093703320754793 L502.98361549685546,16.308703320754795 C502.73761549685554,16.5527033207548 502.3866154968554,16.595703320754794 502.19661549685543,16.4037033207548 L501.28861549685547,15.49770332075479 C501.0976154968555,15.306703320754801 501.1406154968554,14.955703320754791 501.3856154968554,14.71070332075479 L502.59761549685544,13.496703320754795 C502.84261549685544,13.253703320754797 503.1946154968554,13.208703320754795 503.3856154968554,13.400703320754792 L504.29261549685543,14.305703320754796 Z "/><path transform="matrix(1 0 0 1 0 0)" width="9.109688000000006" height="9.111352" stroke-miterlimit="3" stroke="none" fill="url(#_0_)" d="M519.8520000000001,1.1460000000000008 C520.0420000000001,1.3380000000000007 519.998,1.689000000000001 519.7550000000001,1.9320000000000008 L515.177,6.511 C514.934,6.756 514.58,6.8 514.3910000000001,6.6080000000000005 L510.9790000000001,3.1970000000000005 C510.7880000000001,3.0060000000000007 510.8320000000001,2.6540000000000004 511.0740000000001,2.4100000000000006 L515.6530000000001,-2.168999999999999 C515.8990000000001,-2.4129999999999994 516.2500000000001,-2.455999999999999 516.4390000000001,-2.2649999999999992 L519.8520000000001,1.1460000000000008 Z "/><path transform="matrix(1 0 0 1 0 0)" width="10.56600050314455" height="10.499255320754797" stroke-miterlimit="3" stroke="none" fill="url(#_1_)" d="M512.913,6.895999999999999 C513.067,7.051999999999999 512.996,7.373999999999999 512.7520000000001,7.6179999999999986 L505.3636154968554,14.937703320754794 C505.1196154968555,15.181703320754798 504.7966154968554,15.254703320754794 504.6426154968554,15.099703320754793 L502.50661549685543,12.963703320754794 C502.35261549685544,12.808703320754793 502.4256154968554,12.486703320754797 502.6686154968554,12.24270332075479 L510.056,4.921999999999999 C510.3,4.677999999999999 510.623,4.605999999999999 510.77799999999996,4.761999999999999 L512.913,6.895999999999999 Z "/><path transform="matrix(1 0 0 1 0 0)" width="9.586839999999995" height="9.587488" stroke-miterlimit="3" stroke="none" fill="url(#_2_)" d="M517.733,6.201 C517.829,6.295 517.808,6.471 517.6859999999999,6.593999999999999 L515.092,9.187 C514.971,9.308 514.795,9.33 514.699,9.235 L508.26599999999996,2.8009999999999993 C508.16999999999996,2.705999999999999 508.19199999999995,2.528999999999999 508.313,2.4059999999999993 L510.907,-0.18600000000000083 C511.029,-0.30800000000000083 511.204,-0.33000000000000085 511.29999999999995,-0.23300000000000082 L517.733,6.201 Z "/></g></g></g></g></svg>