<?xml version="1.0" encoding="utf-8"?><svg xmlns="http://www.w3.org/2000/svg" xmlns:xlink="http://www.w3.org/1999/xlink" version="1.1" class="page" pageAlignment="none" x="0px" y="0px" width="38px" height="38px" viewBox="0 0 38 38" enable-background="new 0 0 38 38" xml:space="preserve" xmlns:xml="http://www.w3.org/XML/1998/namespace"><defs/><style><![CDATA[ ]]></style><g transform="matrix(1 0 0 1 0 0)" type="LAYER" name="workspace" id="workspace"/><g transform="matrix(1 0 0 1 0 0)" id="Layer 01" type="LAYER" name="Layer 01"><path transform="matrix(1 0 0 1 10.522313737278242 24.01981191222574)" width="15.776551724137962" height="14.754907029673225" stroke-width="0.8930460615950386" stroke-miterlimit="3" stroke="none" fill="#ECECEC" d="M9.705624597414907,-12.20079529351143 L14.361966762571466,-12.063266200025815 Q14.715613002963071,-12.063266200025815 15.255905870228077,-12.23026581354407 Q15.796198737493064,-12.397265427062335 15.973021857688906,-12.397265427062335 Q16.14984497788473,-12.397265427062335 16.2579035513377,-12.28920685360935 Q16.36596212479072,-12.181148280156336 16.36596212479072,-12.023972173315606 Q16.36596212479072,-11.611384892858714 15.992668871043993,-11.326503199209885 Q15.619375617297262,-11.041621505561064 15.010318203289454,-10.923739425430524 Q13.870791428694172,-10.668328251814332 12.986675827715086,-10.668328251814332 Q11.788208013054547,-9.843153690900518 10.648681238459282,-5.913751019882351 Q12.593735560613286,-5.913751019882351 13.065263881135444,-5.85480997981708 L13.025969854425284,-4.931400352127806 Q12.731264654098897,-4.911753338772726 12.141854253446176,-4.911753338772726 L10.353976038132902,-4.97069437883799 Q9.253743290247822,-1.6110550951174574 7.387277021514183,0.37329325374673417 Q5.520810752780559,2.35764160261089 3.4382273371409298,2.35764160261089 Q2.161171469060026,2.35764160261089 1.3752909348563929,1.5914080817623528 Q0.5894104006527581,0.8251745609138119 0.5894104006527581,-0.43223429381199807 Q0.5894104006527581,-2.4558766693863667 3.0059930433289246,-4.1160492978915535 Q5.4225756860051035,-5.77622192639673 8.959038089921467,-5.874456993172167 Q10.157505904582013,-9.646683557349625 11.76856099969946,-10.668328251814332 L8.605391849529834,-10.786210331944885 Q6.621043500665646,-10.786210331944885 5.64851633958866,-10.27538798471253 Q4.675989178511653,-9.764565637480157 4.675989178511653,-8.919744063211255 Q4.675989178511653,-8.467862756044173 5.0492824322583765,-8.163334049040259 Q5.4225756860051035,-7.858805342036359 5.795868939751841,-7.858805342036359 Q6.169162193498561,-7.858805342036359 6.355808820371919,-7.8882758620689835 Q6.542455447245292,-7.917746382101615 6.827337140894102,-8.025804955554623 Q7.112218834542922,-8.133863529007616 7.230100914673471,-8.173157555717811 Q7.642688195130379,-8.31068664920344 8.232098595783107,-8.605391849529802 L8.644685876240011,-8.094569502297436 Q7.151512861253114,-6.6013964873105415 5.383281659294937,-6.6013964873105415 Q4.5974011250912845,-6.6013964873105415 4.086578777858929,-7.092571821187818 Q3.5757564306265657,-7.583747155065073 3.5757564306265657,-8.33033366255852 Q3.5757564306265657,-9.961035771031078 5.245752565809298,-11.080915532271263 Q6.915748700992008,-12.20079529351143 9.705624597414907,-12.20079529351143 M4.0276377377936505,0.9430566410443504 Q4.715283205221844,0.9430566410443504 5.520810752780559,0.3634697470691606 Q6.32633830033928,-0.2161171469060008 6.955042727702203,-1.21811482801564 Q8.015981448877088,-2.868463949843278 8.644685876240011,-4.911753338772726 Q6.208456220208731,-4.715283205221819 4.351813458152655,-3.35963928372054 Q2.4951706960965794,-2.003995362219271 2.4951706960965794,-0.4518813071671026 Q2.4951706960965794,0.1571761068407156 2.9175814832310287,0.550116373942533 Q3.339992270365471,0.9430566410443504 4.0276377377936505,0.9430566410443504 Z "/></g></svg>