<?xml version="1.0" encoding="utf-8"?><svg xmlns="http://www.w3.org/2000/svg" xmlns:xlink="http://www.w3.org/1999/xlink" version="1.1" class="page" pageAlignment="none" x="0px" y="0px" width="38px" height="38px" viewBox="0 0 38 38" enable-background="new 0 0 38 38" xml:space="preserve" xmlns:xml="http://www.w3.org/XML/1998/namespace"><defs/><style type="text/css"/><style type="text/css">
</style><g transform="matrix(1 0 0 1 0 0)" type="LAYER" name="workspace" id="workspace"/><g transform="matrix(1 0 0 1 0 0)" id="Layer 01" type="LAYER" name="Layer 01"><path transform="matrix(1 0 0 1 12.970406321865141 4.495370177522105)" width="14.174415662821524" height="12.607219827865805" stroke-width="0.010870850138440035" stroke-miterlimit="3" stroke="none" fill="#FFC305" d="M2.5422169030228474,5.1745478536490195 L9.403052002717807,5.1745478536490195 L16.71663256584437,17.781767681514825 L9.612011447378578,17.712114533294546 L2.5422169030228474,5.1745478536490195 "/><path transform="matrix(0.49216718873309834 -0.8705006940459935 0.8705006940459935 0.49216718873309834 5.988164850640704 28.00547150678975)" width="14.174415662820017" height="12.607219827864562" stroke-width="0.014919151465773361" stroke-miterlimit="3" stroke="none" fill="#354DC9" d="M2.5422169030225312,5.174547853648676 L9.403052002716812,5.174547853648633 L16.71663256584255,17.781767681513195 L9.612011447377526,17.712114533292933 L2.5422169030225312,5.174547853648676 "/><path transform="matrix(-0.501693251585087 -0.8650455949335739 0.8650455949335739 -0.501693251585087 8.51646252699938 33.1266722076838)" width="14.17441566281926" height="12.60721982786392" stroke-width="0.01501020928043637" stroke-miterlimit="3" stroke="none" fill="#23D13F" d="M2.5422169030222506,5.174547853648317 L9.403052002716102,5.174547853648265 L16.71663256584151,17.781767681512186 L9.612011447376744,17.712114533291842 L2.5422169030222506,5.174547853648317 "/></g></svg>