<?xml version="1.0" encoding="utf-8"?><svg xmlns="http://www.w3.org/2000/svg" xmlns:xlink="http://www.w3.org/1999/xlink" version="1.1" x="0px" y="0px" width="38px" height="38px" viewBox="0 0 38 38" enable-background="new 0 0 38 38" xml:space="preserve" xmlns:xml="http://www.w3.org/XML/1998/namespace" preserveAspectRatio="xMidYMin"><defs><linearGradient x1="-297.94531243703716" y1="-17.430319087224493" x2="-297.68447162525115" y2="-10.864041204842" id="_0_" gradientUnits="userSpaceOnUse" gradientTransform="matrix(1 0 0 1 0 0)"><stop offset="0" style="stop-color:#F2F2F2"/><stop offset="0.3636" style="stop-color:#F0F0F0"/><stop offset="0.5248" style="stop-color:#E9E9E9"/><stop offset="0.646" style="stop-color:#DCDCDC"/><stop offset="0.7473" style="stop-color:#CACACA"/><stop offset="0.8361" style="stop-color:#B3B3B3"/><stop offset="0.9161" style="stop-color:#969696"/><stop offset="0.9881" style="stop-color:#747474"/><stop offset="1" style="stop-color:#6E6E6E"/></linearGradient><linearGradient x1="-289.50651339773816" y1="-13.77583043461924" x2="-289.6067842689659" y2="-9.746565095164385" id="_1_" gradientUnits="userSpaceOnUse" gradientTransform="matrix(1 0 0 1 0 0)"><stop offset="0" style="stop-color:#F2F2F2"/><stop offset="0.3636" style="stop-color:#F0F0F0"/><stop offset="0.5248" style="stop-color:#E9E9E9"/><stop offset="0.646" style="stop-color:#DCDCDC"/><stop offset="0.7473" style="stop-color:#CACACA"/><stop offset="0.8361" style="stop-color:#B3B3B3"/><stop offset="0.9161" style="stop-color:#969696"/><stop offset="0.9881" style="stop-color:#747474"/><stop offset="1" style="stop-color:#6E6E6E"/></linearGradient></defs><style><![CDATA[ ]]></style><g transform="matrix(1 0 0 1 0 0)" type="LAYER" name="workspace" id="workspace"/><g transform="matrix(1 0 0 1 0 0)" type="LAYER" name="Layer 01" id="Layer 01"><g transform="matrix(1 0 0 1 312.5293253398055 26.920861348726525)"><g transform="matrix(1 0 0 1 0 0)"><g transform="matrix(1 0 0 1 0 0)"><path transform="matrix(1 0 0 1 0 0)" width="7.02111799302088" height="3.9560990486991514" stroke-width="0.3523535891234387" stroke-miterlimit="3" stroke="#333333" fill="url(#_0_)" d="M-301.23821875319555,-10.931488936502337 L-294.2171007601747,-12.968243460793555 L-294.4395618125851,-9.012144412094404 Z "/><path transform="matrix(1 0 0 1 0 0)" width="9.688178832475046" height="4.742128100549401" stroke-width="0.3523535891234387" stroke-miterlimit="3" stroke="#333333" fill="url(#_1_)" d="M-294.2171007601747,-12.968243460793555 L-284.75138298011007,-11.381354620265686 L-287.6804535035143,-8.226115360244155 L-294.4395618125851,-9.012144412094404 Z "/><path transform="matrix(-0.8998985511644987 -0.4360992978806954 0.4360992978806954 -0.8998985511644987 -291.7600621869749 -7.909467017211536)" width="3.933859276956248" height="9.604153453103045" stroke-width="1.2358967254025273" stroke-miterlimit="3" stroke="none" fill="#7690F4" d="M3.9338592769562553,9.604153453103045 L7.105427357601002e-15,9.604153453103045 L7.105427357601002e-15,8.881784197001252e-16 L3.933859276956248,8.881784197001252e-16 L3.9338592769562553,9.604153453103045 Z "/><path transform="matrix(1 0 0 1 0 0)" width="7.22256883492588" height="7.222568834925912" stroke-width="1.2358947356136047" stroke-miterlimit="3" stroke="none" fill="#71FA1C" d="M-292.2075359200669,-12.410854935031821 C-292.2075359200669,-10.416397442790174 -293.82436284528825,-8.799570517568863 -295.81882033752987,-8.799570517568863 C-297.8132778297715,-8.799570517568863 -299.4301047549928,-10.416397442790174 -299.4301047549928,-12.410854935031821 C-299.4301047549928,-14.405312427273467 -297.8132778297715,-16.022139352494776 -295.81882033752987,-16.022139352494776 C-293.82436284528825,-16.022139352494776 -292.2075359200669,-14.405312427273467 -292.2075359200669,-12.410854935031821 Z "/><path transform="matrix(-0.9568408579769718 0.2906124094148285 -0.2906124094148285 -0.9568408579769718 -286.4708141156641 -8.639059924675799)" width="6.107530975124913" height="6.111238501010256" stroke-width="1.2358419617816485" stroke-miterlimit="3" stroke="none" fill="#FF4DA5" d="M6.107530975124909,6.111238501010252 L3.552713678800501e-15,6.111238501010256 L-3.552713678800501e-15,0 L6.107530975124906,0 L6.107530975124909,6.111238501010252 Z "/><path transform="matrix(1 0 0 1 0 0)" width="9.633799464108108" height="13.357550302511843" stroke-width="1.2358947356136047" stroke-miterlimit="3" stroke="none" fill="#C67C4A" d="M-301.23821875319555,-10.931488936502337 L-300.37556422773724,0.2372917892378119 L-292.2767460252613,2.426061366009506 L-291.60441928908745,-9.014616201565634 Z "/><path transform="matrix(1 0 0 1 0 0)" width="7.5253630451512095" height="13.807415986275192" stroke-width="1.2358947356136047" stroke-miterlimit="3" stroke="none" fill="#A35623" d="M-291.60441928908745,-9.014616201565634 L-284.75138298011007,-11.381354620265686 L-285.947729084184,-0.49312199950982816 L-292.2767460252613,2.426061366009506 Z "/><path transform="matrix(1 0 0 1 0 0)" width="11.816389567201725" height="7.386942834762518" stroke-width="1.2358947356136047" stroke-miterlimit="3" stroke="none" fill="#EDA370" d="M-301.9426787524953,-10.971037568041972 L-303.42080885628917,-6.277109362181498 L-292.9639034982624,-3.5840947332794535 L-291.60441928908745,-9.014616201565634 Z "/><path transform="matrix(1 0 0 1 0 0)" width="7.966577465765283" height="7.359753150579014" stroke-width="1.2358947356136047" stroke-miterlimit="3" stroke="none" fill="#EDA370" d="M-291.60441928908745,-9.014616201565634 L-290.6700828689636,-4.021601469686672 L-283.63784182332216,-6.704728940703806 L-284.75138298011007,-11.381354620265686 Z "/></g></g></g></g></svg>