<?xml version="1.0" encoding="utf-8"?><svg xmlns="http://www.w3.org/2000/svg" xmlns:xlink="http://www.w3.org/1999/xlink" version="1.1" x="0px" y="0px" width="38px" height="38px" viewBox="0 0 38 38" enable-background="new 0 0 38 38" xml:space="preserve" xmlns:xml="http://www.w3.org/XML/1998/namespace"><defs/><style><![CDATA[ ]]></style><g transform="matrix(1 0 0 1 0 0)" type="LAYER" name="workspace" id="workspace"/><g transform="matrix(1 0 0 1 0 0)" type="LAYER" name="Layer 01" id="Layer 01"><g transform="matrix(1 0 0 1 -445.75945246621274 53.45636514257697)"><path transform="matrix(1 0 0 1 -5.684341886080802e-14 7.105427357601002e-15)" height="18.499526273446886" stroke-width="0.6843395030970891" stroke-miterlimit="3" stroke="#F5F5F5" fill="none" d="M464.50800985758076,-43.70612827930043 L464.50800985758076,-25.206602005853544 "/><path transform="matrix(1 0 0 1 -5.684341886080802e-14 7.105427357601002e-15)" width="6.682970490587422" height="11.563866351374589" stroke-width="0.831215235147685" stroke-miterlimit="3" stroke="#F7F7F7" fill="none" d="M461.1656933970519,-29.360184535886535 L454.48272290646446,-29.360184535886535 L461.1656933970519,-40.924050887261124 Z "/><g transform="matrix(1 0 0 1 -5.684341886080802e-14 7.105427357601002e-15)"><g transform="matrix(1 0 0 1 0 -7.105427357601002e-15)"><path transform="matrix(1 0 0 1 0 7.105427357601002e-15)" width="7.332980804472868" height="12.84476902873718" stroke-width="0.831215235147685" stroke-miterlimit="3" stroke="none" fill="#F7F7F7" d="M467.70320122148837,-28.720148804822816 L475.03618202596124,-28.720148804822816 L467.70320122148837,-41.564917833559996 Z "/></g></g></g></g></svg>