<?xml version="1.0" encoding="utf-8"?><svg xmlns="http://www.w3.org/2000/svg" xmlns:xlink="http://www.w3.org/1999/xlink" version="1.1" class="page" pageAlignment="none" x="0px" y="0px" width="38px" height="38px" viewBox="0 0 38 38" enable-background="new 0 0 38 38" xml:space="preserve" xmlns:xml="http://www.w3.org/XML/1998/namespace"><defs><linearGradient x1="-220.78873896517476" y1="17.030483674893663" x2="-220.78873896517476" y2="20.066518063261213" id="_0_" gradientUnits="userSpaceOnUse" gradientTransform="matrix(1 0 0 1 0 0)"><stop offset="0" style="stop-color:#F2F2F2"/><stop offset="0.3443" style="stop-color:#F0F0F0"/><stop offset="0.497" style="stop-color:#E9E9E9"/><stop offset="0.6118" style="stop-color:#DCDCDC"/><stop offset="0.7077" style="stop-color:#CACACA"/><stop offset="0.7918" style="stop-color:#B3B3B3"/><stop offset="0.8676" style="stop-color:#969696"/><stop offset="0.9357" style="stop-color:#747474"/><stop offset="0.9987" style="stop-color:#4E4E4E"/><stop offset="1" style="stop-color:#4D4D4D"/></linearGradient><linearGradient x1="-220.78423169593842" y1="15.068733595546112" x2="-220.6957959650599" y2="36.28196312176297" id="_1_" gradientUnits="userSpaceOnUse" gradientTransform="matrix(1 0 0 1 0 0)"><stop offset="0" style="stop-color:#F2F2F2"/><stop offset="0.3636" style="stop-color:#F0F0F0"/><stop offset="0.5248" style="stop-color:#E9E9E9"/><stop offset="0.646" style="stop-color:#DCDCDC"/><stop offset="0.7473" style="stop-color:#CACACA"/><stop offset="0.8361" style="stop-color:#B3B3B3"/><stop offset="0.9161" style="stop-color:#969696"/><stop offset="0.9881" style="stop-color:#747474"/><stop offset="1" style="stop-color:#6E6E6E"/></linearGradient></defs><style><![CDATA[ ]]></style><g transform="matrix(1 0 0 1 0 0)" type="LAYER" name="workspace" id="workspace"/><g transform="matrix(1 0 0 1 0 0)" id="Layer 01" type="LAYER" name="Layer 01"><g transform="matrix(1 0 0 1 239.76216161898827 -7.373861631440888)"><g transform="matrix(1 0 0 1 -5.684341886080802e-14 -8.881784197001252e-16)"><g transform="matrix(1 0 0 1 5.684341886080802e-14 8.881784197001252e-16)"><path transform="matrix(1 0 0 1 -5.684341886080802e-14 -8.881784197001252e-16)" width="24.93749905928115" height="3.239016927079941" stroke-width="0.2217887310433335" stroke-miterlimit="3" stroke="#D1D1D1" fill="url(#_0_)" d="M-233.2542914421191,19.816442332182916 L-233.2542914421191,17.154045021200215 C-233.2542914421191,17.154045021200215 -233.33821990376134,16.538569635824185 -232.72274451838524,16.580533866645276 L-225.63389797116272,16.577425405102975 C-225.63389797116272,16.577425405102975 -223.29944335289304,16.662908097516308 -222.31406104398295,17.562807714013083 L-208.79225333496407,17.562807714013083 C-208.79225333496407,17.562807714013083 -208.38038218060888,17.601663483291887 -208.33841794978775,18.196933868642944 C-208.2980079497378,18.792204253994008 -208.33841794978775,19.816442332182902 -208.33841794978775,19.816442332182902 "/><path transform="matrix(1 0 0 1 -5.684341886080802e-14 -8.881784197001252e-16)" width="26.62241887905583" height="16.353855525595904" stroke-width="0.2217887310433335" stroke-miterlimit="3" stroke="#C5C4C4" fill="url(#_1_)" d="M-208.19232025729946,34.9002519662092 C-208.4068041037184,34.406006580983 -207.4851452564255,20.775402717983454 -207.45095217946016,20.383736563653247 C-207.4152048717237,19.99517887086535 -207.84106410301922,19.816442332182916 -207.84106410301922,19.816442332182916 C-207.84106410301922,19.816442332182916 -214.32531488026373,19.825767716809835 -220.7613845036025,19.830430409123274 C-227.19745412694132,19.82732194758098 -233.68325913495693,19.816442332182916 -233.68325913495693,19.816442332182916 C-233.68325913495693,19.816442332182916 -234.10756413548128,19.993624640094197 -234.073371058516,20.383736563653247 C-234.03762375077943,20.773848487212305 -233.11751913425775,34.40445235021185 -233.32889451913434,34.9002519662092 C-233.32889451913434,34.9002519662092 -233.4003891346073,36.162287352384304 -232.8688422108735,36.17005850624006 C-232.60617721054885,36.171612737011216 -226.66746143397856,36.165395813926615 -220.7613845036025,36.15762466007085 C-214.8553075732264,36.16384158315547 -208.91814602742727,36.171612737011216 -208.65392679633155,36.17005850624006 C-208.12082564182657,36.162287352384304 -208.19232025729946,34.9002519662092 -208.19232025729946,34.9002519662092 Z "/></g></g></g><g transform="matrix(1 0 0 1 234.2664985385868 -7.373861631440889)"><path transform="matrix(1 0 0 1 -5.684341886080802e-14 -8.881784197001252e-16)" width="9.44816885783058" height="9.741918473578224" stroke-width="1.5542307711516012" stroke-miterlimit="3" stroke="none" fill="#353434" d="M-225.48624604790336,28.75326926630462 L-225.48624604790336,27.049832341122475 L-221.65972988932813,27.049832341122475 L-221.65972988932813,23.058567720805165 L-219.86459334864801,23.058567720805165 L-219.86459334864801,27.049832341122475 L-216.03807719007278,27.049832341122475 L-216.03807719007278,28.75326926630462 L-219.86459334864801,28.75326926630462 L-219.86459334864801,32.80048619438339 L-221.65972988932813,32.80048619438339 L-221.65972988932813,28.75326926630462 L-225.48624604790336,28.75326926630462 Z "/></g><path transform="matrix(1 0 0 1 252.206780356078 -45.63902345485738)" width="10.273825699113871" height="10.200551219447753" stroke-width="1.6423363740859358" stroke-miterlimit="3" stroke="none" fill="#353434" d="M-223.38566659404682,71.28889498994823 C-223.38566659404682,71.28889498994823 -223.0571993192297,70.55477063073181 -223.273987720609,70.18031793744022 C-223.7765426510793,69.31480666829694 -226.8230766250087,67.74144842192261 -226.8230766250087,67.74144842192261 C-226.8230766250087,67.74144842192261 -228.04169021458046,66.96626565335404 -226.8230766250087,65.7443673910341 C-225.60282069906282,64.52411146508825 -226.0478938564401,61.08834377050048 -228.376726834894,61.08834377050048 C-230.70391747697371,61.08834377050048 -231.14734829797698,64.52411146508825 -229.9270923720311,65.7443673910341 C-228.70847878245934,66.96626565335404 -229.9270923720311,67.74144842192261 -229.9270923720311,67.74144842192261 C-229.9270923720311,67.74144842192261 -233.47618127643076,69.6104272156324 -233.47618127643076,70.18031793744022 C-233.47618127643076,70.75020865924805 -233.36450240299294,71.28889498994823 -233.36450240299294,71.28889498994823 "/></g></svg>