<?xml version="1.0" encoding="utf-8"?><svg xmlns="http://www.w3.org/2000/svg" xmlns:xlink="http://www.w3.org/1999/xlink" version="1.1" x="0px" y="0px" width="38px" height="38px" viewBox="0 0 38 38" enable-background="new 0 0 38 38" xml:space="preserve" xmlns:xml="http://www.w3.org/XML/1998/namespace" preserveAspectRatio="xMidYMin"><defs><linearGradient x1="379.6335943123385" y1="348.99799010186314" x2="379.6335943123385" y2="324.39317444666375" id="_0_" gradientUnits="userSpaceOnUse" gradientTransform="matrix(1 0 0 1 0 0)"><stop offset="0" style="stop-color:rgb(34, 34, 34)"/><stop offset="0.532" style="stop-color:rgb(167, 167, 167)"/><stop offset="1" style="stop-color:rgb(153, 153, 153)"/></linearGradient><linearGradient x1="379.90889791124147" y1="347.71602081808334" x2="379.90889791124147" y2="326.3353545553987" id="_1_" gradientUnits="userSpaceOnUse" gradientTransform="matrix(1 0 0 1 0 0)"><stop offset="0" style="stop-color:rgb(248, 248, 248)"/><stop offset="0.532" style="stop-color:rgb(240, 240, 240)"/><stop offset="1" style="stop-color:rgb(255, 255, 255)"/></linearGradient></defs><style><![CDATA[ ]]></style><g transform="matrix(1 0 0 1 0 0)" type="LAYER" name="workspace" id="workspace"/><g transform="matrix(1 0 0 1 0 0)" type="LAYER" name="Layer 01" id="Layer 01"><g transform="matrix(1 0 0 1 -360.63273129165253 -317.6114635322095)"><path transform="matrix(1 0 0 1 5.684341886080802e-14 0)" width="24.604719764012145" height="24.60471976401209" stroke-width="0.9589118735730972" stroke-miterlimit="3" stroke="none" fill="url(#_0_)" d="M379.6303340119684,348.99789421067584 C372.84795033018594,348.99789421067584 367.33037140964626,343.47935637826265 367.33037140964626,336.69697269648015 C367.33037140964626,329.91171227907694 372.84795033018594,324.39317444666375 379.6303340119684,324.39317444666375 C386.41559442937165,324.39317444666375 391.9350911736584,329.91171227907694 391.9350911736584,336.69697269648015 C391.9350911736584,343.47935637826265 386.41655334124516,348.99789421067584 379.6303340119684,348.99789421067584 L379.6303340119684,348.99789421067584 Z "/></g><path transform="matrix(1 0 0 1 -360.63273129165253 -317.6114635322095)" width="22.210310103316942" height="21.383274502980726" stroke-width="0.9589118735730972" stroke-miterlimit="3" stroke="none" fill="url(#_1_)" d="M376.11688090719673,328.3218363926927 L376.11688090719673,328.3218363926927 C376.5061991278674,328.64978425345464 375.9116737662521,328.08402624804654 376.0593461947823,328.25087691404826 L376.11688090719673,328.3218363926927 Z M375.341121201476,327.5604603650757 C375.3200251402574,327.58635098566214 375.29317560779737,327.61991290123717 375.27016172283163,327.64484460995016 C375.3248196996253,327.6918312917552 375.4235876226033,327.61511834186933 375.4753688637763,327.59689901627144 C375.5012594843627,327.55087124633997 375.5300268405699,327.49909000516703 375.5300268405699,327.49909000516703 C375.6508497366401,327.3916918753268 375.64317844165157,327.5105969476499 375.5875615529843,327.41662358403977 C375.5846848173636,327.41662358403977 375.5846848173636,327.41662358403977 375.5846848173636,327.41662358403977 L375.5846848173636,327.41662358403977 L375.5846848173636,327.41662358403977 C375.50988969122494,327.47895285582194 375.419751975109,327.49717218141984 375.3161894927632,327.46265135397124 C375.5175609862135,327.3658012547403 374.7130339242857,327.7340234141924 374.81659640663156,327.7340234141924 L374.81659640663156,327.7340234141924 C374.842487027218,327.7369001498131 374.8616652646896,327.7369001498131 374.8846791496553,327.7369001498131 C374.96810448265614,327.7138862648473 374.96810448265614,327.7138862648473 374.972899042024,327.7186808242152 C374.96522774703544,327.75895512290526 374.94413168581684,327.8126541878254 375.0333104900591,327.74553035667526 L375.20879136292297,327.636214403088 C375.25098348536017,327.60936487062787 375.30276472653316,327.59402228065073 375.341121201476,327.5604603650757 Z M377.2694929792316,326.82209822242436 C377.255109301128,326.82593386991863 377.2263419449207,326.84223537176945 377.21962956180573,326.86429034486156 C377.21962956180573,326.870043816103 377.22154738555287,326.870043816103 377.2311365042886,326.8815507585859 L377.2311365042886,326.8815507585859 C377.3040138066802,326.9649760915868 377.31168510166873,326.81922148680366 377.2694929792316,326.82209822242436 Z M376.81784548677865,327.30059524733736 C376.8907227891702,327.30347198295806 377.2848355692088,327.3801849328439 377.3040138066802,327.3264858679238 C377.2263419449207,327.2171699143365 377.1160670794598,327.06374401456475 376.84661284298585,327.08675789953054 C376.605925962719,327.1375802288299 376.93866838284885,327.18744364625576 376.94346294221674,327.1989505887386 C376.9501753253317,327.1922382056236 376.6155150814547,327.2958006879695 376.81784548677865,327.30059524733736 L376.81784548677865,327.30059524733736 Z M375.8829064100448,328.2652605921519 C375.8550979657112,328.29690468397985 375.79564542954967,328.489645970568 375.819618226389,328.561564361086 C375.71989139153743,328.52512570989023 375.6566032078816,328.449371671878 375.63358932291584,328.3410146301642 C375.6240002041801,328.3630696032564 375.6134521735708,328.39087804759 375.6029041429615,328.41389193255577 C375.47536886377634,328.50115291305093 375.42166979885616,328.49252270618877 375.4475604194427,328.38608348822214 C375.34208011334965,328.384165664475 375.2375587191302,328.3880013119693 375.13591406053143,328.39950825445214 C375.1512566505086,328.35060374889997 375.2375587191302,328.36882307449787 375.2308463360152,328.3074527145892 C375.12728385366927,328.2604660327841 374.55097781765187,328.5049885605452 374.546183258284,328.59608518853463 C374.546183258284,328.59992083602896 374.5557723770197,328.6008797479025 374.5586491126404,328.60567430727036 L374.65358138812417,328.6545788128226 C374.73604780925143,328.667044667179 374.80892511164296,328.6344416634775 374.8913915327703,328.64786642970756 C374.8913915327703,328.64786642970756 374.8913915327703,328.6545788128226 374.8913915327703,328.65745554844335 C374.82810334911443,328.6996476708805 374.6765952730899,328.712113525237 374.5615258482611,328.71594917273126 C374.7619384298379,328.77923735638706 374.9700223064032,328.8271829500657 375.18098291858934,328.85019683503145 C375.01796790008194,328.96047170049235 374.10796053206104,328.99786926356177 374.88180241403455,329.06403418283827 C374.8770078546667,329.09567827466617 374.867418735931,329.14266495647126 374.8626241765631,329.17526796017273 C374.8856380615289,329.1906105501499 374.8856380615289,329.1906105501499 375.12440711804857,329.18581599078203 C375.1339962367843,329.18581599078203 375.1339962367843,329.18581599078203 375.1339962367843,329.18581599078203 C375.15701012175003,329.18198034328776 375.19440768481934,329.17910360766706 375.43317674133914,329.1465006039656 C375.5089307793514,329.03814356225183 375.6642745028702,329.12060998337915 375.74194636462965,329.01896532478037 C375.75153548336533,329.0122529416654 375.75153548336533,329.0122529416654 375.75153548336533,329.0122529416654 C375.9404411224593,329.17047340080495 376.12934676155317,329.18677490265566 376.32112913626776,329.05923962347043 C376.2760602782098,329.05732179972324 376.23099142015195,329.05732179972324 376.18304582647323,329.05732179972324 C376.1763334433582,329.0554039759761 376.1638675890018,329.05444506410254 376.15811411776036,329.05060941660827 C376.1590730296339,329.0180064129068 376.16386758900177,329.00074599918247 376.5090758634881,328.9326632561588 L376.5090758634881,328.9326632561588 C376.5119525991088,328.9326632561588 376.5186649822238,328.9326632561588 376.5215417178445,328.9326632561588 C376.4956510972581,328.9221152255494 376.462089181683,328.90485481182515 376.4361985610965,328.8923889574687 C376.33551281437127,328.85690921814654 376.0746887847594,328.7495110883063 376.0650996660237,328.7274561152141 C376.13318240904744,328.6238936328682 376.1581141177603,328.51265985553374 376.13605914466814,328.3899191357164 C376.0986615815988,328.33909680641705 375.8857831456655,328.2652605921519 375.8829064100448,328.2652605921519 Z M376.8907227891702,328.9528004055038 L376.8907227891702,328.9528004055038 C376.8207222223994,329.03814356225183 376.73346124190425,329.09376045091904 376.6270220239376,329.11869215963196 C376.70469388569705,329.1138976002641 376.7756533643414,329.1311580139884 376.8427771954916,329.16855557705776 C376.92716144036604,329.20403531637993 377.04990216018336,329.1992407570121 377.13045075756355,329.1608842820692 C377.1352453169314,329.1551308108278 377.1381220525521,329.10143174590763 376.8945584366645,328.9508825817567 C376.8935995247909,328.9528004055038 376.8935995247909,328.9528004055038 376.8907227891702,328.9528004055038 Z M375.24810674973946,327.70909170547947 L375.24810674973946,327.70909170547947 C375.24810674973946,327.70717388173233 375.24810674973946,327.70909170547947 375.2461889259923,327.70909170547947 C374.9441316858168,327.8232022184347 375.1119412636921,327.70909170547947 375.24810674973946,327.70909170547947 Z M375.8953722644013,327.4664870014655 L375.8953722644013,327.4664870014655 C375.9874278042643,327.4664870014655 376.07948334412737,327.4482676758676 376.1667443246225,327.4175824959133 C376.18975820958826,327.4031988178097 376.15236064651896,327.3466230172689 376.14948391089825,327.3264858679238 C376.12838784967965,327.32456804417666 376.1140041715761,327.32456804417666 376.10441505284024,327.32456804417666 C376.03633230981654,327.3264858679238 375.9270163562293,327.38306166846456 375.88290641004494,327.40128099406246 C375.85030340634336,327.4588157064769 375.8829064100448,327.4636102658448 375.8953722644013,327.4664870014655 Z M376.02674319108087,327.249772918038 C376.06030510665585,327.2670333317623 376.11879873094387,327.2958006879695 376.1590730296339,327.2986774235902 L376.1590730296339,327.2986774235902 L376.1590730296339,327.2986774235902 C376.60592596271897,327.2238822974515 376.19934732832394,327.2190877380836 376.02674319108087,327.249772918038 Z M376.60592596271897,327.59306336877717 L376.60592596271897,327.59306336877717 C376.60017249147757,327.636214403088 376.6404467901676,327.6227896368579 376.6625017632598,327.64005005058226 C376.65003590890336,327.663063935548 376.6452413495355,327.68607782051373 376.6452413495355,327.70909170547947 C376.72387212316846,327.7301877666981 376.74017362501917,327.60552922313354 376.60592596271897,327.59306336877717 L376.60592596271897,327.59306336877717 Z M375.13687297240494,327.8816958427226 C375.2874221365559,327.9632033519763 375.41783415136183,327.94881967387266 375.5281090168228,327.8423804559061 C375.5520818136621,327.939230555137 375.6230412923065,327.959367704482 375.747699835871,327.8989562564469 C374.586457556974,328.2106026153582 377.07675169264337,327.5662138363171 376.1859225620939,327.5662138363171 C376.1792101789789,327.5690905719378 376.1514017346453,327.57100839568494 376.0085238654829,327.64100896245577 C376.01331842485075,327.67073523053654 376.04208578105795,327.6822421730194 376.0516748997937,327.70909170547947 C376.0344144860694,327.7340234141924 375.9922223636321,327.71005061735303 375.98359215676993,327.74648926854877 C375.9998936586207,327.76662641789386 376.0430446929315,327.77142097726176 376.0382501335637,327.8078596284575 C375.9548248005628,327.84238045590615 375.79756325329686,327.806900716584 375.7946865176761,327.806900716584 C375.74290527650317,327.6937491155023 375.74290527650317,327.6937491155023 375.63167149916865,327.68224217301946 C375.6690690622381,327.60936487062787 375.4887936300063,327.6390911387087 375.4609851856727,327.6525159049387 L375.4609851856727,327.6525159049387 C375.4044093851318,327.6582693761801 375.4638619212934,327.7733388010089 375.3555048795796,327.7340234141924 C375.3555048795796,327.7340234141924 375.3555048795796,327.7340234141924 375.38810788328107,327.7397768854338 C375.3622172626946,327.7541605635374 375.3248196996253,327.77429771288246 375.29605234341807,327.788681390986 L375.39673809014323,327.79827050972176 C375.24139436662443,327.8203254828139 375.1397497080257,327.87977801897546 375.13687297240494,327.8816958427226 Z M376.67017305824834,327.50004891704054 C376.68455673635196,327.49045979830487 376.6951047669613,327.4779939439484 376.697981502582,327.4779939439484 C376.6807210888577,327.4914187101784 376.6318165833054,327.37443146160246 376.61743290520184,327.37443146160246 C376.60304922709827,327.37443146160246 376.58482990150037,327.375390373476 376.5723640471439,327.3830616684646 C376.54455560281025,327.47128156083335 376.58003534213253,327.5096380357763 376.67017305824834,327.50004891704054 L376.67017305824834,327.50004891704054 Z M376.5397610434424,327.8519695746418 C376.527295189086,327.8519695746418 376.5138704228559,327.8519695746418 376.50236348037305,327.8519695746418 C376.4333218254758,327.8663532527455 376.4093490286365,327.8932027852055 376.43140400172865,327.9277236126542 L376.43140400172865,327.9277236126542 C376.5119525991088,327.9469018501256 376.61743290520184,327.8519695746418 376.5397610434424,327.8519695746418 Z M379.1067681289976,326.92949635226455 C379.11348051211263,326.95059241348315 379.13457657333123,326.9745652103225 379.14224786831977,326.9975790952883 C378.94087637486945,326.8978522604367 378.94087637486945,326.8978522604367 378.67238105026894,326.9256607047703 C378.67238105026894,327.10881287262276 378.6129285141074,327.3916918753268 378.7673133257527,327.3044308948317 C378.7078607895911,327.3629245191196 378.7078607895911,327.3629245191196 378.935122903628,327.4242948790283 C378.9370407273751,327.4300483502697 378.9399174629958,327.4348429096376 378.9399174629958,327.4386785571319 C378.7749846207413,327.4242948790283 378.61388742598103,327.4051166415568 378.4508724074736,327.3753903734761 C378.47676302806,327.41278793654544 378.51895515049733,327.4319661740169 378.5505992423252,327.4588157064769 C378.42594069876066,327.83470916091755 378.40963919690995,327.5815564262943 379.0108769416403,327.6458035218237 L379.0108769416403,327.6458035218237 C379.1336176614576,327.60457031126003 379.1336176614576,327.60457031126003 379.24197470317137,327.6573104643066 C379.23909796755066,327.66689958304227 379.23142667256207,327.6812832611459 379.22950884881493,327.69279020362876 C379.2343034081828,327.6975847629966 379.24197470317137,327.69950258674373 379.24676926253926,327.7042971461116 C379.2937559443443,327.6975847629966 379.78855447110806,327.413746848419 379.8460891835224,327.24881400616437 C379.77033514551016,327.12607328634704 379.7933490304759,327.06949748580615 379.9208843096611,327.07908660454194 L380.195133105503,327.0100449496447 C380.3149970896996,326.96881173908105 380.69664401538176,326.78757739497564 380.73500049032464,326.69264511949194 C380.72061681222107,326.6820970888826 380.72061681222107,326.6820970888826 380.5739032955644,326.6705901463997 C380.68993163226673,326.58332916590456 380.85965903388916,326.6523708208019 380.9660982518557,326.5420959553409 C380.94308436689,326.4826434191794 380.6544518929445,326.43086217800646 380.6026706517715,326.425108706765 L380.0954062706513,326.3896289674428 C380.0925295350306,326.3896289674428 380.0877349756628,326.3896289674428 380.0877349756628,326.3896289674428 C379.84704809539596,326.39921808617856 379.62074489323265,326.4040126455464 379.38772930795443,326.4040126455464 C379.21991973007914,326.4193552355236 379.0693705659281,326.53346574847876 378.88909513369646,326.48360233105296 C378.719367732074,326.6523708208019 378.4758041161864,326.53058901285806 378.28977521271327,326.6264802002154 L378.4853932349221,326.79045413059634 C378.658956284039,326.84990666675805 378.82868368566136,326.843194283643 378.9658080835824,326.843194283643 L378.9658080835824,326.843194283643 C379.04539776908894,326.843194283643 379.1000557458826,326.83264625303366 379.19882366886065,326.82689278179225 C379.20170040448136,326.82689278179225 379.2064949638492,326.82689278179225 379.20841278759633,326.82689278179225 C379.31197526994225,326.80867345619436 379.41170210479385,326.7607278625157 379.52005914650755,326.75593330314786 C379.51718241088685,326.7607278625157 379.51718241088685,326.7703169812514 379.51718241088685,326.7751115406193 C379.36950998235665,326.7971665137115 379.22950884881493,326.8508655786316 379.1067681289976,326.92949635226455 Z M379.0453977690889,330.3451404459319 C379.0453977690889,330.3393869746905 379.0453977690889,330.326921120334 379.0453977690889,330.31541417785115 C378.93032834426015,330.29911267600045 378.8171767431785,330.3211676490926 378.71265534895906,330.385414744622 L378.71265534895906,330.385414744622 C378.69155928774046,330.39596277523134 378.93608181550155,330.4285657789328 379.0453977690889,330.3451404459319 Z M378.0673076580444,327.7100506173531 C378.1171710754702,327.6908723798816 378.17374687601097,327.71388626484736 378.2188157340689,327.6937491155023 C378.23895288341396,327.62758419622577 378.12867801795306,327.6467624336973 378.0836091598951,327.6227896368579 C378.0864858955158,327.6458035218237 377.80264798093816,327.5316930088685 377.77196280098383,327.52593953762704 L377.4890837982798,327.50484347640844 C377.3797678446925,327.54415886322494 378.08744480738943,327.7570372991582 377.8947035208012,327.84238045590615 L377.8947035208012,327.84238045590615 C377.8419633677547,327.8644354289984 377.8419633677547,327.8644354289984 377.82566186590395,327.88457257834335 C377.87552528332975,328.14923225544953 378.88813622182295,327.9900528844364 378.9590957004674,327.98525832506857 L378.9590957004674,327.98525832506857 C379.0962200983883,328.01306676940214 379.3129341818159,328.1204648992424 379.4174555760353,327.91046319892985 C379.3580030398738,327.60457031126003 378.29361086020765,327.905668639562 378.0673076580444,327.7100506173531 Z M379.43951054912753,330.42473013143854 C379.37430454172454,330.41418210082924 379.32444112429874,330.43527816204784 379.2908792087237,330.4841826676001 C379.30622179870085,330.4995252575772 379.35416739237945,330.56473126498014 379.3896471317017,330.5676080006009 L379.3896471317017,330.5676080006009 C379.56225126894486,330.5839095024517 379.505675468404,330.42185339581783 379.43951054912753,330.42473013143854 Z M378.44416002435855,330.1687006611946 C378.4671739093243,330.40171624647286 378.797998505707,330.06417926697515 378.87567036746645,330.0363708226415 C378.9897808804217,330.21568734299956 379.1307409258369,330.2454136110804 379.2966326799651,330.1255496268837 L379.2966326799651,330.1255496268837 C379.06265818281315,329.9730826389856 378.7347103220512,329.96157569650273 378.508407119888,329.7371903180866 C378.47772193993364,329.7630809386731 378.4451189362322,329.8023963254896 378.4134748444043,329.82445129858183 C378.40388572566854,329.92034248593916 378.37320054571416,330.0085623783079 378.3636114269784,330.1006179181708 C378.3118301858055,330.1140426844009 378.2437474427818,330.13034418625165 378.1862127303674,330.14568677622884 C378.23319941217244,330.2569205535633 378.3636114269784,330.1140426844009 378.44416002435855,330.1687006611946 Z M380.06088544320284,329.38622857235885 C380.08869388753646,329.17239122455203 379.77800644049876,329.2721180594036 379.734855406188,329.4188315760603 C379.7444445249238,329.45910587475043 379.7655405861424,329.4782841122219 379.8010203254645,329.47157172910687 L379.8010203254645,329.47157172910687 C379.89307586532755,329.47157172910687 379.9803368458227,329.4428043728997 380.06088544320284,329.38622857235885 Z M380.1049953893873,327.341828457901 L380.199927664871,327.37922602097035 C380.3552713883898,327.42141814340755 380.51061511190863,327.4195003196604 380.6669177473011,327.4386785571319 C380.59883500427736,327.53648756823634 380.47801210820717,327.4942954457991 380.390751127712,327.53648756823634 C381.38610165248093,327.8836136664698 382.41501409282483,327.84813392714756 383.0718687262224,328.75334673580056 C382.9654295082558,328.88375875060655 382.7698114860469,328.62197580912107 382.71323568550605,328.7830730038814 C383.3144734302364,329.1877338145292 382.8455655240591,329.6115728626485 383.5551603105032,330.04308320575643 C383.56762616485963,330.12171397938937 383.58105093108964,330.136097657493 383.58105093108964,330.1408922168609 L384.0432464541519,330.59829318055523 C384.0413286304048,330.59062188556663 384.0576301322555,330.60308773992307 384.0624246916234,330.6059644755438 C384.8554448110683,330.8619939457878 385.0654465113808,331.0604887036174 384.81804724799895,330.3854147446219 C384.8602393704362,330.30103049974747 384.93791123219563,330.23390666859734 384.9522949102992,330.13609765749294 C384.95037708655207,330.1332209218722 384.95037708655207,330.1332209218722 384.8918834622641,330.0948644469293 C384.88421216727556,330.06513817884854 384.88421216727556,330.06513817884854 384.91106169973557,330.02678170390556 C384.90818496411487,330.0076034664341 384.903390404747,329.98458958146836 384.896678021632,329.9654113439969 L384.8487324279533,329.9002053365939 C385.00024050397786,329.9222603096861 384.92256864221844,329.7822591761444 385.0548984807715,329.7065051381322 C385.05681630451863,329.6911625481549 385.06161086388653,329.6681486631892 385.06161086388653,329.6518471613385 C385.0759945419901,329.64513477822345 385.0970906032087,329.6384223951084 385.114351016933,329.6355456594877 C385.12873469503666,329.6547238969592 385.12873469503666,329.6547238969592 385.1335292544045,329.71801208061504 C385.3742161346713,329.6681486631892 385.47490188139653,329.6480115138442 385.52764203444303,329.18677490265554 C385.5477791837881,329.20882987574777 385.5746287162481,329.2433507031964 385.59093021809883,329.26828241190924 C385.8364116577335,329.19540510951765 386.1403867216562,329.1023906577811 386.0866876567361,328.89526569308936 C385.9658647606659,328.82814186193923 385.8268225389978,328.85978595376713 385.705040731054,328.8137581838356 C385.7299724397669,328.79170321074344 385.7299724397669,328.79170321074344 385.75682197222693,328.74759326455904 C385.65997187299604,328.68142834528254 385.65997187299604,328.68142834528254 385.6340812524096,328.63540057535096 C385.81531559651495,328.5788247748102 385.85175424771063,328.85499139439924 386.02819403244814,328.8003334176056 C386.0425777105517,328.7744427970191 386.0425777105517,328.7744427970191 385.50462814947724,328.3870424000956 C385.5842178349838,328.3870424000956 385.64175254739814,328.4685499093493 385.72421896852546,328.45800187874005 C385.7290135278933,328.4484127600043 385.7309313516405,328.43978255314215 385.7309313516405,328.43307017002707 C385.6839446698354,328.3716998101184 385.5583272143973,328.29402794835903 385.49024447137367,328.2508769140482 C385.5918891299724,328.28252100587616 385.63887581177744,328.2537536496689 385.62545104554744,328.16553375730024 C385.6024371605817,328.1626570216795 385.5832589231103,328.1588213741852 385.46243602704004,328.0955331905294 C385.51517618008654,328.07635495305794 385.52188856320157,328.07635495305794 385.5947658655931,328.0753960411843 C385.46243602704004,327.83183242529674 385.17668028871526,327.77046206538813 384.9906513852421,327.5882688094092 C385.0031172395985,327.5729262194321 385.0117474464607,327.55854254132845 385.0213365651964,327.54224103947774 C385.04914500953,327.5489534225928 385.08174801323145,327.5384053919834 385.1133921050594,327.54224103947774 C385.09421386758794,327.45593897085615 384.4594142072825,326.9333319997588 384.35872846055736,326.83648190052793 C384.3683175792931,326.8268927817922 384.3817423455231,326.8086734561943 384.3990027592474,326.80100216120576 C384.3817423455231,326.5382603078467 383.80639522137926,326.79428977809073 383.8140665163678,326.6590832039169 C383.77858677704563,326.6389460545719 383.7287233596198,326.6159321696061 383.6932436202976,326.5957950202611 C383.67598320657333,326.614014345859 383.1409103811195,326.61976781710047 383.1361158217516,326.61976781710047 C383.1341979980045,326.614014345859 383.12940343863664,326.6053841389968 383.12652670301594,326.5986717558818 C383.18597923917747,326.55839745719175 383.18597923917747,326.55839745719175 383.5915989616989,326.5440137790881 C383.5963935210667,326.53442466035244 383.60310590418175,326.5277122772374 383.60598263980245,326.5229177178696 C383.5829687548367,326.4116839405351 382.9232373858184,326.33305316690206 382.9165250027034,326.33305316690206 C382.713235685506,326.34743684500563 382.713235685506,326.34743684500563 382.4495349202733,326.3436011975114 C382.4447403609054,326.3656561706036 382.4370690659169,326.3934646149373 382.432274506549,326.416478499903 L382.29323228488096,326.40593046929365 C381.9863804853375,326.5229177178696 382.0237780484069,326.6111376102383 382.3939180316061,326.6686723226527 C382.1983000093972,326.62743911208906 382.0026819871883,326.5746989590425 381.80610505310585,326.5200409822489 C381.5184314910339,326.5583974571918 381.22596336959407,326.5977128440083 380.9382898075222,326.63990496644556 C380.94979675000513,326.685932736377 380.9593858687408,326.6974396788599 381.00733146241953,326.74250853691785 L381.00733146241953,326.74250853691785 C381.0044547267988,326.74538527253856 381.0044547267988,326.75593330314786 381.0044547267988,326.7607278625157 C380.86924815262495,326.7607278625157 380.75417872779616,326.7607278625157 380.5681498243231,326.94292111849455 C380.7810282602563,326.98894888842614 380.7810282602563,326.98894888842614 380.7963708502335,326.993743447794 C380.6189721536224,327.18744364625576 380.3955456870799,327.29196504047513 380.11937906749085,327.31881457293525 C380.11170777250226,327.3255269560503 380.1069132131344,327.3331982510388 380.1049953893873,327.341828457901 Z M381.118565239754,329.06691091845903 C380.89705659695863,328.6564966365698 378.737587057672,328.03320391874723 378.59087354101524,328.37841219323354 C378.6081339547395,328.4090973731878 378.6081339547395,328.4090973731878 378.67333996214256,328.4378647293951 C378.67333996214256,328.4436182006365 378.67333996214256,328.4436182006365 378.5678596560495,328.50402964867163 C378.57265421541734,328.52320788614304 378.57265421541734,328.52320788614304 378.6474493415561,328.58649606979895 C378.53525665234804,328.7849908276286 378.51320167925587,328.0801906005523 378.61005177848676,328.1655337573003 C378.4374476412436,328.1808763472775 377.8899089614334,328.2700551515198 377.97333429443427,328.6545788128226 C377.98292341316994,328.6622501078112 377.9963481794,328.667044667179 378.003060562515,328.6699214027998 L378.003060562515,328.6699214027998 C378.04621159682586,328.6756748740412 378.0931982786309,328.6756748740412 378.2792271821041,328.71499026085775 C378.08648589551586,328.7236204677199 378.08648589551586,328.7236204677199 378.06155418680305,328.7370452339499 C378.10182848549306,328.95088258175673 379.1729330482742,329.02088314852756 379.4970452615419,328.8329364213073 C379.62649836447434,328.8760874556181 379.82019856293607,328.9767732023432 379.92088430966123,329.06786983033265 C379.9045828078105,329.09184262717196 379.8786921872241,329.1052673934021 379.86430850912046,329.1282812783678 C379.90937736717837,329.1982818451386 379.99855617142066,329.1714323126786 380.06472109069716,329.1388293089771 C380.7819871721299,329.4102013691983 380.2507499941704,329.4054068098304 380.2775995266304,329.80814979673113 C378.74046379329275,330.5263747900374 381.5069245485511,330.4841826676001 381.5261027860226,330.47267572511726 C381.4436363648953,330.30774288286267 381.25281290205425,330.28952355726483 381.1300721822369,330.1859610749189 C381.1348667416048,330.17733086805674 381.13678456535195,330.1725363086889 381.1415791247198,330.167741749321 C381.33527932318157,330.21952299049394 381.4858284873325,330.41514101270286 381.72076189635794,330.32979785595484 C381.5855553221841,330.055549060113 381.38706056435444,329.84938300729476 381.1137706803862,329.72088881623597 C381.16938756905336,329.5099282040498 381.558705789724,329.7323957587187 381.61336376651764,329.7880126473859 L381.61336376651764,329.7880126473859 C381.69583018764496,329.8781503635018 381.75720054755357,329.9049998959619 381.7744609612779,329.8982875128469 L381.98158592596974,329.7199299043623 C382.02186022465975,329.6739021344308 382.0343260790163,329.58664115393566 382.0343260790163,329.58376441831496 C382.00172307531477,329.3536255686574 381.1310310941104,329.32006365308234 380.95075566187865,329.13115801398845 C380.9651393399822,329.10910304089623 380.9651393399822,329.10910304089623 381.118565239754,329.06691091845903 Z M377.4219599671297,327.1970327649915 C377.3040138066802,327.21908773808366 377.78634647908746,327.597857928145 377.7182637360638,327.249772918038 C377.6540166405344,327.21908773808366 377.5715502194071,327.1768956156464 377.51017985949846,327.1490871713128 L377.5073031238777,327.1510049950599 C377.4833303270384,327.18360799876143 377.44593276396904,327.19032038187646 377.4219599671297,327.1970327649915 L377.4219599671297,327.1970327649915 Z M377.4171654077618,326.9975790952883 L377.4171654077618,326.9975790952883 C377.5351115682113,327.0244286277483 377.5073031238777,326.8978522604367 377.4056584652789,326.9256607047703 C377.3423702816231,326.9582637084718 377.34716484099096,326.98607215280543 377.4171654077618,326.9975790952883 Z M377.5878517212578,327.3945686109475 C377.60031757561427,327.4060755534304 377.61566016559146,327.420459231534 377.62333146058,327.4329250858905 C377.79689450969676,327.4482676758676 377.8419633677547,327.4482676758676 377.8611416052262,327.4223770552812 L377.8611416052262,327.4223770552812 C377.87840201895045,327.3993631703154 377.61086560622357,327.3993631703154 377.5878517212578,327.3945686109475 Z M376.9434629422167,328.17799961165673 C376.75935186249063,328.08402624804654 376.42660944236076,328.3016992433477 376.78524248307707,328.6181401616268 L376.81113310366356,328.6641679315583 C376.83702372425,328.6641679315583 376.8629143448365,328.6641679315583 376.888804965423,328.6641679315583 C376.89359952479083,328.6622501078112 376.90606537914726,328.6622501078112 376.9405862065959,328.6181401616268 C376.96072335594096,328.6152634260061 376.9885318002746,328.6152634260061 377.0115456852403,328.61142777851177 C377.15250573065566,328.5807425985575 377.1649715850121,328.5443039473617 377.1716839681271,328.5241667980166 L377.1716839681271,328.5241667980166 L377.20045132433427,328.4196454037972 C377.1879854699779,328.3563572201414 377.07483386889623,328.3400557182906 377.0192169802289,328.34676810140564 C376.9559287965732,328.4225221394179 377.3279866035195,328.168410492921 377.124697286322,328.14635551982883 C377.09880666573554,328.14635551982883 377.0748338688962,328.15690355043813 377.05181998393044,328.1760817879096 C377.0163402446082,328.17799961165673 376.980860505286,328.17799961165673 376.9434629422167,328.17799961165673 Z M376.91085993851516,327.8960795208262 C377.18414982248356,328.15210899107024 377.3519594003588,327.60457031126003 377.24072562302433,327.60744704688074 C377.22921868054146,327.60936487062787 377.2263419449207,327.6122416062486 377.20236914808146,327.6189539893636 L377.20236914808146,327.6189539893636 C377.1342864050577,327.60936487062787 377.0652447501605,327.60744704688074 376.9942852715161,327.6122416062486 C376.8945584366645,327.84238045590615 377.01538133273465,327.5451177750985 376.81305092741076,327.66785849491583 C376.81305092741076,327.74553035667526 376.7727766287207,327.7838868316182 376.69318694321413,327.7838868316182 C376.7075706213177,327.86922998836616 376.9060653791473,327.8375858965382 376.98373724090675,327.8069007165839 C377.0134635089875,327.8529284865154 376.90798320289446,327.84333936777966 376.91085993851516,327.8960795208262 Z M378.4316941700021,326.91607158603455 C378.43648872937,326.9045646435517 378.4508724074736,326.89689334856314 378.4508724074736,326.88155075858595 C378.43648872937,326.86524925673524 378.1373082248152,326.6983985907335 378.095116102378,326.70319315010136 C378.0596363630558,326.7156590044578 377.8688129002147,326.7712758931251 377.94360802635344,326.8259338699187 C377.9042926395369,326.8853864060802 377.49100162202694,326.97360629844894 377.8371688083868,327.05511380770264 L377.8371688083868,327.05511380770264 C377.9292243482498,327.07525095704773 378.0212798881128,327.0570316314498 378.11333542797587,327.0704563976799 C378.11333542797587,327.0704563976799 378.11333542797587,327.0704563976799 378.11333542797587,327.07525095704773 C377.6568933761551,327.34662301726894 378.22169246968963,327.39456861094754 378.429776346255,327.2737457148773 C378.429776346255,327.2622387723944 378.4316941700021,327.243060534923 378.4316941700021,327.23155359244015 C378.53813338796874,326.9045646435517 378.87279363184575,327.2584031249002 378.4316941700021,326.91607158603455 Z M378.095116102378,327.4664870014655 L378.095116102378,327.4664870014655 C378.2955286839548,327.5700494838114 378.25045982589677,327.3868973159589 378.14497951980377,327.3993631703154 C378.0778556886537,327.4147057602926 378.0644309224237,327.4482676758676 378.095116102378,327.4664870014655 Z M375.0831739074849,328.15306790294386 C375.0265981069441,328.0753960411844 374.77632210794155,328.05238215621864 374.67180071372206,328.01019003378144 C374.6670061543542,328.01019003378144 374.6670061543542,328.01019003378144 374.6670061543542,328.01019003378144 C374.57974517385907,328.0552588918394 374.4838539865018,328.06676583432227 374.38412715165015,328.04854650872437 C374.27864684555703,328.16745158104743 373.8164513224948,328.5347148286259 374.01878172781875,328.6171812497532 L374.01878172781875,328.6171812497532 C374.02165846343945,328.61814016162674 374.0312475821752,328.62197580912107 374.03412431779594,328.6267703684889 C374.01686390407167,328.70060658275406 374.01878172781875,328.7101957014898 374.0216584634395,328.71690808460477 C374.13193332890046,328.73704523394986 374.5998823232041,328.55676980171813 374.6439922693885,328.3985493425785 L375.1656403286122,328.2412877953126 L375.0831739074849,328.15306790294386 Z M382.77460604541466,328.8434844519164 L382.77460604541466,328.8434844519164 C382.5741934638379,329.03622573850464 383.2041985647755,329.07937677281546 383.06515634310733,328.96238952423954 L383.06515634310733,328.96238952423954 C382.97022406762363,328.88088201498584 382.9117304433356,328.8597859537672 382.77460604541466,328.8434844519164 Z M369.9846394756968,331.3050112313787 L370.0843663105483,331.25802454957363 L370.0661469849504,331.2110378677685 L370.0661469849504,331.2110378677685 L370.0498454830997,331.18035268781415 L370.0191603031454,331.23501066460784 C369.999982065674,331.250353254585 369.7151852392227,331.4593960430239 369.7736788635107,331.5658352609906 C369.84847398964934,331.4948757823462 369.9261458514088,331.421039568081 370.0047766250418,331.34528553006874 C369.9971053300533,331.33377858758587 369.9894340350646,331.3203538213558 369.9846394756968,331.3050112313787 Z M371.39903448921706,332.03666099091487 L371.40191122483776,332.03953772653557 C371.4038290485849,332.50748672083927 371.6569817832082,331.73268592699225 371.4584870253786,331.52556096230046 L371.4584870253786,331.52556096230046 C371.5054737071836,331.6722744789571 371.3386230411819,331.9484410985461 371.39903448921706,332.03666099091487 Z M371.40191122483776,331.58789023408264 L371.40191122483776,331.58789023408264 C371.43643205228636,331.5456981116455 371.46711723224075,331.4363821580581 371.4623226728728,331.38747765250594 L371.44506225914853,331.29350428889575 C371.4402676997807,331.27528496329785 371.4009523129642,331.26473693268855 371.33191065806693,331.26473693268855 C371.33191065806693,331.26473693268855 371.33191065806693,331.26665475643574 371.32999283431974,331.26665475643574 C371.33095174619336,331.28870972952785 371.3875275467342,331.5993971765655 371.40191122483776,331.58789023408264 Z M368.83490413928257,332.1920047144337 C368.82243828492614,332.2131007756523 368.81093134244327,332.2341968368709 368.8042189593283,332.2552928980895 L368.8042189593283,332.2552928980895 L368.8042189593283,332.2552928980895 C368.8224382849261,332.23803248436525 368.83490413928257,332.21693642314665 368.83490413928257,332.1920047144337 L368.83490413928257,332.1920047144337 Z M383.47269388937593,332.2783067830553 C383.46118694689306,332.1795388600773 383.41611808883516,332.1431002088815 383.3528299051793,332.0874833202143 C383.171595561074,332.1220041476629 383.1668010017062,332.11241502892716 383.10734846554465,331.88227617926964 C382.6911807124139,331.5303555216683 382.27597187115674,331.1841883353084 381.8607630298996,330.837062237075 C381.83774914493387,330.837062237075 381.8080228768531,330.837062237075 381.78500899188737,330.837062237075 C381.06103052733965,331.2685725801829 380.36006594775773,331.1295303585148 379.6782796056472,330.4295246908064 C379.6706083106587,330.68075960168255 379.6706083106587,330.68075960168255 379.8173218273153,330.8888434782479 C379.7626638505217,330.9569262212716 379.6897865481301,331.00966637431804 379.6341696594629,331.0825436767097 C380.1385573049623,331.4862455754839 380.0848582400423,331.7547409000844 379.47594920032327,331.8966598573732 C379.6571835444286,332.6896799768182 379.478825935944,332.81721525600335 378.9360818155016,332.27543004743455 C378.9456709342374,332.04433228590347 378.9456709342374,332.04049663840914 378.9360818155016,331.8755637961546 C378.8133410956843,331.78830281565945 377.66935923051153,331.43542324618454 377.6051121349822,331.42487521557524 C377.6003175756144,331.42487521557524 377.6003175756144,331.42487521557524 377.6003175756144,331.42487521557524 C377.484289238912,331.43158759869027 377.37113763783043,331.44021780555244 377.2579860367488,331.447889100541 C377.2560682130016,331.39035438812664 377.2627805961166,331.30980579074645 377.27045189110515,331.2541889020792 C377.17264288000075,331.1170645041583 376.97510703404464,331.16788683345766 376.868667816078,331.04131046614606 C376.93962729472247,330.6970611035333 376.93962729472247,330.6970611035333 377.6434686099251,330.2684274960461 C377.63100275556866,330.2482903467011 377.62045472495936,330.2195229904939 377.6127834299708,330.19938584114885 C377.65497555240796,330.1687006611945 377.7192226479374,330.1293852743781 377.7681271534896,330.1044535656651 C378.01936206436574,330.0200693207907 378.21689791032185,329.97500046273274 378.41251593253077,329.6691075750629 C378.38470748819714,329.64321695447643 378.3473099251278,329.6096550389014 378.3233371282884,329.5828055064414 C378.5141605911295,329.62883327637286 378.87471145559294,329.7132175212473 379.1422478683198,329.4293796066696 C379.0501923284568,329.2826660900129 379.0501923284568,329.2826660900129 379.02430170787034,329.2184189944835 C379.06937056592835,329.19828184513847 379.13074092583696,329.17143231267846 379.1748508720213,329.1484184277127 C379.17293304827416,329.1465006039656 378.7529296476492,328.83101859756 378.57361312729097,328.9844444973317 C378.6560795484183,329.1484184277127 378.3847074881971,329.4341741660375 378.2648435040004,329.46390043411833 C378.17950034725243,329.3919820436003 378.1766236116317,329.3919820436003 378.13730822481523,329.2567754694265 C378.1468973435509,329.2375972319551 378.16703449289605,329.2165011707365 378.17950034725243,329.19732293326496 C378.153609726666,329.15800754644846 378.10854086860803,329.10622630527547 378.06826656991797,329.0774589490683 C377.96949864693994,329.09759609841336 377.95319714508923,329.1023906577812 377.9081282870313,329.21746008261 C377.77292171285745,329.1781446957935 377.73552414978815,329.0228009722747 377.6070299587293,328.9738964667224 C377.64442752179866,328.94129346302094 377.68661964423586,328.8933478693423 377.71730482419025,328.8549913943993 C377.700044410466,328.8233473025714 377.700044410466,328.8233473025714 377.4574397064519,328.55101633047667 C377.504426388257,328.4723855568437 377.51689224261344,328.4541662312458 377.59168736875216,328.37169981011846 C377.79305886220243,328.3812889288542 377.79305886220243,328.3812889288542 378.0212798881128,328.17320505228884 C377.924429788882,328.13868422484023 377.88127875457116,328.12046489924234 377.59168736875216,328.11183469238017 C377.4929194457741,328.12238272298947 377.2474380061394,328.13868422484023 377.3586717834738,328.5126598555337 C377.09017645887343,328.923074137423 377.09017645887343,328.923074137423 377.4056584652789,328.9882801448259 C377.37785002094535,329.0228009722746 377.3423702816231,329.0697876540796 377.32127422040446,329.10814412902255 C377.3414113697495,329.1196510715055 377.3682609022095,329.12828127836764 377.3893569634282,329.1397882208505 C377.3605896072211,329.2165011707363 377.3605896072211,329.2165011707363 377.1275740219427,329.3133512699672 C377.1131903438391,329.3593790398987 377.0853818995055,329.41595484043955 377.05181998393044,329.45622913912956 C377.03551848207974,329.4408865491524 377.0096278614932,329.42170831168096 376.99236744776886,329.4092424573245 C376.64811808515617,329.17814469579343 376.25592312886477,329.08417133218325 375.81482366702113,329.13595257335624 C375.69400077095094,329.1234867189998 375.67769926910023,329.1225278071262 375.4485193313162,329.1973229332649 C375.47153321628195,329.2040353163799 375.50605404373056,329.21266552324204 375.5290679286963,329.21746008260993 C375.5885204648579,329.22896702509286 375.5885204648579,329.22896702509286 375.5885204648579,329.22896702509286 C375.6163289091915,329.2241724657249 375.648931912893,329.22033681823063 375.67865818097374,329.21746008260993 C375.5127664268456,329.4073246335774 375.498382748742,329.40253007420955 375.163722504865,329.3258171243237 C375.1589279454971,329.3248582124501 375.1474210030143,329.3248582124501 375.14070861989927,329.3248582124501 C374.67084180184844,329.36033795177235 374.67084180184844,329.36033795177235 374.6286496794112,329.3565023042781 C374.6286496794112,329.33444733118586 374.6286496794112,329.3056799749787 374.62385512004334,329.2817071781394 C374.66892397810136,329.2634878525415 374.72358195489494,329.2270492013457 374.7494725754814,329.18965163827636 L373.8116567631269,329.00266382292966 C373.8116567631269,328.9825266735846 373.8116567631269,328.9470469342624 373.8116567631269,328.9249919611702 C373.7291903419996,328.92690978491737 373.6706967177117,328.9873212329524 373.5920659440787,329.0074583822975 C373.5843946490901,328.9470469342624 373.56138076412435,328.8674572487558 373.5393257910322,328.8127992719622 C373.51631190606645,328.81471709570934 373.4846678142385,328.81471709570934 373.46453066489346,328.81471709570934 C373.3791875081455,328.92211522554953 373.36480383004186,328.92403304929667 373.27562502579957,328.95855387674527 C373.22863834399453,328.97293755484884 373.22863834399453,328.97293755484884 373.22863834399453,328.97293755484884 C373.20946010652307,328.95855387674527 373.1902818690516,328.93745781552667 373.17589819094803,328.9249919611702 C372.2227397886163,329.07650003719476 372.2227397886163,329.07650003719476 371.80177747611776,328.82047056695075 C371.7825992386463,328.8300596856865 371.75479079431267,328.8406077162958 371.73177690934693,328.8463611875372 C371.6838313156683,328.72266155584623 371.6704065494382,328.7140313489841 371.587940128311,328.6727981384205 C371.0710866284551,328.8664983368822 370.6932753502673,329.2059531401271 370.4487528225062,329.6902036362815 C370.4612186768626,329.6710253988101 370.4765612668398,329.6480115138443 370.4890271211962,329.63075110012 C370.29532692273443,329.7285601112244 370.29532692273443,329.7285601112244 370.1582025248135,329.98554849334204 C370.1792985860321,329.9970554358249 370.20998376598635,330.0143158495492 370.23107982720506,330.0258227920321 C370.2540937121708,330.01239802580204 370.28286106837794,329.992260876457 370.30875168896443,329.9797950221006 C370.22436744409003,330.36527759527695 369.8091586028329,330.49760743383007 369.65765052680837,330.8341855014542 C369.692171354257,330.9137751869608 369.692171354257,330.9137751869608 369.6125816687504,331.1381605653769 C369.63271881809544,331.14774968411257 369.66436290992334,331.158297714722 369.685458971142,331.16788683345766 C369.7065550323606,331.1525442434805 369.7353223885678,331.1352838297562 369.75354171416575,331.12090015165256 C369.7612130091543,331.1429551247448 369.77080212789,331.171722480952 369.7765555991315,331.191859630297 C369.60874602125614,331.43062868681676 369.37573043597786,331.5974793528184 369.1753178544011,331.8055632293838 C369.74587041917715,331.5869313222091 370.0172424793983,331.0326802592839 370.4468349987591,330.65486898109606 C370.41902655442544,330.77473296529274 370.3058749533438,330.83130876583357 370.2387511221937,330.922405393823 C370.25121697655015,330.94158363129446 370.26655956652735,330.96555642813377 370.2790254208837,330.98377575373166 C370.3969715813332,330.9607618687659 370.505328623047,330.8562404745465 370.6731382009223,330.69610219165975 C370.8361532194297,330.9099395394665 371.154511961456,330.93199451255873 371.15642978520316,330.93199451255873 C371.3194448037106,331.2244626339985 371.3194448037106,331.2244626339985 371.50355588343666,331.21775025088346 C371.5841044808168,331.342408794448 371.57643318582825,331.36446376754014 371.5505425652417,331.45172474803536 C371.59848815892036,331.48240992798964 371.6291733388747,331.5639174372434 371.64068028135756,331.6185754140371 L371.7020506412663,331.68282250956645 C371.6042416301618,332.0136471059492 371.89287410410736,332.2725533118139 371.862188924153,332.5870764063459 C371.89287410410725,332.6187204981738 371.94465534528024,332.6551591493696 371.98972420333814,332.67529629871456 C373.16055560097095,332.687762153071 374.5270050208126,332.687762153071 376.0372912216902,332.687762153071 C375.9672906549194,332.55543231451793 375.9672906549194,332.55543231451793 375.9855099805173,332.4278970353327 C376.09386702223105,332.6120081150587 376.09386702223105,332.6120081150587 376.1130452597025,332.6350220000245 C376.2079775351862,332.6868032411974 376.2875672206928,332.6868032411974 376.3633212587051,332.6868032411974 C376.3326360787508,332.5055688970921 376.3326360787508,332.5055688970921 376.26359442385353,332.4068009741141 C376.2415394507612,332.4173490047234 376.2089364470597,332.4221435640913 376.1878403858411,332.42981485907984 L376.1878403858411,332.42981485907984 C375.99989365862075,332.21501859939946 375.99989365862075,332.21501859939946 376.0535927235409,332.07597637773137 C376.09866158159883,332.04049663840914 376.1360591446682,332.04049663840914 376.1734567077375,332.04049663840914 C376.4525000629473,332.4441985371834 376.46880156479807,332.47967827650564 376.4237327067401,332.66187153248455 C378.60429830724536,332.6925567124389 380.7877406433713,332.70118691930105 382.9702240676237,332.6887210649446 C383.47557062499664,332.3444717023319 383.47557062499664,332.3444717023319 383.47269388937593,332.2783067830553 Z M373.2900087039032,329.6815734294194 C373.2871319682825,329.6796556056723 373.28041958516746,329.6796556056723 373.27754284954676,329.67773778192515 C373.46644848864065,329.6269154526257 374.067686233371,329.3296527718181 373.81741023436837,329.6048604795335 C373.6246689477802,329.02088314852756 374.3841271516501,330.54363520376154 373.8624790924264,329.7477383486959 C373.8346706480927,329.75445073181095 373.7972730850234,329.7697933217881 373.7675468169426,329.7774646167767 C373.75508096258613,329.8455473598003 373.66014868710243,329.9011642484676 373.5680931472394,329.900205336594 L373.5680931472394,329.900205336594 C373.5872713847108,329.8484240954211 373.64576500899886,329.8349993291911 373.6716556295853,329.794725030501 C373.6716556295853,329.794725030501 373.6716556295853,329.7928072067538 373.6687788939646,329.7899304711331 C373.55562729288295,329.83883497668535 373.4357633086863,329.8637666853982 373.31014585324823,329.8695201566397 C373.4031603049848,329.7697933217881 373.51631190606645,329.716094256868 373.64864174461957,329.70938187375305 C373.5872713847108,329.5693807402114 373.4002835693641,329.6815734294194 373.2900087039032,329.6815734294194 Z M374.9383782145753,330.353770652794 C375.2202983054059,330.234865580471 374.25755078433843,330.6222659773946 374.27864684555703,330.62706053676243 L374.27864684555703,330.62706053676243 C374.002480225968,330.59541644493453 374.062891674003,330.8744598001443 373.7071353689075,330.66733483545244 C373.8442597668284,330.63569074362454 373.97371286976085,330.5915807974402 374.0983714133253,330.5340460850258 C374.01111043283015,330.3767845377598 374.01111043283015,330.3767845377598 374.015904992198,330.37007215464484 C374.12138529829105,330.405551893967 374.2307012518784,330.4458261926571 374.33905829359213,330.490895050715 C374.5097446070881,330.32692112033396 374.71015718866494,330.2808933504025 374.9383782145753,330.353770652794 Z M375.0755026124963,331.0489817611346 L375.0755026124963,331.0489817611346 C374.86550091218385,331.1228179753997 374.58453973322685,331.2110378677684 374.3754969447879,331.2733671395507 L374.3754969447879,331.2733671395507 L374.3754969447879,331.2733671395507 C374.1070016201875,331.0240500524217 375.0428996087948,331.03268025928384 375.0755026124963,331.0489817611346 L375.0755026124963,331.0489817611346 Z M369.27792142487334,331.8295360262231 L369.27792142487334,331.8295360262231 C369.2760036011262,331.8295360262231 369.33929178478206,331.926386125454 369.33929178478206,331.8295360262231 C369.32107245918417,331.8295360262231 369.29901748609194,331.8295360262231 369.27792142487334,331.8295360262231 Z M368.87230170235193,332.16803191759436 C368.8675071429841,332.175703212583 368.85983584799556,332.18529233131875 368.8531234648805,332.189127978813 C368.85983584799556,332.1939225381809 368.8675071429841,332.2006349212959 368.86942496673123,332.19871709754875 L368.86942496673123,332.19871709754875 C368.86942496673123,332.1939225381809 368.86942496673123,332.1939225381809 368.87230170235193,332.16803191759436 Z M368.9355898860078,332.09899026269716 L368.9355898860078,332.09899026269716 C368.9001101466856,332.1661140938472 368.9566859472264,332.076935289605 368.94997356411136,332.076935289605 C368.9451790047435,332.0759763777314 368.9451790047435,332.0759763777314 368.9355898860078,332.09899026269716 Z M368.9307953266399,332.07405855398423 L368.9307953266399,332.07405855398423 L368.9307953266399,332.07405855398423 C368.92791859101914,332.0759763777314 368.92120620790416,332.08364767271996 368.92120620790416,332.08364767271996 C368.92120620790416,332.08364767271996 368.9068225298006,332.12008632391576 368.9068225298006,332.12392197141 L368.9087403535477,332.12392197141 C368.91449382478913,332.11241502892716 368.9307953266399,332.0826887608464 368.9307953266399,332.07405855398423 Z M369.1177831419867,331.8755637961546 L369.1177831419867,331.8755637961546 C369.1053172876302,331.89186529800537 369.0324399852387,331.9906332209834 369.0305221614915,332.00214016346627 L369.0305221614915,332.00214016346627 C369.07079646018155,331.96761933601766 369.1005227282624,331.9254272135804 369.1177831419867,331.8755637961546 Z M369.0401112802272,331.9484410985462 L369.0401112802272,331.9484410985462 C369.0170973952615,331.9877564853627 368.9806587440657,332.0472090215242 368.97874092031856,332.05583922838645 L368.97874092031856,332.05583922838645 C369.01326174776716,332.02611296030557 369.0324399852387,331.9906332209834 369.0401112802272,331.9484410985462 L369.0401112802272,331.9484410985462 Z M385.3205170697513,326.8815507585859 L385.3205170697513,326.8815507585859 L385.3205170697513,326.8815507585859 L385.3205170697513,326.8815507585859 L385.3205170697513,326.8815507585859 Z M379.99376161205277,346.4932163969029 C379.9659531677191,346.6917111547325 380.02924135137494,346.6677383578932 380.06472109069716,346.4999287800179 C380.0436250294785,346.49801095627083 380.0158165851449,346.4932163969029 379.99376161205277,346.48842183753504 L379.99376161205277,346.48842183753504 L379.99376161205277,346.4932163969029 Z M388.5213649037383,331.47186189738034 L388.5213649037383,331.47186189738034 C388.5165703443704,331.4766564567482 388.5021866662668,331.48145101611607 388.48876190003676,331.51405401981754 C388.49067972378396,331.51884857918543 388.49355645940466,331.52364313855327 388.49355645940466,331.52843769792116 L388.54821443619835,331.57446546785263 C388.65848930165924,331.68378142143996 388.65848930165924,331.68378142143996 388.6632838610271,331.6818635976928 C388.6623249491535,331.5802189390941 388.616297179222,331.51117728419683 388.5213649037383,331.47186189738034 Z M384.00297215546186,333.03488825130455 C383.97420479925466,333.0185867494538 383.7642030989421,333.0905051399718 383.9416017955531,332.95817530141875 C383.9416017955531,332.95817530141875 383.9416017955531,332.95338074205085 383.9416017955531,332.9505040064301 C383.76612092268925,332.7702285741983 383.2674867484313,332.957216389545 383.47748844874377,332.6896799768182 L383.47748844874377,332.6896799768182 C383.53502316115816,332.62351505754157 383.5369409849053,332.5573501382651 383.49187212684734,332.4883084833678 C383.47557062499664,332.49693869022997 383.44968000441014,332.5065278089657 383.43146067881224,332.5103634564601 C383.40365223447867,332.54104863641436 383.31543234210994,332.6302274406567 383.2876238977763,332.6896799768182 C382.9711829794972,333.4309188550903 383.08721131619956,333.18543741545545 383.81886107573575,333.2400953922492 C383.8562586388052,333.1748893848462 384.0240682166804,333.1537933236276 384.00297215546186,333.03488825130455 Z M386.07613962612686,328.88088201498584 L386.07613962612686,328.88088201498584 L386.07326289050616,328.8789641912387 C386.07326289050616,328.87800527936514 386.07326289050616,328.87800527936514 386.07326289050616,328.88088201498584 L386.07326289050616,328.88088201498584 L386.07326289050616,328.88088201498584 L386.07326289050616,328.88088201498584 L386.07326289050616,328.88088201498584 L386.07613962612686,328.88088201498584 L386.07613962612686,328.88088201498584 L386.07613962612686,328.88088201498584 L386.07613962612686,328.88088201498584 Z M380.2823940859982,347.61322546523627 L380.2823940859982,347.61322546523627 C380.2632158485268,347.57199225467264 380.2373252279403,347.537471427224 380.19992766487087,347.5096629828904 C379.970747727087,347.5959650515119 380.10691321313436,347.5652798715576 379.81732182731525,347.57007443092544 C379.96403534397194,347.6726780013978 380.1222558031115,347.7206235950764 380.2919832047339,347.71103447634067 C380.3600659477577,347.71966468320284 380.3600659477577,347.71966468320284 380.4022580701949,347.6966507982371 C380.35335356464265,347.68418494388067 380.3102025303318,347.6563764995471 380.2823940859982,347.61322546523627 Z M389.4400024786213,331.0374748186517 C389.4189064174027,331.00295399120307 389.39781035618415,330.97418663499593 389.37479647121836,330.94062471942084 C389.38438558995404,330.95021383815657 389.39397470868977,330.96172078063944 389.39781035618415,330.969392075628 C389.3546593218733,330.8945969494893 389.3076726400683,330.8169250877299 389.26068595826314,330.73925322597046 L389.2558913988953,330.73925322597046 C388.9020529175468,330.1687006611944 388.49547428315185,329.62979218824637 388.0467035263197,329.12540454274694 L388.06396394004395,329.14650060396553 C388.36314444459873,329.4945856140726 388.8042439064423,330.11979615564223 388.8042439064423,330.2693864079197 L388.8042439064423,330.2693864079197 C388.8042439064423,330.49089505071504 389.3786321187126,331.2685725801828 389.38342667808047,331.27528496329785 C389.3997281799312,331.2647369326885 389.3997281799312,331.2647369326885 389.3431523793904,331.0106252861916 C389.47548221794347,331.2618601970678 389.62603138209454,331.50542381295537 389.78233401748696,331.73843939823365 C389.6874017420032,331.4958346942197 389.57137340530085,331.2618601970678 389.4400024786213,331.0374748186517 L389.4400024786213,331.0374748186517 Z M390.30877663607856,334.0043481554869 C390.32507813792927,333.9995535961191 390.32507813792927,333.9995535961191 390.46412035959736,334.12708887530425 C390.4900109801838,334.0407868066827 390.4363119152638,333.95256691431393 390.4900109801838,333.87489505255456 C390.4900109801838,333.87489505255456 390.662615117427,334.0753076341313 390.84384946153233,334.9258624659907 C390.8409727259116,334.81654651240336 390.8006984272215,334.7120251181839 390.78631474911793,334.6036680764701 C390.7843969253708,334.57681854401005 390.7796023660029,334.55380465904426 390.77193107101436,334.52695512658426 L390.77193107101436,334.52695512658426 C390.50055901079315,333.6572220572535 390.50055901079315,333.6572220572535 390.5034357464139,333.61598884668985 C390.50535357016105,333.61598884668985 390.51302486514965,333.61598884668985 390.5178194245175,333.61598884668985 C390.6280942899784,333.781880600818 390.68562900239283,333.9544847380611 390.68562900239283,334.1357190821664 C390.49480553955175,333.35804155269864 390.229186950572,332.6100902913116 389.88781432358,331.8918652980054 L389.88781432358,331.8918652980054 C389.9472668597415,332.0606337877543 389.9472668597415,332.0606337877543 389.9472668597415,332.0654283471221 C389.9165816797872,332.0625516115014 389.9194584154079,332.0261129603056 389.9021980016836,332.01460601782276 C389.89260888294785,332.02131840093773 389.89260888294785,332.0261129603056 389.88781432358,332.03570207904136 C389.7411008069232,331.789261727533 389.6145244396116,331.5380268166569 389.49370154354136,331.28007952266574 L389.49370154354136,331.28007952266574 C389.49370154354136,332.4144722691027 389.5310991066107,334.9143555235078 390.0479526064666,335.3775099584436 C390.0690486676852,335.35833172097216 390.07671996267374,335.34970151411 390.0930214645246,335.25956379799413 C390.14767944131825,335.2528514148791 390.21863891996264,335.2432622961434 390.2704201611356,335.2336731774077 C390.33370834479143,335.0696992470267 390.33370834479143,335.0696992470267 390.35096875851576,334.9143555235078 C390.3385029041593,334.8990129335306 390.32028357856143,334.0618828679013 390.30877663607856,334.0043481554869 Z M390.84480837340584,335.1847686718554 C390.8572742277623,335.1847686718554 390.86782225837163,335.2039469093268 390.86782225837163,335.2039469093268 C390.88028811272807,335.22983752991325 390.87741137710736,335.25764597424694 390.8879594077167,335.28353659483344 C390.885082672096,335.185727583729 390.86782225837163,335.0831240132566 390.84480837340584,334.98627391402573 C390.840013814038,334.99298629714076 390.8428905496587,335.0016165040029 390.8428905496587,335.0054521514972 C390.8189177528194,334.99682194463503 390.83905490216443,334.9690135003014 390.81699992907227,334.95750655781853 L390.81699992907227,334.95750655781853 C390.81699992907227,334.95750655781853 390.81699992907227,334.95750655781853 390.81699992907227,334.96134220531286 C390.81412319345156,334.97189023592216 390.8189177528194,334.9881917377729 390.81412319345156,335.00353432775 C390.81220536970443,335.00353432775 390.81220536970443,335.00353432775 390.8026162509687,334.99586303276146 C390.840013814038,335.1751795531197 390.840013814038,335.1751795531197 390.84480837340584,335.1847686718554 L390.84480837340584,335.1847686718554 Z M390.61850517124265,334.45120108857196 L390.61850517124265,334.45120108857196 C390.61850517124265,334.4531189123191 390.61850517124265,334.4559956479398 390.61850517124265,334.4598312954341 C390.7460404504278,335.2653172692355 390.7306978604507,334.51448927222776 390.61850517124265,334.45120108857196 Z M390.60795714063335,334.3946252880311 C390.6194640831162,334.30832321940954 390.60508040501264,334.2258567982823 390.56768284194334,334.15010276027 C390.5628882825754,334.15873296713215 390.55809372320755,334.1740755571093 390.55521698758685,334.1884592352129 L390.55521698758685,334.1884592352129 C390.6031625812655,334.38407725742184 390.60508040501264,334.3879129049161 390.60795714063335,334.3946252880311 Z M389.48698916042633,332.03378425529417 L389.48698916042633,332.03378425529417 C389.47644112981703,332.05392140463925 389.47452330606995,332.05967487588066 389.47452330606995,332.06446943524855 L389.46972874670206,332.06542834712207 C389.4419203023685,332.05008575714487 389.49082480792066,332.2035116569166 389.49561936728855,332.08077093709926 L389.48698916042633,332.03378425529417 L389.48698916042633,332.03378425529417 Z M385.4279151995915,326.95730479659824 C385.6139441030646,327.10018266576066 385.8076443015264,327.22867685681945 386.00997470685036,327.3399106341539 C386.07326289050616,327.38114384471754 386.08093418549475,327.38402058033824 386.0857287448626,327.3878562278326 C386.0857287448626,327.3859384040854 386.0857287448626,327.38402058033824 386.08093418549475,327.38114384471754 C386.0886054804833,327.38114384471754 386.0934000398512,327.38402058033824 386.098194599219,327.3859384040854 C385.88243942766513,327.2334714161873 385.66572534423756,327.0896346351513 385.44325778956863,326.9525102372304 L385.4269562877179,326.94292111849455 L385.4269562877179,326.94292111849455 C385.40106566713143,326.928537440391 385.40106566713143,326.928537440391 385.39914784338424,326.928537440391 C385.4413399658215,326.9544280609775 385.48161426451156,326.97840085781684 385.52380638694876,327.0081271258976 C385.51709400383373,327.00333256652976 385.5046281494773,326.99662018341473 385.49599794261513,326.9927845359204 C385.50846379697157,327.00333256652976 385.5190118275809,327.0100449496447 385.5314776819373,327.01771624463333 C385.49599794261513,327.00045583090906 385.46339493891367,326.9764830340697 385.4279151995915,326.95730479659824 Z M390.72014982984143,335.205864733074 C390.707683975485,335.1857275837289 390.69138247363423,335.15791913939535 390.68467009051926,335.13682307817675 C390.68179335489856,335.1301106950617 390.68179335489856,335.1301106950617 390.68179335489856,335.1301106950617 C390.6587794699328,335.17613846499324 390.65686164618563,335.22983752991325 390.63001211372557,335.27586529984484 C390.602203669392,335.2490157673848 390.5801486962998,335.2144949399361 390.5523402519662,335.1866864956025 C390.3365850804122,335.50888088512306 390.3365850804122,335.50888088512306 390.03069219274244,335.44463378959364 C390.0000070127881,335.63737507618185 389.04205405108854,337.7604059642727 389.11684917722727,338.0749290588046 C388.8646553544776,337.94739377961946 389.67877153514115,340.466455271496 389.83027961116574,340.5844014319455 C389.9290475341437,340.55179842824396 389.93767774100587,340.43097553217376 390.0258976333746,340.38878340973656 C390.0958982001454,340.46453744774885 390.11795317323765,340.571935577589 390.18603591626135,340.6496074393484 C390.2090498012271,340.6428950562334 390.2090498012271,340.6428950562334 390.2780914561243,340.5911138150605 C390.2780914561243,341.0063226563176 389.97699312782237,341.31796901522887 389.8839786760858,341.69769811716384 C389.9338420935116,341.7111228833939 389.96740400908664,341.7111228833939 389.97219856845453,341.7111228833939 C390.7508350097957,339.9457661241458 391.0941254605348,338.13821724246054 390.9991931850512,336.29135297395874 L390.9991931850512,336.29135297395874 L390.9963164494305,336.2827227670966 C390.98672733069475,336.17053007788854 390.98193277132685,336.1283379554513 390.9541243269932,335.9960081168982 C390.9474119438782,335.9940902931511 390.93974064888965,335.9892957337832 390.93494608952176,335.9854600862889 C390.7815201897501,335.7294306160449 390.8448083734059,335.4340857589844 390.779602366003,335.1646315225104 C390.75946521665793,335.1751795531197 390.7393280673129,335.1933988787175 390.72014982984143,335.205864733074 Z M390.7460404504278,339.28795257887464 C390.7460404504278,339.28795257887464 390.7489171860485,339.3042540807254 390.7489171860485,339.3071308163461 C390.7393280673128,339.32822687756476 390.7230265654621,339.3982274443356 390.71823200609424,339.4011041799563 C390.7115196229792,339.3924739730941 390.7393280673128,339.21603418835673 390.7633008641522,339.1182251772522 C390.79110930848583,339.1719242421723 390.72782112483,339.23521242582814 390.7460404504278,339.28795257887464 L390.7460404504278,339.28795257887464 Z M386.14997584039196,327.4223770552812 C386.1355921622884,327.4060755534304 386.1183317485641,327.39265078720035 386.098194599219,327.38689731595895 C386.1173728366905,327.3984042584418 386.1327154266677,327.41278793654544 386.14997584039196,327.4223770552812 Z M386.14901692851845,327.4223770552812 L386.14901692851845,327.4223770552812 C386.20846946468,327.4856652389369 386.28614132643935,327.53265192074207 386.36189536445164,327.5825153381678 C386.29093588580724,327.5249806257535 386.22189423091004,327.47128156083335 386.14901692851845,327.4223770552812 Z M380.69856183912896,338.3501367665201 C380.8491110032799,338.4373977470153 380.8491110032799,338.43931557076246 380.8634946813835,338.46424727947533 L380.8634946813835,338.46424727947533 C380.90568680382074,338.5505493480969 381.3803481812394,338.4584938082339 381.43212942241234,338.4143838620495 C381.38034818123947,338.37410956335947 381.35733429627373,338.32136941031297 381.3669234150094,338.2484921079214 C381.3669234150094,338.2484921079214 381.10897612101826,338.16602568679406 381.0504824967303,338.17369698178265 C380.8596590338892,338.2484921079214 380.6439038623353,338.25808122665717 380.48856013881647,338.4000001839459 C380.554725058093,338.3865754177159 380.6391093029674,338.36452044462374 380.69856183912896,338.3501367665201 Z M380.06088544320284,338.5160285206483 C380.04170720573137,338.4958913713033 380.004309642662,338.4613705438546 379.6878687243829,338.4594527201075 C379.68978654813003,338.4594527201075 379.68978654813003,338.4594527201075 379.68978654813003,338.4594527201075 L379.68978654813003,338.4594527201075 C379.7051291381072,338.4757542219582 380.01102202577704,338.81808576082386 380.06088544320284,338.5160285206483 Z M377.3740143734511,337.9982161089189 C376.78428357120356,338.721235661593 376.3124989294056,338.6186320911207 375.9577015361836,337.6971177806169 L376.06605857789737,336.88300159995333 C376.43428073734947,336.14655728104924 378.49402344178446,336.4035456631668 378.90539663554733,336.7631376157567 C378.87662927934014,336.78231585322817 378.8459440993858,336.8225901519183 378.83443715690294,336.8561520674933 C378.92936943238664,337.0412220590929 379.1230696308484,337.1428667176916 379.2304677606886,337.31067629556696 C377.85922378147905,337.78725549673277 380.86157685763646,334.3265425450074 380.2143113429746,335.4187431690072 C380.13184492184735,335.2451801198905 379.94102145900627,335.14545328503885 379.8815689228448,334.9527119984507 C379.93910363525913,334.8807936079327 379.93910363525913,334.8807936079327 380.0656800025708,334.7772311255868 C380.0628032669501,334.82038215989763 380.05800870758225,334.87791687231197 380.06088544320295,334.9210679066228 C380.12896818622664,334.9527119984507 380.17403704428455,334.9718902359221 380.2756817028833,334.9028485810249 C380.25266781791754,334.86257428233483 380.2258182854575,334.80983412928833 380.20280440049174,334.7705187424718 C380.4645873419772,334.8875059910477 380.4952725219315,334.66599734825235 380.5182864068973,334.4895575635149 C380.6036295636453,334.45887238356056 380.6180132417489,334.4473654410777 380.62952018423175,334.35722772496183 C380.78294608400347,334.39750202365184 380.992947784316,334.4502421766984 381.15596280282335,334.3476386062261 C380.87979618323436,334.0158550979698 381.6143226783913,333.9439367074518 381.81857090746234,333.71859241716214 C381.9998052515677,333.71092112217354 382.1800806837994,333.6562631453799 382.3613150279047,333.6840715897135 C382.06213452334987,333.67927703034565 381.91446209481967,333.87777178817527 381.90295515233674,333.9027034968882 C382.2874788136396,333.87297722880743 382.64611185435587,333.76557909896724 382.98077209823293,333.5872214904826 C382.9759775388651,333.5699610767583 382.9711829794972,333.54502936804545 382.96638842012936,333.52776895432106 C382.8983056771056,333.49324812687246 382.8915932939907,333.48845356750456 382.86762049715134,333.3810554376644 C382.76789366229974,333.38776782077935 382.73912630609254,333.402151498883 382.6461118543559,333.59872843296546 C382.57035781634363,333.6006462567126 382.46871315774496,333.61215319919546 382.3900823841119,333.6169477585633 L382.23761539621376,333.5431115442982 L382.05350431648776,333.3494113458365 C382.07076473021203,333.3225618133764 382.0909018795571,333.2794107790656 382.10624446953426,333.2468077753641 C382.030490431522,333.21516368353616 382.030490431522,333.21516368353616 381.93076359667043,333.16913591360463 C382.0707647302121,333.1489987642596 382.0707647302121,333.1489987642596 382.1455598563508,333.09242296371883 C382.0937786151778,332.6350220000245 381.33815605880227,333.16338244236323 381.0581537917189,333.36379502394004 C381.682405421415,333.1250259674203 382.3133694342261,332.9073529721192 382.94816909453147,332.7002280074274 C380.6784246897839,332.6762552105881 378.40100899004784,332.687762153071 376.13030567342673,332.687762153071 C376.114004171576,332.7002280074274 376.08811355098953,332.71365277365743 376.0708531372652,332.72324189239316 C374.52316937331824,332.687762153071 373.1567199534765,332.687762153071 372.01465591205096,332.687762153071 C372.0808208313275,332.72324189239316 372.26013735168567,332.8191330797505 372.45383755014745,333.1020120824546 C372.421234546446,333.20557456480054 372.3991795733538,333.28228751468635 372.27643885353643,333.28228751468635 C372.25917843981216,333.2468077753641 372.2313699954785,333.2026978291798 372.21315066988063,333.1691359136047 C372.1901367849149,333.1681770017311 372.16136942870776,333.16721808985756 372.1402733674891,333.1633824423633 C370.74026203207234,334.9623011171864 373.7828894069198,336.12642013170415 373.10781544792434,336.92519372239053 C373.23535072710956,337.0786196221623 373.4808321667443,337.02108490974786 373.5872713847109,337.2061549013475 C373.57480553035447,337.2473881119111 373.5537094691358,337.30396391245193 373.53453123166435,337.33944365177416 C373.5872713847109,337.4938284634194 373.72823143012613,337.55423991145454 374.0139871684509,337.68369301438685 C373.24877549333956,336.68067119462944 373.12124021415434,336.2654623533723 373.1058976241772,336.19450287472785 C373.12603477352224,336.18491375599217 373.1576788653501,336.1724479016357 373.18069275031587,336.16381769477357 C373.24398093397167,336.19162613910714 373.3369953857083,336.23094152592364 373.4098726880998,336.3364218320167 L374.07248079273876,337.23971681692257 C374.68138983245774,337.9406813965045 374.68138983245774,337.9406813965045 374.5912521163418,338.1267102999777 C375.4763277756498,339.18726683214953 377.73935979728236,338.50643940191264 378.43361199374925,339.61398261588954 C378.3837485763234,339.65713365020036 378.3137480095526,339.6734351520511 378.2705969752418,339.7300109525919 C378.4642971737036,339.97261565660585 378.6599151959125,339.9246700629272 378.77114897324697,339.8978205304672 C378.72512120331544,339.78371001751196 378.6186819853489,339.6926133895225 378.59470918850957,339.5622013747166 L378.59470918850957,339.5622013747166 C378.7951217700863,339.05685481734355 378.61772307347536,338.83438726267457 378.07114330553867,338.898634358204 C377.91292284639906,338.898634358204 377.787305390961,338.898634358204 377.6645646711437,338.898634358204 C377.6501809930401,338.6138375317527 377.9359367313649,338.426849716406 377.91963522951414,338.1401350662077 C377.95511496883637,338.1084909743798 377.99730709127357,338.06533994006895 378.0308690068486,338.03369584824105 C377.8745663714562,337.95218833898736 377.3816856684396,337.9982161089189 377.3740143734511,337.9982161089189 Z M378.69155928774046,334.34380295873177 C378.7318335864305,334.23161026952374 379.4970452615418,334.15585623151145 379.58622406578417,334.14530820090215 C379.584306242037,334.14818493652285 379.584306242037,334.14818493652285 379.58142950641627,334.15010276027 L379.58142950641627,334.15010276027 C379.29375594434435,334.406132230514 378.9993699991574,334.471338237917 378.69155928774046,334.34380295873177 Z M379.6447176900721,333.914210439371 L379.6447176900721,333.914210439371 C379.7511569080387,333.88160743566954 379.8556783022582,333.89119655440527 379.95924078460405,333.94489561932534 C379.984172493317,333.94489561932534 380.0091042020299,333.92667629372744 379.9870492289377,333.8825663475431 C380.2775995266303,334.1453082009021 379.43279816601245,334.06188286790126 379.4443051084953,334.06092395602764 C379.4251268710239,334.0657185153955 379.39923625043735,334.0772254578784 379.3790991010923,334.08393784099337 C379.4021129860581,333.97366297553253 379.4845794071854,333.9573614736818 379.6447176900721,333.914210439371 Z M378.8564921299951,333.94201888370463 C378.7903272107185,333.95640256180826 378.7337514101777,334.0053070673605 378.6627919315333,333.9985946842455 C378.6532028127976,333.9890055655098 378.645531517809,333.97462188740616 378.64361369406186,333.9199639106125 C378.7711489732471,333.74160630212793 378.71457317270625,333.6361259960349 378.46813282119797,333.5968106092184 C377.1016834013563,334.4761327972849 378.27730935835694,333.5670843411376 378.4710095568187,333.54023480867755 L378.553475977946,333.5133852762175 C378.1526508147924,333.40406932263016 377.62812601994796,333.5287278661947 377.24935582988655,333.38105543766443 C377.241684534898,333.37626087829653 377.2320954161622,333.3714663189287 377.22538303304725,333.36954849518156 C377.5053853001305,333.20557456480054 377.5053853001305,333.20557456480054 377.5504541581885,333.2074923885477 L377.5504541581885,333.2074923885477 C377.95127932134204,333.1691359136047 379.09813792213544,333.27461621969775 379.39827733856384,333.7665380108408 C379.3723867179774,333.87393614068105 379.2726598831258,333.86242919819813 379.1048503052505,333.7272226240243 L379.01087694164033,334.0014714198662 C379.02717844349104,334.0925680478557 378.980191761686,334.12612996343074 378.8756703674665,334.10599281408565 C378.8708758080987,334.0542115729127 378.8632045131101,333.98996447738335 378.8564921299951,333.94201888370463 Z M389.97219856845436,341.7101639715203 C389.96740400908647,341.7101639715203 389.9338420935114,341.7101639715203 389.8820608523385,341.7101639715203 C389.75260774940614,342.2912645669056 388.6910923053607,344.04223764805005 387.5509460876823,345.18334277760204 L387.5509460876823,345.18334277760204 C388.55396790743976,344.18799225283317 389.37959103058614,343.0152430314532 389.97219856845436,341.7101639715203 Z M372.02712176640745,333.02434022069514 C372.26780864667427,333.33982222710074 372.3061651216172,332.66187153248455 371.77684576740484,332.66187153248455 C371.77684576740484,332.66187153248455 371.7816403267727,332.6637893562317 371.7845170623934,332.6637893562317 C371.7749279436577,332.6733784749674 371.77205120803694,332.68296759370315 371.76533882492197,332.6887210649446 C371.70205064126617,332.8363934934748 371.9580801115102,332.9342025045793 372.02712176640745,333.02434022069514 L372.02712176640745,333.02434022069514 Z M381.7744609612779,338.45178142511895 L381.7744609612779,338.45178142511895 C381.7572005475536,338.4373977470153 382.06021669960273,338.5428780531084 381.9624076884983,338.4345210113946 C381.90199624046323,338.43452101139457 381.8348724093131,338.43931557076246 381.7744609612779,338.45178142511895 Z M383.2051574766491,340.24878227619496 C383.2051574766491,340.2353575099649 383.2051574766491,340.21905600811414 383.2051574766491,340.21138471312554 C383.1974861816605,340.20083668251624 383.1878970629248,340.19220647565413 383.1840614154305,340.1893297400334 C383.12077323177465,340.1950832112748 383.12077323177465,340.1950832112748 383.0939236993146,340.18645300441267 C383.0747454618432,340.138507410734 383.0747454618432,340.138507410734 383.066115254981,340.07713705082534 C382.87816852776064,340.00521866030743 382.87816852776064,340.00521866030743 382.85131899530063,340.00521866030743 C382.7563867198169,339.7980936956156 382.6250157931374,339.83261452306425 382.48980921896356,339.67151732830393 C382.40734279783624,339.71754509823546 382.40734279783624,339.71754509823546 382.27021839991534,339.73192877633903 C382.1378885613623,339.7616550444198 382.1119979407757,339.7616550444198 382.0506275808671,339.7616550444198 L381.57596620344844,339.725216393224 C381.57308946782774,339.72329856947687 381.30459414322723,339.5430231372451 381.30267631948004,339.5401464016244 C381.01883840490245,339.5315161947622 380.91815265817723,339.63603758898176 380.9881532249481,339.8508338486621 C380.9603447806145,339.86905317426 380.9287006887866,339.88056011674286 380.8634946813836,339.8335734349378 C380.88267291885506,339.7213807457298 380.88267291885506,339.7213807457298 380.83760406079716,339.6964490370169 C380.80691888084283,339.5890509071767 380.941166543143,339.55357116785456 380.941166543143,339.4576799804972 C380.9363719837752,339.4576799804972 380.92870068878665,339.45672106862366 380.9219883056716,339.45672106862366 C380.47609428446015,339.48836516045156 380.1270503624795,339.6600103858211 379.97841902207574,340.05699990148037 C379.76266385052173,340.01576669091673 378.79608068196006,339.7319287763391 378.64169587031483,340.01576669091673 C378.7816970038565,340.08097269831967 378.7816970038565,340.08097269831967 379.0406032097212,340.0627533727218 C379.1806043432629,340.21138471312554 379.19402910949293,340.2276862149764 379.3493728330117,340.15385000071126 C379.3474550092646,340.1423430582284 379.339783714276,340.1270004682512 379.339783714276,340.1183702613891 C379.3148520055631,340.10590440703265 379.2880024731031,340.08576725768756 379.2669064118844,340.07234249145756 C380.08389932816874,339.1124717060109 379.23142667256224,342.18674317268625 379.3493728330117,341.69673920529044 C386.14134563353,341.71016397152044 386.14134563353,341.7168763546355 379.3426604498967,341.71016397152044 C379.3052628868274,341.83194577946426 379.0147125891347,341.9115354649707 379.14896025143497,342.0266048897995 C379.1537548108028,342.06112571724816 379.1537548108028,342.06112571724816 379.1566315464235,342.1512634333641 C380.75417872779633,342.87236516229103 381.0322631711325,344.71539378329845 380.08389932816874,346.0444456400708 C380.1836261630203,346.1575972411524 380.19992766487104,346.3043107578091 380.13184492184735,346.47691489505235 C380.1385573049624,346.4970520443974 380.1385573049624,346.4970520443974 380.03403591074294,346.8288355526537 C380.0177344088922,346.8077394914351 380.0177344088922,346.8077394914351 379.99184378830574,346.7329443652963 C379.98225466957,346.72527307030776 379.97074772708714,346.722396334687 379.9640353439721,346.71856068719273 C379.9045828078106,346.77897213522783 379.843212447902,346.96883668619535 379.843212447902,346.9707545099424 C379.9093773671785,346.97746689305745 379.9093773671785,346.97746689305745 379.9304734283971,346.9889738355403 C379.73964996555605,347.09253631788624 379.69266328375096,347.25459242452007 379.784718823614,347.4828134504305 C379.9410214590064,347.65637649954715 380.09636518252523,347.65637649954715 380.24691434667625,347.4828134504305 C380.3581481240107,347.31883952004944 380.577738943059,347.22774289206 380.68609598477275,347.0522620191961 C380.6813014254049,347.04554963608115 380.676506866037,347.03212486985103 380.676506866037,347.0215768392418 C380.4665051657245,346.9285623875053 380.6266434486112,346.82020534579146 380.6285612723584,346.82020534579146 C380.642944950462,346.81732861017076 380.64869842170344,346.8154107864236 380.65445189294485,346.8154107864236 L380.65445189294485,346.8154107864236 C380.75417872779644,346.8134929626765 380.75417872779644,346.8134929626765 380.9728106349711,346.5862308486397 C381.0408933779948,346.6111625573526 381.0955513547884,346.58527193676616 381.116647416007,346.5689704349154 C381.0792498529377,346.504723339386 380.9939066961897,346.55554566868534 380.95171457375244,346.49992878001814 C380.9632215162353,346.4586955694545 380.9632215162353,346.4586955694545 380.9814408418332,346.40020194516654 C381.2154153389851,346.4932163969031 381.3506219131589,346.41650344701725 381.3803481812396,346.17293983112967 C381.7840500800139,346.1930769804747 381.8425437043019,346.14129573930177 382.09090187955724,345.91978709650635 C382.01323001779787,345.69636062996386 382.02473696028073,345.6445793887909 382.02473696028073,345.6445793887909 C382.3037803154905,345.7107443080675 383.18118467980986,345.671428921251 383.18118467980986,345.13731500767074 C383.23584265660355,345.09128723773927 383.3087199589951,345.07690355963564 383.36146011204164,345.0184099353477 C383.7852991601609,344.72018834266646 384.4872226516164,344.3529250950879 384.8621571941835,343.9923742306245 L385.1968174380605,343.6049738337009 C385.3099690391422,343.42278057772205 385.3646270159358,343.2137377892831 385.4614771151667,343.0267499739363 C385.91600134324017,343.08907924571844 386.41847116499247,342.2481135325948 385.9955910287468,341.93359043806277 L385.9955910287468,341.93359043806277 C385.70983529042195,341.7216709140032 385.03092568393225,341.2719412452974 384.63873072764085,341.3841339345055 C384.5466751877778,341.32276357459676 384.4431127054319,341.29111948276886 384.3270843687296,341.29111948276886 C384.339550223086,341.2527630078259 384.339550223086,341.2527630078259 384.4651676785241,341.07728213496205 C384.3587284605575,340.92769188268466 384.3865369048911,340.74837536232644 384.34913934182174,340.58344252007197 C383.95502656178326,340.34946802292006 383.5168038355603,340.5527573401176 383.2051574766491,340.24878227619496 Z M381.1559628028233,343.54743912128635 C381.03609881862667,343.52442523632055 380.97281063497087,343.4553835814233 380.95842695686724,343.34414980408883 C381.00253690305163,343.35086218720386 381.2192509864791,343.5359321788035 381.2221277220999,343.5359321788035 L381.2221277220999,343.5359321788035 C381.21445642711126,343.5407267381713 381.18185342340985,343.5455212975392 381.1559628028233,343.54743912128635 Z M380.2660925841475,338.2024643379899 L380.2660925841475,338.2024643379899 C380.66308209980673,338.16698459866774 379.71184152122225,337.89944818594086 379.7099236974751,337.89944818594086 C379.6792385175208,337.9262977184009 379.64088204257786,337.9694487527117 379.61211468637066,337.99917502079245 C379.61211468637066,338.05191517383895 379.6648548394172,338.0864360012876 379.92088430966123,338.1046553268855 C379.7837599117403,338.16602568679417 379.78184208799314,338.18616283613915 379.78184208799314,338.1986286904957 C379.7607460267745,338.17369698178265 380.3600659477577,338.19287521925423 380.2660925841475,338.2024643379899 Z M379.58718297765773,337.98383243081526 C379.59005971327844,337.98383243081526 379.5977310082671,337.9771200477002 379.59964883201417,337.9742433120795 C379.56225126894486,337.81985850043424 379.4749902884497,337.7354742555598 379.3388248024023,337.7210905774562 L379.3388248024023,337.7210905774562 C379.1978647569871,337.7009534281112 378.8574510418686,337.6165691832367 378.7107375252119,337.6501310988118 C378.43265308187574,337.72780296057124 378.39046095943854,337.76711834738774 378.3521044844956,337.80163917483634 C378.364570338852,337.9090373046766 378.52950318110663,337.8582149753772 378.8910129574437,337.7393099030541 C379.12498745459555,337.79876243921564 379.3551263042531,337.92917445402156 379.5852651539106,337.98383243081526 C379.5852651539106,337.98383243081526 379.5852651539106,337.98383243081526 379.58718297765773,337.98383243081526 Z M380.8395218845442,337.914790775918 L380.9852764893273,337.93684574901016 C380.9862354012008,337.8850645078372 380.97185172309725,337.8850645078372 380.9641804281087,337.8850645078372 L380.9641804281087,337.8850645078372 C380.954591309373,337.89081797907863 380.93157742440724,337.89081797907863 380.8395218845442,337.914790775918 Z M380.711986605359,337.97616113582666 C380.6813014254047,337.97616113582666 380.6525340691975,337.97616113582666 380.6237667129903,337.97616113582666 C380.6199310654959,337.9982161089188 380.6554108048182,338.0432849669768 380.6736301304161,338.033695848241 L380.6736301304161,338.033695848241 C380.68801380851966,338.0145176107696 380.70431531037036,337.99725719704526 380.711986605359,337.97616113582666 Z M384.0202325691862,333.2161225954098 C384.0173558335655,333.2161225954098 384.0173558335655,333.2161225954098 384.0173558335655,333.2161225954098 C383.9185879105874,333.2487255991113 383.88119034751804,333.3244796371236 383.91187552747243,333.43475450258444 L383.91187552747243,333.43475450258444 C384.1353019940149,333.55270066303393 384.20242582516505,333.2468077753641 384.0202325691862,333.2161225954098 Z M380.45979278260927,337.73163860806557 L380.4051348058156,337.76711834738774 C380.4674640775978,337.80643373420423 380.49527252193144,337.8591738872508 380.5422592037366,337.76711834738774 L380.5422592037366,337.76711834738774 L380.45979278260927,337.73163860806557 Z "/></g></svg>