<?xml version="1.0" encoding="utf-8"?><svg xmlns="http://www.w3.org/2000/svg" xmlns:xlink="http://www.w3.org/1999/xlink" version="1.1" x="0px" y="0px" width="38px" height="38px" viewBox="0 0 38 38" enable-background="new 0 0 38 38" xml:space="preserve" xmlns:xml="http://www.w3.org/XML/1998/namespace"><defs/><style><![CDATA[ ]]></style><g transform="matrix(1 0 0 1 0 0)" type="LAYER" name="workspace" id="workspace"/><g transform="matrix(1 0 0 1 0 0)" type="LAYER" name="Layer 01" id="Layer 01"><path transform="matrix(1 0 0 1 -275.76822775031627 -0.686454376400647)" width="17.324777400929463" height="17.147058823529406" stroke-width="1.2869330990947356" stroke-linejoin="round" stroke="none" fill="#E9E9E9" d="M302.32182870532915,15.314209196242665 C301.2453039203668,15.314209196242665 300.8545652947139,16.743053546736167 300.7252051147924,17.21377529125673 C300.49040752794883,18.014372903984608 300.20156219469965,18.859448161864037 299.93132346267214,19.53124592717389 L299.5476730660559,19.44229063687079 C299.5698237817959,18.921531541554742 299.62918769997907,18.35536818347982 299.72222070608683,17.84665511705898 C299.8170257694539,17.31848308088433 299.9933454667441,16.73100751784096 300.14485636240533,16.21210165773956 C300.527620730392,14.91483700748605 300.85545132334335,13.801042643482685 300.33801060365795,13.06901473369677 C300.1599188491084,12.813268274075366 299.80196328275076,12.511190934087761 299.10908889440464,12.511190934087761 C298.106104485699,12.511190934087761 297.89257158596587,13.442441629448314 297.73663054715655,14.56364893431028 L297.7135938027869,14.730440103628588 C297.49828884579443,15.957281815725473 297.21564571295244,17.272152200518132 296.9374327232586,18.35351494826517 L296.54492204034636,18.298844509433053 C296.53517572542086,17.550137482715314 296.47935592175605,16.650391786003773 296.41999200357304,15.694122415245474 C296.35796999950105,14.66465025350858 296.29328990954036,13.60274647551536 296.27734139420767,12.622385046966636 L296.2135473328765,12.346252999984102 C296.13026064169424,12.157223008090018 295.61902212241597,11.041575408872001 294.69489426174454,11.112924964635946 C294.40161878534747,11.138870257641013 293.8708876362179,11.27415642831031 293.6307738775967,11.892210372395374 C293.47926298193545,12.286022855508048 293.51913427026733,12.747478423955366 293.5909025892648,13.581434270546904 C293.6502665074478,14.256011888678728 293.7300090841117,15.172436702322102 293.74507157081484,16.48452723429279 L293.7495017139628,16.836641925075888 C293.7583620002587,17.24620690751307 293.7619061147772,17.658551742772218 293.75215979985165,18.040318196989674 L293.35876308830984,18.085722459748546 C293.25598376727635,17.64001939062574 292.928153174325,17.08034235580208 292.614499039447,16.54105090833955 C292.3770433667147,16.135192396331668 292.1546501806854,15.75157270689956 292.0155436858385,15.408724192189702 C291.62037491703745,14.193001891380701 290.59435376396226,13.421129424479862 289.6711119319206,13.63332485655704 L289.52314515077774,13.678729119315914 C289.1669616416791,13.805675731519296 288.9924140016482,14.051229397460139 288.88520453746673,14.249525565427458 C288.59635920421744,14.7776976016021 289.4425165454841,16.37889282705786 290.1867805943469,17.79476453104883 C290.8105447495844,18.98361492124544 291.46088976370976,20.211383250949655 291.5920220008902,21.055531891221754 L291.71340792314544,21.804238917939486 L291.24558480671726,21.222323060540063 C291.1286290276102,21.07777071379753 291.0258497065769,20.967503218525977 290.9283865573209,20.861868811291053 C290.71751174347645,20.631141027067386 290.51726927318725,20.415239124560916 290.25854891334444,19.959343261757546 C289.7455383368069,19.03457888964825 288.2082786644533,18.788098606100085 287.3807279244083,18.788098606100085 C287.18580162589654,18.788098606100085 287.00150767094016,18.824236692785725 286.8349342885757,18.890953160513057 C286.7020299941359,18.94469698173783 286.2953428531501,19.105928445412204 286.1535782724143,19.542365338461767 C286.0002953194937,20.005674142123738 286.23775099222615,20.413385889346273 286.53368455451215,20.92765866141106 C286.74455936835653,21.07035777293894 292.78018639318196,25.73865727863692 292.70753204555496,28.04871497369549 L298.84505236278426,28.25998378816535 L299.6291876999791,25.38654258785383 L303.1263427010046,18.107961282324325 C303.3655704309963,17.252693230764336 303.5897356742846,16.44560929478519 303.2858278543324,15.869253143029702 C303.15558164578135,15.619993006659563 302.9473649178256,15.448568749304638 302.6797842716869,15.369806252682096 C302.5592843780615,15.33181493078181 302.4387844844361,15.314209196242665 302.32182870532915,15.314209196242665 Z "/></g></svg>