<?xml version="1.0" encoding="utf-8"?><svg xmlns="http://www.w3.org/2000/svg" xmlns:xlink="http://www.w3.org/1999/xlink" version="1.1" x="0px" y="0px" width="38px" height="38px" viewBox="0 0 38 38" enable-background="new 0 0 38 38" xml:space="preserve" xmlns:xml="http://www.w3.org/XML/1998/namespace"><defs/><style><![CDATA[ ]]></style><g transform="matrix(1 0 0 1 0 0)" type="LAYER" name="workspace" id="workspace"/><g transform="matrix(1 0 0 1 0 0)" type="LAYER" name="Layer 01" id="Layer 01"><path transform="matrix(1 0 0 1 18.90423966887809 16.043513227651697)" width="2.502" height="2.502" stroke-miterlimit="3" stroke="none" fill="#F8F7F7" d="M0,0 L2.502,0 L2.502,2.502 L0,2.502 L0,0 Z "/><path transform="matrix(1 0 0 1 -408.15825089715963 55.76702266161395)" width="11.292452830188722" height="11.411949685534594" stroke-miterlimit="3" stroke="#F7F7F7" fill="none" d="M422.7961415094338,-44.17535849056627 L434.08859433962255,-32.76340880503167 "/><path transform="matrix(1 0 0 1 -404.87208737514646 59.053186183626565)" width="3.387999999999977" height="3.387999999999998" stroke-miterlimit="3" stroke="#FFFFFF" fill="#F5F5F5" d="M417.758,-47.519 C417.758,-48.4545704512 418.5164295488,-49.213 419.452,-49.213 C420.3875704512,-49.213 421.14599999999996,-48.4545704512 421.14599999999996,-47.519 C421.14599999999996,-46.5834295488 420.3875704512,-45.825 419.452,-45.825 C418.5164295488,-45.825 417.758,-46.5834295488 417.758,-47.519 Z "/><path transform="matrix(1 0 0 1 -410.90667857011437 53.13809184400389)" width="3.387999999999977" height="3.387999999999998" stroke-miterlimit="3" stroke="#FFFFFF" fill="#F5F5F5" d="M435.20099999999996,-30.077 C435.20099999999996,-31.012570451200002 435.95942954879996,-31.771 436.895,-31.771 C437.8305704512,-31.771 438.58899999999994,-31.012570451200002 438.58899999999994,-30.077 C438.58899999999994,-29.1414295488 437.8305704512,-28.383000000000003 436.895,-28.383000000000003 C435.95942954879996,-28.383000000000003 435.20099999999996,-29.1414295488 435.20099999999996,-30.077 Z "/><path transform="matrix(1 0 0 1 0 0)" width="9.97699999999999" height="9.977" stroke-miterlimit="3" stroke="#F7F7F7" fill="none" d="M10.223239668878541,17.12551322765171 L20.195281355121992,17.207863281544686 L20.20023966887853,27.10251322765171 "/></g></svg>