<?xml version="1.0" encoding="utf-8"?><svg xmlns="http://www.w3.org/2000/svg" xmlns:xlink="http://www.w3.org/1999/xlink" version="1.1" x="0px" y="0px" width="18px" height="18px" viewBox="0 0 18 18" enable-background="new 0 0 18 18" xml:space="preserve" xmlns:xml="http://www.w3.org/XML/1998/namespace"><defs/><style><![CDATA[ ]]></style><g transform="matrix(1 0 0 1 0 0)" type="LAYER" name="workspace" id="workspace"/><g transform="matrix(1 0 0 1 0 0)" type="LAYER" name="Layer 01" id="Layer 01"><g transform="matrix(1 0 0 1 220.18987793195893 15.097761619556143)"><g transform="matrix(1 0 0 1 -2.842170943040401e-14 0)"><g transform="matrix(1 0 0 1 0 0)"><path transform="matrix(1 0 0 1 -218.2562605337262 -13.163644158864791)" width="14.131765078617194" height="14.131765078617192" stroke-width="1.000124917099589" stroke-miterlimit="3" stroke="none" fill="#CCCCCC" d="M0,14.131765078617192 L0,4.440892098500626e-16 L14.131765078617194,4.440892098500626e-16 L14.131765078617194,14.131765078617192 L0,14.131765078617192 Z "/></g></g><path transform="matrix(1 0 0 1 -2.842170943040401e-14 0)" width="2.699337151251825" height="5.398674302503583" stroke-width="1.000124917099589" stroke-miterlimit="3" stroke="none" fill="#FF2A25" d="M-218.2792634068195,-9.214150861238515 C-216.78807715542402,-9.214150861238515 -215.57992625556767,-8.00599996138221 -215.57992625556767,-6.514813709986722 C-215.57992625556767,-5.0236274585912355 -216.78807715542402,-3.8154765587349324 -218.2792634068195,-3.8154765587349324 "/><path transform="matrix(1 0 0 1 -2.842170943040401e-14 0)" width="5.398674302503537" height="5.398674302503579" stroke-width="1.000124917099589" stroke-miterlimit="3" stroke="none" fill="#FF2A25" d="M-211.1913781193347,-3.414426466978 C-212.68218099804633,-3.414426466978 -213.89071527058647,-4.622960739518124 -213.89071527058647,-6.11376361822979 C-213.89071527058647,-7.604566496941457 -212.68218099804633,-8.81310076948158 -211.1913781193347,-8.81310076948158 C-209.70057524062304,-8.81310076948158 -208.49204096808293,-7.604566496941457 -208.49204096808293,-6.11376361822979 C-208.49204096808293,-4.622960739518124 -209.70057524062304,-3.414426466978 -211.1913781193347,-3.414426466978 Z "/><path transform="matrix(1 0 0 1 -2.842170943040401e-14 0)" width="5.399674427420678" height="2.6993371512517914" stroke-width="1.000124917099589" stroke-miterlimit="3" stroke="none" fill="#FF2A25" d="M-208.4910408431658,-13.134640536268906 C-208.4910408431658,-11.642454159956316 -209.69919174302214,-10.435303385017114 -211.19037799441762,-10.435303385017114 C-212.6815642458131,-10.435303385017114 -213.89071527058647,-11.643454284873417 -213.89071527058647,-13.134640536268906 "/><path transform="matrix(1 0 0 1 -2.842170943040401e-14 0)" width="5.399674427420678" height="2.6993371512517927" stroke-width="1.000124917099589" stroke-miterlimit="3" stroke="none" fill="#FF2A25" d="M-213.89071527058647,0.939117297156514 C-213.89071527058647,-0.5520689542389761 -212.6815642458131,-1.7602198540952791 -211.19037799441762,-1.7602198540952791 C-209.69919174302217,-1.7602198540952791 -208.4910408431658,-0.5520689542389761 -208.4910408431658,0.939117297156514 "/><path transform="matrix(1 0 0 1 -2.842170943040401e-14 0)" width="2.6993371512517967" height="5.398674302503583" stroke-width="1.000124917099589" stroke-miterlimit="3" stroke="none" fill="#FF2A25" d="M-204.1004924570986,-3.0143765001381606 C-205.5916787084941,-3.0143765001381606 -206.7998296083504,-4.222527399994464 -206.7998296083504,-5.713713651389952 C-206.7998296083504,-7.204899902785439 -205.5916787084941,-8.413050802641743 -204.1004924570986,-8.413050802641743 "/></g></g></svg>