<?xml version="1.0" encoding="utf-8"?><svg xmlns="http://www.w3.org/2000/svg" xmlns:xlink="http://www.w3.org/1999/xlink" version="1.1" x="0px" y="0px" width="38px" height="38px" viewBox="0 0 38 38" enable-background="new 0 0 38 38" xml:space="preserve" xmlns:xml="http://www.w3.org/XML/1998/namespace"><defs><linearGradient x1="10.946295892444493" y1="6.1626796380353674" x2="11.00604432011745" y2="0.2997177062281473" id="_0_" gradientUnits="userSpaceOnUse" gradientTransform="matrix(1 0 0 1 0 0)"><stop offset="0" style="stop-color:rgb(0, 0, 0)"/><stop offset="1" style="stop-color:rgb(206, 206, 206)"/></linearGradient></defs><style><![CDATA[ ]]></style><g transform="matrix(1 0 0 1 0 0)" type="LAYER" name="workspace" id="workspace"/><g transform="matrix(1 0 0 1 0 0)" type="LAYER" name="Layer 01" id="Layer 01"><g transform="matrix(0.9999999999999999 0 0 0.9999999999999999 -808.8090767251131 12.16187930686971)"><g transform="matrix(1 0 0 1 0 3.552713678800501e-15)"><g transform="matrix(1 0 0 1 0 0)"><path transform="matrix(1 0 0 1 817.2212713987066 10.455647707623982)" width="21.175610652814093" height="2.6753859412179715" stroke-width="0.9209590159098023" stroke-miterlimit="3" stroke="none" fill="#6F6F6F" d="M21.175610652814193,-3.552713678800501e-15 L21.175610652814193,2.675385941217968 L9.947598300641403e-14,2.675385941217968 L9.947598300641403e-14,-3.552713678800501e-15 L21.175610652814193,-3.552713678800501e-15 Z "/><g transform="matrix(1 0 0 1 0 0)"><path transform="matrix(1 0 0 1 0 0)" width="14.411166680956626" height="18.258933449427744" stroke-width="0.9209590159098023" stroke-miterlimit="3" stroke="none" fill="#FCFCFC" d="M835.1983913892658,0.8924092864165978 L835.1873398810748,15.96758741784415 L820.7872247083092,15.959298786700963 L820.7982762165002,-2.2913460315835934 L832.060684022061,-2.2830574004404056 Z "/><g transform="matrix(1 0 0 1 0 0)"><path transform="matrix(1 0 0 1 0 0)" width="3.145995998347871" height="3.1478379163797037" stroke-width="0.9209590159098023" stroke-miterlimit="3" stroke="none" fill="#BFBFBF" d="M835.2066800204088,0.8924092864165978 L832.060684022061,0.8924092864165978 L832.060684022061,-2.255428629963106 Z "/></g><path transform="matrix(1 0 0 1 822.2791783140831 3.0594258508523637)" width="11.257803010481425" height="1.7654784334990872" stroke-width="0.9209590159098023" stroke-miterlimit="3" stroke="none" fill="#DDDDDD" d="M11.257803010481567,-3.552713678800501e-15 L11.257803010481567,1.7654784334990836 L1.4210854715202004e-13,1.7654784334990836 L1.4210854715202004e-13,-3.552713678800501e-15 L11.257803010481567,-3.552713678800501e-15 Z "/><path transform="matrix(1 0 0 1 822.2791783140831 5.894137701822729)" width="11.257803010481425" height="1.7645574744831798" stroke-width="0.9209590159098023" stroke-miterlimit="3" stroke="none" fill="#DDDDDD" d="M11.257803010481567,-7.105427357601002e-15 L11.257803010481567,1.7645574744831727 L1.4210854715202004e-13,1.7645574744831727 L1.4210854715202004e-13,-7.105427357601002e-15 L11.257803010481567,-7.105427357601002e-15 Z "/><path transform="matrix(1 0 0 1 822.2791783140831 8.729770511809011)" width="11.257803010481425" height="1.7645574744831762" stroke-width="0.9209590159098023" stroke-miterlimit="3" stroke="none" fill="#DDDDDD" d="M11.257803010481567,0 L11.257803010481567,1.7645574744831762 L1.4210854715202004e-13,1.7645574744831762 L1.4210854715202004e-13,0 L11.257803010481567,0 Z "/><path transform="matrix(1 0 0 1 822.2791783140831 11.564482362779383)" width="11.257803010481425" height="1.7645574744831798" stroke-width="0.9209590159098023" stroke-miterlimit="3" stroke="none" fill="#DDDDDD" d="M11.257803010481567,0 L11.257803010481567,1.7645574744831798 L1.4210854715202004e-13,1.7645574744831798 L1.4210854715202004e-13,0 L11.257803010481567,0 Z "/></g><path transform="matrix(1 0 0 1 817.2212713987066 4.738334136855926)" width="21.175610652814093" height="6.278177611457117" stroke-width="0.9209590159098023" stroke-miterlimit="3" stroke="none" fill="url(#_0_)" d="M21.175610652814193,3.552713678800501e-15 L21.175610652814193,6.278177611457121 L9.947598300641403e-14,6.278177611457121 L9.947598300641403e-14,3.552713678800501e-15 L21.175610652814193,3.552713678800501e-15 Z "/></g></g></g></g></svg>