<?xml version="1.0" encoding="utf-8"?><svg xmlns="http://www.w3.org/2000/svg" xmlns:xlink="http://www.w3.org/1999/xlink" version="1.1" x="0px" y="0px" width="38px" height="38px" viewBox="0 0 38 38" enable-background="new 0 0 38 38" xml:space="preserve" xmlns:xml="http://www.w3.org/XML/1998/namespace" preserveAspectRatio="xMidYMin"><defs/><style><![CDATA[ ]]></style><g transform="matrix(1 0 0 1 0 0)" type="LAYER" name="workspace" id="workspace"/><g transform="matrix(1 0 0 1 0 0)" type="LAYER" name="Layer 01" id="Layer 01"><g transform="matrix(1 0 0 1 -795.1995000000001 12.730999999999998)"><g transform="matrix(1 0 0 1 0 0)"><g transform="matrix(1 0 0 1 0 0)"><path transform="matrix(1 0 0 1 0 0)" width="13.231999999999971" height="10.764999999999999" stroke-width="2.6317" stroke-miterlimit="3" stroke="#DDDDDD" fill="none" d="M819.232,3.118 L811.384,3.118 C808.41,3.118 806,5.526 806,8.5 C806,11.472999999999999 808.41,13.883 811.385,13.883 L817.417,13.883 "/><path transform="matrix(1 0 0 1 0 0)" width="8.25" height="8.927" stroke-miterlimit="3" stroke="none" fill="#DDDDDD" d="M814.149,7.582 L818.613,3.118 L814.149,-1.345 L817.936,-1.345 L822.399,3.118 L817.936,7.582 Z "/></g></g></g></g></svg>