<?xml version="1.0" encoding="utf-8"?><svg xmlns="http://www.w3.org/2000/svg" xmlns:xlink="http://www.w3.org/1999/xlink" version="1.1" class="page" pageAlignment="none" x="0px" y="0px" width="38px" height="38px" viewBox="0 0 38 38" enable-background="new 0 0 38 38" xml:space="preserve" xmlns:xml="http://www.w3.org/XML/1998/namespace"><defs/><style><![CDATA[ ]]></style><g transform="matrix(1 0 0 1 0 0)" type="LAYER" name="workspace" id="workspace"/><g transform="matrix(1 0 0 1 0 0)" id="Layer 01" type="LAYER" name="Layer 01"><g transform="matrix(1 0 0 1 368.83757729260765 -9.05998646577159)"><g transform="matrix(1 0 0 1 1.1368683772161603e-13 -7.105427357601002e-15)"><g transform="matrix(1 0 0 1 0 -3.552713678800501e-15)"><path transform="matrix(1 0 0 1 0 3.552713678800501e-15)" width="16.85713854660804" height="17.631829800129747" stroke-width="3.1488605223976003" stroke-linecap="round" stroke-miterlimit="3" stroke="#F3F3F3" fill="none" d="M-342.6282290922015,24.239069521274256 C-344.0094338213441,21.177876138420682 -347.0920967077595,19.045238784615027 -350.66855817609627,19.045238784615027 C-355.53676810873486,19.045238784615027 -359.4853676388095,22.99383831468975 -359.4853676388095,27.86204824732832 C-359.4853676388095,32.73025817996688 -355.53676810873486,36.677068584744774 -350.66855817609627,36.677068584744774 C-348.64505746539646,36.677068584744774 -346.78078890611334,35.995411846657575 -345.29402578445854,34.850371656694804 "/><path transform="matrix(1 0 0 1 0 3.552713678800501e-15)" width="7.797008043527683" height="7.886464308368538" stroke-width="1.7891252968168183" stroke-miterlimit="3" stroke="none" fill="#F3F3F3" d="M-347.5053846513241,25.321490325848433 L-339.7083766077964,20.018522946083383 L-339.9642215252412,27.90498725445192 L-339.9642215252412,27.90498725445192 Z "/></g></g></g></g></svg>