<?xml version="1.0" encoding="utf-8"?><svg xmlns="http://www.w3.org/2000/svg" xmlns:xlink="http://www.w3.org/1999/xlink" version="1.1" x="0px" y="0px" width="38px" height="38px" viewBox="0 0 38 38" enable-background="new 0 0 38 38" xml:space="preserve" xmlns:xml="http://www.w3.org/XML/1998/namespace"><defs/><style><![CDATA[ ]]></style><g transform="matrix(1 0 0 1 0 0)" type="LAYER" name="workspace" id="workspace"/><g transform="matrix(1 0 0 1 0 0)" type="LAYER" name="Layer 01" id="Layer 01"><g transform="matrix(1 0 0 1 -445.476403135987 12.000987149702649)"><g transform="matrix(1 0 0 1 0 0)"><g transform="matrix(1 0 0 1 0 0)"><path transform="matrix(1 0 0 1 0 0)" width="3.7823899996341197" height="3.782389999634159" stroke-width="0.8375531442945434" stroke-miterlimit="3" stroke="none" fill="#F7F7F7" d="M463.71297344496264,5.109074180196714 C464.75745169719755,5.109074180196714 465.60416844477965,5.955790927778821 465.60416844477965,7.000269180013795 C465.60416844477965,8.04474743224877 464.75745169719755,8.891464179830873 463.71297344496264,8.891464179830873 C462.6684951927277,8.891464179830873 461.8217784451455,8.04474743224877 461.8217784451455,7.000269180013795 C461.8217784451455,5.955790927778821 462.6684951927277,5.109074180196714 463.71297344496264,5.109074180196714 Z "/><path transform="matrix(1 0 0 1 0 0)" width="15.321359668580044" height="15.45369306537862" stroke-width="2" stroke-miterlimit="3" stroke="#E5E5E5" fill="none" d="M471.3732345026805,5.568053303270123 C470.70235443410047,1.984163398833772 467.55650482413023,-0.7278336823919584 463.7791401433619,-0.7278336823919584 C459.51264442632544,-0.7278336823919584 456.05187483410043,2.732098356688798 456.05187483410043,6.999431626869498 C456.05187483410043,11.266764897050198 459.5118068731811,14.725859382986663 463.7791401433619,14.725859382986663 C465.5522401498334,14.725859382986663 467.186306334352,14.128683991104651 468.4903765800187,13.123620217951203 "/><path transform="matrix(1 0 0 1 0 0)" width="4.531162510633408" height="5.256483533592551" stroke-width="0.8375531442945434" stroke-miterlimit="3" stroke="none" fill="#F3F3F3" d="M468.3697689272403,4.372027413217516 L472.9009314378737,2.918872707866484 L472.0876673347637,8.175356241459035 L472.0876673347637,8.175356241459035 Z "/></g></g></g></g></svg>