<?xml version="1.0" encoding="utf-8"?><svg xmlns="http://www.w3.org/2000/svg" xmlns:xlink="http://www.w3.org/1999/xlink" version="1.1" x="0px" y="0px" width="38px" height="38px" viewBox="0 0 38 38" enable-background="new 0 0 38 38" xml:space="preserve" xmlns:xml="http://www.w3.org/XML/1998/namespace"><defs><linearGradient x1="913.4689355767165" y1="2.6846024545320955" x2="902.6877505585247" y2="15.386519480980093" id="_0_" gradientUnits="userSpaceOnUse" gradientTransform="matrix(1 0 0 1 0 0)"><stop offset="0" style="stop-color:#B1B1B1"/><stop offset="0.4356" style="stop-color:#D7D7D7"/><stop offset="0.4366" style="stop-color:#D6D6D6"/><stop offset="0.5524" style="stop-color:#B1B1B1"/><stop offset="0.668" style="stop-color:#939393"/><stop offset="0.7819" style="stop-color:#7E7E7E"/><stop offset="0.8935" style="stop-color:#727272"/><stop offset="1" style="stop-color:#6E6E6E"/></linearGradient></defs><style><![CDATA[ ]]></style><g transform="matrix(1 0 0 1 0 0)" type="LAYER" name="workspace" id="workspace"/><g transform="matrix(1 0 0 1 0 0)" type="LAYER" name="Layer 01" id="Layer 01"><g transform="matrix(1 0 0 1 -889.7269280734552 10.341160122642687)"><g transform="matrix(1 0 0 1 0 0)"><g transform="matrix(1 0 0 1 0 -1.7763568394002505e-15)"><g transform="matrix(1 0 0 1 0 1.7763568394002505e-15)"><path transform="matrix(1 0 0 1 0 -1.7763568394002505e-15)" width="20.04351248109117" height="20.04544364136471" stroke-width="0.9655801368672793" stroke-miterlimit="3" stroke="none" fill="url(#_0_)" d="M899.5576294288421,7.265990529926276 C899.5576294288421,12.799730294312647 904.0437147447276,17.289677930745498 909.5803512495246,17.289677930745498 C915.1131254337743,17.289677930745498 919.6011419099333,12.800695874449518 919.6011419099333,7.265990529926276 C919.6021074900702,1.7303196052661658 915.1131254337743,-2.7557657106192135 909.5803512495246,-2.7557657106192135 C904.0427491645906,-2.7557657106192135 899.5576294288421,1.7303196052661658 899.5576294288421,7.265990529926276 Z M907.8983106511018,7.370273184707942 C907.8983106511018,6.388278185513917 908.6958798441542,5.59264015273528 909.6769092632113,5.59264015273528 C910.6608354226792,5.59264015273528 911.4574390355947,6.388278185513913 911.4574390355947,7.370273184707942 C911.4564734554577,8.354199344175703 910.6598698425423,9.152734117364938 909.6769092632113,9.152734117364938 C908.6949142640173,9.152734117364938 907.8983106511018,8.355164924312563 907.8983106511018,7.370273184707942 Z "/></g></g></g><g transform="matrix(1 0 0 1 0 0)"><g transform="matrix(1 0 0 1 0 -1.7763568394002505e-15)"><g transform="matrix(1 0 0 1 0 1.7763568394002505e-15)"><path transform="matrix(1 0 0 1 0 -1.7763568394002505e-15)" width="13.054086310706907" height="11.190108206154894" stroke-width="0.9655801368672793" stroke-miterlimit="3" stroke="none" fill="#F5F5F5" d="M904.3807022124943,10.127004475464025 L909.6633911412953,15.09974218033051 L905.9343206527138,15.09974218033051 L905.9343206527138,18.83074382918568 L902.8241870318643,18.83074382918568 L902.8241870318643,15.09974218033051 L899.0951165432828,15.09974218033051 L904.3807022124943,10.127004475464025 M901.582450975853,16.3424438164787 L901.582450975853,18.8297782490488 C901.582450975853,19.515340146224574 902.1386251346886,20.07344546533386 902.8251526120011,20.07344546533386 L905.9352862328507,20.07344546533386 C906.6198825498896,20.07344546533386 907.1779878689989,19.516305726361445 907.1779878689989,18.8297782490488 L907.1779878689989,16.3424438164787 L909.6643567214321,16.3424438164787 C910.1674239727402,16.3424438164787 910.619315476794,16.040217233639233 910.8143626644412,15.576738767942944 C911.0045819514041,15.112294722109786 910.8983681363487,14.576397746148443 910.5430346459816,14.222029835918152 L905.2603457171806,9.248326550914795 C905.0160539425528,9.006931516697977 904.6974124973866,8.883337259178967 904.3807022124943,8.883337259178967 L904.3807022124943,8.883337259178967 C904.0833035303391,8.883337259178967 903.7897671687316,8.987619913960634 903.5532000351991,9.198116383797705 L898.2695455262613,14.170854088664194 C897.8842790516512,14.513635037252078 897.7500634126267,15.05822223444522 897.9344892187684,15.54101230287886 C898.1160182844994,16.0238023713125 898.5794967501957,16.3424438164787 899.0960821234197,16.3424438164787 L901.582450975853,16.3424438164787 Z "/></g></g></g></g></g></svg>