<?xml version="1.0" encoding="utf-8"?><svg xmlns="http://www.w3.org/2000/svg" xmlns:xlink="http://www.w3.org/1999/xlink" version="1.1" x="0px" y="0px" width="38px" height="38px" viewBox="0 0 38 38" enable-background="new 0 0 38 38" xml:space="preserve" xmlns:xml="http://www.w3.org/XML/1998/namespace" preserveAspectRatio="xMidYMin"><defs><linearGradient x1="913.4689355767165" y1="2.6846024545320955" x2="902.6877505585247" y2="15.386519480980093" id="_0_" gradientUnits="userSpaceOnUse" gradientTransform="matrix(1 0 0 1 0 0)"><stop offset="0" style="stop-color:#B1B1B1"/><stop offset="0.4356" style="stop-color:#D7D7D7"/><stop offset="0.4366" style="stop-color:#D6D6D6"/><stop offset="0.5524" style="stop-color:#B1B1B1"/><stop offset="0.668" style="stop-color:#939393"/><stop offset="0.7819" style="stop-color:#7E7E7E"/><stop offset="0.8935" style="stop-color:#727272"/><stop offset="1" style="stop-color:#6E6E6E"/></linearGradient></defs><style><![CDATA[ ]]></style><g transform="matrix(1 0 0 1 0 0)" type="LAYER" name="workspace" id="workspace"/><g transform="matrix(1 0 0 1 0 0)" type="LAYER" name="Layer 01" id="Layer 01"><g transform="matrix(1 0 0 1 -890.5793856693875 11.733043889936853)"><g transform="matrix(1 0 0 1 0 -1.7763568394002505e-15)"><g transform="matrix(1 0 0 1 0 1.7763568394002505e-15)"><path transform="matrix(1 0 0 1 0 -1.7763568394002505e-15)" width="20.04351248109117" height="20.04544364136471" stroke-width="0.9655801368672793" stroke-miterlimit="3" stroke="none" fill="url(#_0_)" d="M919.6011419099333,7.265990529926276 C919.6021074900702,1.7303196052661658 915.1131254337743,-2.7557657106192135 909.5803512495246,-2.7557657106192135 C904.0427491645906,-2.7557657106192135 899.5576294288421,1.7303196052661658 899.5576294288421,7.265990529926276 C899.5576294288421,12.799730294312647 904.0437147447276,17.289677930745498 909.5803512495246,17.289677930745498 C915.1131254337743,17.289677930745498 919.6011419099333,12.800695874449518 919.6011419099333,7.265990529926276 Z M911.4574390355947,7.370273184707942 C911.4564734554577,8.354199344175703 910.6598698425423,9.152734117364938 909.6769092632113,9.152734117364938 C908.6949142640173,9.152734117364938 907.8983106511018,8.355164924312563 907.8983106511018,7.370273184707942 C907.8983106511018,6.388278185513917 908.6958798441542,5.59264015273528 909.6769092632113,5.59264015273528 C910.6608354226792,5.59264015273528 911.4574390355947,6.388278185513913 911.4574390355947,7.370273184707942 Z "/></g></g></g></g></svg>