<?xml version="1.0" encoding="utf-8"?><svg xmlns="http://www.w3.org/2000/svg" xmlns:xlink="http://www.w3.org/1999/xlink" version="1.1" x="0px" y="0px" width="38px" height="38px" viewBox="0 0 38 38" enable-background="new 0 0 38 38" xml:space="preserve" xmlns:xml="http://www.w3.org/XML/1998/namespace" preserveAspectRatio="xMidYMin"><defs/><style><![CDATA[ ]]></style><g transform="matrix(1 0 0 1 0 0)" type="LAYER" name="workspace" id="workspace"/><g transform="matrix(1 0 0 1 0 0)" type="LAYER" name="Layer 01" id="Layer 01"><g transform="matrix(1 0 0 1 -188.45269437583997 -37.795380351403296)"><g transform="matrix(1 0 0 1 0 0)"><g transform="matrix(1 0 0 1 0 0)"><path transform="matrix(1 0 0 1 0 0)" width="10.64150943396234" height="17.628989502170526" stroke-width="0.8165382970560654" stroke-miterlimit="3" stroke="none" fill="#EEEEEE" d="M208.5179801109648,57.133926550404325 L212.68266575454163,56.464399430592245 L202.1319396588589,47.98088560031803 L204.09134671006038,61.374264975880806 L206.71744390175263,58.16375004401357 L210.97480420315657,65.60987510248856 L212.77344909282124,64.57816028933182 L208.5179801109648,57.133926550404325 Z M203.68923758695857,50.57557230021694 L210.1153352816614,55.7165183623991 L207.099490450346,56.26675653787936 L206.74959633406021,56.46156245127098 L204.87894548875082,58.760597174087074 L203.68923758695857,50.57557230021694 Z "/></g></g></g></g></svg>