<?xml version="1.0" encoding="utf-8"?><svg xmlns="http://www.w3.org/2000/svg" xmlns:xlink="http://www.w3.org/1999/xlink" version="1.1" x="0px" y="0px" width="38px" height="38px" viewBox="0 0 38 38" enable-background="new 0 0 38 38" xml:space="preserve" xmlns:xml="http://www.w3.org/XML/1998/namespace" preserveAspectRatio="xMidYMin"><defs/><style><![CDATA[ ]]></style><g transform="matrix(1 0 0 1 0 0)" type="LAYER" name="workspace" id="workspace"/><g transform="matrix(1 0 0 1 0 0)" type="LAYER" name="Layer 01" id="Layer 01"><g transform="matrix(1 0 0 1 261.8676759938827 -184.90389976182445)"><g transform="matrix(1 0 0 1 0 -2.842170943040401e-14)"><g transform="matrix(1 0 0 1 0 0)"><path transform="matrix(1 0 0 1 -250.6395550273375 197.18614061717184)" width="15.54375806690975" height="13.436806944426113" stroke-width="0.7941981509398501" stroke-miterlimit="3" stroke="#F7F7F7" fill="none" d="M15.54375806690975,13.436806944426113 L0,13.436806944426113 L0,0 L15.54375806690975,0 L15.54375806690975,13.436806944426113 Z "/><path transform="matrix(1 0 0 1 -252.5055276422343 195.31887934715428)" width="3.731945229793622" height="3.7332338849144016" stroke-width="1.288655120785089" stroke-miterlimit="3" stroke="none" fill="#96A6C3" d="M3.731945229793622,3.7332338849143962 L0,3.7332338849143962 L0,-5.329070518200751e-15 L3.731945229793622,-5.329070518200751e-15 L3.731945229793622,3.7332338849143962 Z "/><path transform="matrix(1 0 0 1 -236.96176957532464 195.31887934715428)" width="3.73194522979362" height="3.7332338849144016" stroke-width="1.288655120785089" stroke-miterlimit="3" stroke="none" fill="#96A6C3" d="M3.731945229793592,3.7332338849143962 L-2.842170943040401e-14,3.7332338849143962 L-2.842170943040401e-14,-5.329070518200751e-15 L3.731945229793592,-5.329070518200751e-15 L3.731945229793592,3.7332338849143962 Z "/><path transform="matrix(1 0 0 1 -248.16404854030935 199.26860729236057)" width="4.6082307119274795" height="4.608230711927476" stroke-width="1.288655120785089" stroke-miterlimit="3" stroke="none" fill="#EBEBEB" d="M4.6082307119274795,4.6082307119274795 L0,4.6082307119274795 L0,3.552713678800501e-15 L4.6082307119274795,3.552713678800501e-15 L4.6082307119274795,4.6082307119274795 Z "/><path transform="matrix(1 0 0 1 -245.46173875202305 202.80209963355327)" width="4.608230711927476" height="4.6082307119274795" stroke-width="1.288655120785089" stroke-miterlimit="3" stroke="none" fill="#EBEBEB" d="M4.60823071192743,4.608230711927504 L-4.618527782440651e-14,4.608230711927504 L-4.618527782440651e-14,2.4868995751603507e-14 L4.60823071192743,2.4868995751603507e-14 L4.60823071192743,4.608230711927504 Z "/><path transform="matrix(1 0 0 1 -241.72077293638392 200.93226105329407)" width="4.608230711927476" height="4.6082307119274795" stroke-width="1.288655120785089" stroke-miterlimit="3" stroke="none" fill="#EBEBEB" d="M4.608230711927472,4.608230711927504 L-3.552713678800501e-15,4.608230711927504 L-3.552713678800501e-15,2.4868995751603507e-14 L4.608230711927472,2.4868995751603507e-14 L4.608230711927472,4.608230711927504 Z "/><path transform="matrix(1 0 0 1 -236.96176957532464 208.7556862915804)" width="3.73194522979362" height="3.733233884914398" stroke-width="1.288655120785089" stroke-miterlimit="3" stroke="none" fill="#96A6C3" d="M3.731945229793592,3.733233884914398 L-2.842170943040401e-14,3.733233884914398 L-2.842170943040401e-14,0 L3.731945229793592,0 L3.731945229793592,3.733233884914398 Z "/><path transform="matrix(1 0 0 1 -252.5055276422343 208.7556862915804)" width="3.7306565746728335" height="3.733233884914398" stroke-width="1.288655120785089" stroke-miterlimit="3" stroke="none" fill="#96A6C3" d="M3.7306565746728335,3.733233884914398 L0,3.733233884914398 L0,0 L3.7306565746728335,0 L3.7306565746728335,3.733233884914398 Z "/></g></g></g></g></svg>