<?xml version="1.0" encoding="utf-8"?><svg xmlns="http://www.w3.org/2000/svg" xmlns:xlink="http://www.w3.org/1999/xlink" version="1.1" x="0px" y="0px" width="38px" height="38px" viewBox="0 0 38 38" enable-background="new 0 0 38 38" xml:space="preserve" xmlns:xml="http://www.w3.org/XML/1998/namespace"><defs/><style><![CDATA[ ]]></style><g transform="matrix(1 0 0 1 0 0)" type="LAYER" name="workspace" id="workspace"/><g transform="matrix(1 0 0 1 0 0)" type="LAYER" name="Layer 01" id="Layer 01"><path transform="matrix(1 0 0 1 10.689099716983023 23.373754402515324)" width="2.502" height="2.502" stroke-miterlimit="3" stroke="none" fill="#F8F8F8" d="M0,0 L2.502,0 L2.502,2.502 L0,2.502 L0,0 Z "/><g transform="matrix(1 0 0 1 -333.37391475841923 53.67856168996064)"><g transform="matrix(1 0 0 1 0 0)"><path transform="matrix(1 0 0 1 0 0)" width="11.167208300561299" height="17.689877616187022" stroke-width="0.9063009908713828" stroke-miterlimit="3" stroke="none" fill="#E6E6E6" d="M355.3461177048153,-36.6671254886744 C355.3461177048153,-36.6671254886744 348.65671009119364,-25.63200462382444 348.12199250657955,-27.798063992007048 L354.2308667119946,-39.145681713513724 C354.2308667119946,-39.145681713513724 352.68471722156755,-40.72989584555695 354.41484581314126,-43.221317269462375 C356.1449744047144,-45.71273869336783 357.48811247318616,-45.3529371999919 358.28475104416174,-44.84268974213126 C359.08138961513805,-44.33334858526161 359.9305936435847,-43.14246908325656 358.58111146817663,-40.884873314995936 C357.2316292927695,-38.626371245744465 355.0120981661257,-38.585587701155234 355.0120981661257,-38.585587701155234 C353.08258335656006,-36.243705940743574 355.3461177048153,-36.6671254886744 355.3461177048153,-36.6671254886744 Z M354.95305750157513,-40.01847236774782 C355.7560401794875,-39.50278710394201 356.64822795492853,-40.02591657588668 357.4439602249135,-41.26392372941698 C358.2405987958896,-42.50283718393814 358.30109296202795,-43.508985183973714 357.4981102841165,-44.02557674877035 C356.69512760620415,-44.54216831356703 355.9662963093633,-43.85749496500415 355.16965773838723,-42.61767520949216 C354.3730191674109,-41.378761754970995 354.1500748236635,-40.53506393254456 354.95305750157513,-40.01847236774782 Z "/><path transform="matrix(1 0 0 1 0 0)" width="19.65710154087833" height="8.426264863051301" stroke-width="0.9063009908713828" stroke-miterlimit="3" stroke="none" fill="#F8F8F8" d="M361.2263475602495,-35.162067058172894 C358.4530665281836,-33.9331229145513 357.18877664591787,-35.75206900323017 357.18877664591787,-35.75206900323017 L344.0690144754027,-31.606340755648603 C343.4246344708932,-33.11805080842207 354.71170701120536,-37.200030471306775 354.71170701120536,-37.200030471306775 C354.71170701120536,-37.200030471306775 354.12094779181797,-35.17203636907247 356.7863790059708,-36.623930556448414 C356.7863790059708,-36.623930556448414 357.2467799093336,-38.795427730576264 359.7182627114398,-39.6935720125298 C362.1906518145374,-40.593528896465045 363.19845851638576,-39.53587564011818 363.549196999853,-38.65495107699118 C363.89993548332035,-37.776745416836874 363.998722291325,-36.389198599812744 361.2263475602495,-35.162067058172894 Z M358.14791099455266,-36.498718519552355 C358.5394330226089,-35.62776326732498 359.62057600463703,-35.784103038253384 360.963714073109,-36.390418401146334 C362.30685214158007,-36.99401486106672 362.76313764044363,-37.57807169962405 362.37161561238713,-38.4481206508606 C361.97918728333946,-39.31816960209711 361.0063444197167,-39.106773470974844 359.6641126522368,-38.50227071006362 C358.320974583765,-37.89686164816149 357.755482665505,-37.36967377177976 358.14791099455266,-36.498718519552355 Z "/><path transform="matrix(1 0 0 1 0 0)" width="0.8881749710539566" height="0.8881749710539495" stroke-width="0.9063009908713828" stroke-miterlimit="3" stroke="none" fill="#000" d="M352.82025684325674,-35.59225251350094 C352.82025684325674,-35.83751528162771 353.01908156065696,-36.036339999027916 353.26434432878375,-36.036339999027916 C353.50960709691054,-36.036339999027916 353.7084318143107,-35.83751528162771 353.7084318143107,-35.59225251350094 C353.7084318143107,-35.346989745374174 353.50960709691054,-35.14816502797397 353.26434432878375,-35.14816502797397 C353.01908156065696,-35.14816502797397 352.82025684325674,-35.346989745374174 352.82025684325674,-35.59225251350094 Z "/></g></g><path transform="matrix(1 0 0 1 -368.9459002830166 56.523754402515294)" width="9.413000000000011" height="9.412999999999997" stroke-miterlimit="3" stroke="#F8F8F8" fill="none" d="M376.413,-36.559 L385.826,-27.146 "/></g></svg>