<?xml version="1.0" encoding="utf-8"?><svg xmlns="http://www.w3.org/2000/svg" xmlns:xlink="http://www.w3.org/1999/xlink" version="1.1" x="0px" y="0px" width="38px" height="38px" viewBox="0 0 38 38" enable-background="new 0 0 38 38" xml:space="preserve" xmlns:xml="http://www.w3.org/XML/1998/namespace" preserveAspectRatio="xMidYMin"><defs/><style><![CDATA[ ]]></style><g transform="matrix(1 0 0 1 0 0)" type="LAYER" name="workspace" id="workspace"/><g transform="matrix(1 0 0 1 0 0)" type="LAYER" name="Layer 01" id="Layer 01"><g transform="matrix(1 0 0 1 -566.6684993495144 210.15426628745635)"><path transform="matrix(1 0 0 1 0 -2.842170943040401e-14)" width="11.181721312101104" stroke-width="0.8019529212245139" stroke-miterlimit="3" stroke="#F2F2F2" fill="none" d="M576.89247270186,-197.43762568047595 L588.0741940139611,-197.43762568047595 "/><path transform="matrix(1 0 0 1 0 -2.842170943040401e-14)" width="17.552053295308838" stroke-width="0.8019529212245139" stroke-miterlimit="3" stroke="#F2F2F2" fill="none" d="M576.89247270186,-194.2959459839662 L594.4445259971689,-194.2959459839662 "/><path transform="matrix(1 0 0 1 0 -2.842170943040401e-14)" width="11.181721312101104" stroke-width="0.8019529212245139" stroke-miterlimit="3" stroke="#F2F2F2" fill="none" d="M576.89247270186,-191.15426628745638 L588.0741940139611,-191.15426628745638 "/><path transform="matrix(1 0 0 1 0 -2.842170943040401e-14)" width="17.552053295308838" stroke-width="0.8019529212245139" stroke-miterlimit="3" stroke="#F2F2F2" fill="none" d="M576.89247270186,-188.01340708708045 L594.4445259971689,-188.01340708708045 "/><path transform="matrix(1 0 0 1 0 -2.842170943040401e-14)" width="11.181721312101104" stroke-width="0.8019529212245139" stroke-miterlimit="3" stroke="#F2F2F2" fill="none" d="M576.89247270186,-184.8709068944368 L588.0741940139611,-184.8709068944368 "/></g></g></svg>