<?xml version="1.0" encoding="utf-8"?><svg xmlns="http://www.w3.org/2000/svg" xmlns:xlink="http://www.w3.org/1999/xlink" version="1.1" x="0px" y="0px" width="38px" height="38px" viewBox="0 0 38 38" enable-background="new 0 0 38 38" xml:space="preserve" xmlns:xml="http://www.w3.org/XML/1998/namespace" preserveAspectRatio="xMidYMin"><defs/><style><![CDATA[ ]]></style><g transform="matrix(1 0 0 1 0 0)" type="LAYER" name="workspace" id="workspace"/><g transform="matrix(1 0 0 1 0 0)" type="LAYER" name="Layer 01" id="Layer 01"><path transform="matrix(1 0 0 1 11.308941724167832 -0.9685963312850632)" width="14.308465463494493" height="16.497061912456125" stroke-width="1.2077946872769876" stroke-miterlimit="3" stroke="none" fill="#ECE9E9" d="M14.845291007579412,16.51020099919945 Q14.391054008738301,16.59278954444329 14.081346964073951,16.51020099919945 L13.110931557458862,12.773069326915898 L8.816327204779434,12.773069326915898 L8.816327204779434,27.246711880898065 L10.901687972186274,27.45318324400765 Q10.98427651743011,27.762890288672022 10.901687972186274,28.217127287513126 Q9.600918384595865,28.15518587858025 7.763323252920536,28.15518587858025 Q6.338670847464364,28.15518587858025 4.604311397343814,28.196480151202156 Q4.48042857947808,27.82483169760491 4.604311397343814,27.45318324400765 L6.524495074262994,27.205417608276132 Q6.607083619506831,26.420826428459694 6.607083619506831,24.78970265989396 L6.607083619506831,12.773069326915898 L2.2711849942054627,12.773069326915898 L1.300769587590402,16.51020099919945 Q0.9910625429260236,16.59278954444329 0.5368255440849197,16.51020099919945 L0.5574726803958825,11.720065375057 L14.824643871268442,11.720065375057 L14.845291007579412,16.51020099919945 Z "/></g></svg>