<?xml version="1.0" encoding="utf-8"?><svg xmlns="http://www.w3.org/2000/svg" xmlns:xlink="http://www.w3.org/1999/xlink" version="1.1" x="0px" y="0px" width="38px" height="38px" viewBox="0 0 38 38" enable-background="new 0 0 38 38" xml:space="preserve" xmlns:xml="http://www.w3.org/XML/1998/namespace" preserveAspectRatio="xMidYMin"><defs/><style><![CDATA[ ]]></style><g transform="matrix(1 0 0 1 0 0)" type="LAYER" name="workspace" id="workspace"/><g transform="matrix(1 0 0 1 0 0)" type="LAYER" name="Layer 01" id="Layer 01"><g transform="matrix(1 0 0 1 -601.1893052873968 210.73084749432186)"><path transform="matrix(1 0 0 1 0 0)" width="10.495349258265378" stroke-width="0.8043718627012038" stroke-miterlimit="3" stroke="#F2F2F2" fill="none" d="M614.9420421437679,-198.03315946952733 L625.4373914020333,-198.03315946952733 "/><path transform="matrix(1 0 0 1 0 0)" width="17.60499579179873" stroke-width="0.8043718627012038" stroke-miterlimit="3" stroke="#F2F2F2" fill="none" d="M611.3868073914975,-194.88200348192458 L628.9918031832963,-194.88200348192458 "/><path transform="matrix(1 0 0 1 0 0)" width="10.495349258265378" stroke-width="0.8043718627012038" stroke-miterlimit="3" stroke="#F2F2F2" fill="none" d="M614.9420421437679,-191.73084749432186 L625.4373914020333,-191.73084749432186 "/><path transform="matrix(1 0 0 1 0 0)" width="17.60499579179873" stroke-width="0.8043718627012038" stroke-miterlimit="3" stroke="#F2F2F2" fill="none" d="M611.3868073914975,-188.58051447772658 L628.9918031832963,-188.58051447772658 "/><path transform="matrix(1 0 0 1 0 0)" width="10.495349258265378" stroke-width="0.8043718627012038" stroke-miterlimit="3" stroke="#F2F2F2" fill="none" d="M614.9420421437679,-185.4285355191164 L625.4373914020333,-185.4285355191164 "/></g></g></svg>