<?xml version="1.0" encoding="utf-8"?><svg xmlns="http://www.w3.org/2000/svg" xmlns:xlink="http://www.w3.org/1999/xlink" version="1.1" x="0px" y="0px" width="38px" height="38px" viewBox="0 0 38 38" enable-background="new 0 0 38 38" xml:space="preserve" xmlns:xml="http://www.w3.org/XML/1998/namespace" preserveAspectRatio="xMidYMin"><defs/><style><![CDATA[ ]]></style><g transform="matrix(1 0 0 1 0 0)" type="LAYER" name="workspace" id="workspace"/><g transform="matrix(1 0 0 1 0 0)" type="LAYER" name="Layer 01" id="Layer 01"><g transform="matrix(1 0 0 1 -633.9435513846153 210.73084749429614)"><path transform="matrix(1 0 0 1 0 0)" width="11.277171715360282" stroke-width="0.8043718627010951" stroke-miterlimit="3" stroke="#F2F2F2" fill="none" d="M650.4688775651532,-198.03315946950076 L661.7460492805135,-198.03315946950076 "/><path transform="matrix(1 0 0 1 0 0)" width="17.604995791796455" stroke-width="0.8043718627010951" stroke-miterlimit="3" stroke="#F2F2F2" fill="none" d="M644.141053488717,-194.88200348189844 L661.7460492805135,-194.88200348189844 "/><path transform="matrix(1 0 0 1 0 0)" width="11.277171715360282" stroke-width="0.8043718627010951" stroke-miterlimit="3" stroke="#F2F2F2" fill="none" d="M650.4688775651532,-191.7308474942961 L661.7460492805135,-191.7308474942961 "/><path transform="matrix(1 0 0 1 0 0)" width="17.604995791796455" stroke-width="0.8043718627010951" stroke-miterlimit="3" stroke="#F2F2F2" fill="none" d="M644.141053488717,-188.58051447770129 L661.7460492805135,-188.58051447770129 "/><path transform="matrix(1 0 0 1 0 0)" width="11.277171715360282" stroke-width="0.8043718627010951" stroke-miterlimit="3" stroke="#F2F2F2" fill="none" d="M650.4688775651532,-185.42853551909153 L661.7460492805135,-185.42853551909153 "/></g></g></svg>