<?xml version="1.0" encoding="utf-8"?><svg xmlns="http://www.w3.org/2000/svg" xmlns:xlink="http://www.w3.org/1999/xlink" version="1.1" class="page" pageAlignment="none" x="0px" y="0px" width="38px" height="38px" viewBox="0 0 38 38" enable-background="new 0 0 38 38" xml:space="preserve" xmlns:xml="http://www.w3.org/XML/1998/namespace"><defs/><style><![CDATA[ ]]></style><g transform="matrix(1 0 0 1 0 0)" type="LAYER" name="workspace" id="workspace"/><g transform="matrix(1 0 0 1 0 0)" id="Layer 01" type="LAYER" name="Layer 01"><path transform="matrix(1 0 0 1 11.713644380311088 0.08214905184608057)" width="13.555555555555543" height="15.628988295654906" stroke-width="0.7425782371518789" stroke-miterlimit="3" stroke="#ECE9E9" fill="none" d="M8.352413019079648,12.100951797921446 L8.352413019079648,25.8129928432958 L10.328042328042272,26.008599705569313 Q10.406285072951697,26.302009998979592 10.328042328042272,26.732345095981366 Q9.09571909571904,26.673663037299313 7.354818021484661,26.673663037299313 Q6.005130671797303,26.673663037299313 4.362033028699649,26.712784409754004 Q4.244668911335559,26.36069205766167 4.362033028699649,26.008599705569313 L6.181176847843474,25.77387147084108 Q6.25941959275287,25.03056539420166 6.25941959275287,23.485271182240794 L6.25941959275287,12.100951797921446 L2.1516754850087807,12.100951797921446 L1.2323232323232034,15.641436005072308 Q0.9389129389128996,15.719678749981721 0.5085778419111264,15.641436005072308 L0.5281385281384985,11.103356800326459 L14.044572711239333,11.103356800326459 L14.06413339746667,15.641436005072308 Q13.63379830046491,15.719678749981721 13.340388007054628,15.641436005072308 L12.421035754369044,12.100951797921446 L8.352413019079648,12.100951797921446 Z "/></g></svg>