<?xml version="1.0" encoding="utf-8"?><svg xmlns="http://www.w3.org/2000/svg" xmlns:xlink="http://www.w3.org/1999/xlink" version="1.1" class="page" pageAlignment="horizontal" x="0px" y="0px" width="38px" height="38px" viewBox="0 0 38 38" enable-background="new 0 0 38 38" xml:space="preserve" xmlns:xml="http://www.w3.org/XML/1998/namespace"><defs/><style><![CDATA[ .page{position:absolute; display:block; left:50%; top:0; margin-left:-19px; width:38px;}
 .page>div{position:absolute;}
]]></style><g transform="matrix(1 0 0 1 0 0)" type="LAYER" name="workspace" id="workspace"/><g transform="matrix(1 0 0 1 0 0)" id="Layer 01" type="LAYER" name="Layer 01"><path transform="matrix(1 0 0 1 12.865499427698246 3.2180797242493293)" width="10.835869956772331" height="13.177816044203777" stroke-width="1.0346720899135344" stroke-miterlimit="3" stroke="#E4E4E4" fill="#E4E4E4" d="M10.74848390873384,12.251523934995815 Q10.74848390873384,12.93313510969601 10.508172276628008,13.431235583515384 Q10.267860644522168,13.929336057334755 9.909577847564373,14.287618854292552 Q9.271659696883424,14.908059795365803 8.31915177326392,15.266342592323602 Q9.857146218741283,15.563455155654456 10.57371181265687,16.183896096727707 Q11.55243555068792,17.040279367504873 11.55243555068792,18.73556869945152 Q11.55243555068792,20.25608593532118 10.381462506972197,21.26102548776378 Q9.096887600806449,22.37082829785256 6.781157327786554,22.37082829785256 L0.7165655939155879,22.37082829785256 L0.7165655939155879,21.62804688952542 L2.044833524100584,21.427058979036907 L2.044833524100584,10.13678157246444 L0.7165655939155879,9.93579366197592 L0.7165655939155879,9.193012253648785 L6.54521499808264,9.193012253648785 Q8.60752573179092,9.193012253648785 9.708589937075851,10.031918314818256 Q10.74848390873384,10.818392747164634 10.74848390873384,12.251523934995815 M3.6876912272241285,15.912999347808402 L3.6876912272241285,21.32219572139072 L6.160716386713297,21.32219572139072 Q9.061933181591053,21.32219572139072 9.67363551786046,19.740508251894113 Q9.865884823545128,19.242407778074735 9.865884823545128,18.652551953814957 Q9.865884823545128,18.06269612955517 9.660527610654688,17.56896495813772 Q9.45517039776424,17.075233786720272 9.044455971983359,16.708212384958628 Q8.153118281990798,15.912999347808402 6.588908022101885,15.912999347808402 L3.6876912272241285,15.912999347808402 M9.044455971983359,12.496204869503575 Q9.044455971983359,11.325231825787856 8.397799216498557,10.787807630351164 Q7.751142461013755,10.250383434914472 6.344227087594124,10.250383434914472 L3.6876912272241285,10.250383434914472 L3.6876912272241285,14.960491424188893 L6.178193596320993,14.960491424188893 Q8.030777814736913,14.960491424188893 8.7648206182602,13.702132332434692 Q9.044455971983359,13.230247673026863 9.044455971983359,12.496204869503575 Z "/></g></svg>