<?xml version="1.0" encoding="utf-8"?><svg xmlns="http://www.w3.org/2000/svg" xmlns:xlink="http://www.w3.org/1999/xlink" version="1.1" class="page" pageAlignment="none" x="0px" y="0px" width="38px" height="38px" viewBox="0 0 38 38" enable-background="new 0 0 38 38" xml:space="preserve" xmlns:xml="http://www.w3.org/XML/1998/namespace"><defs><linearGradient x1="7.815970093361102e-14" y1="6.322768904158934" x2="13.554336613347338" y2="6.322768904158934" id="_0_" gradientUnits="userSpaceOnUse" gradientTransform="matrix(1 0 0 1 0 0)"><stop offset="0" style="stop-color:#B1B1B1"/><stop offset="0.4356" style="stop-color:#D7D7D7"/><stop offset="0.4366" style="stop-color:#D6D6D6"/><stop offset="0.5524" style="stop-color:#B1B1B1"/><stop offset="0.668" style="stop-color:#939393"/><stop offset="0.7819" style="stop-color:#7E7E7E"/><stop offset="0.8935" style="stop-color:#727272"/><stop offset="1" style="stop-color:#6E6E6E"/></linearGradient><linearGradient x1="0.056159364387969646" y1="0.8069226762545156" x2="17.27180393598193" y2="0.8069226762545156" id="_1_" gradientUnits="userSpaceOnUse" gradientTransform="matrix(1 0 0 1 0 0)"><stop offset="0" style="stop-color:#B1B1B1"/><stop offset="0.4356" style="stop-color:#D7D7D7"/><stop offset="0.4366" style="stop-color:#D6D6D6"/><stop offset="0.5524" style="stop-color:#B1B1B1"/><stop offset="0.668" style="stop-color:#939393"/><stop offset="0.7819" style="stop-color:#7E7E7E"/><stop offset="0.8935" style="stop-color:#727272"/><stop offset="1" style="stop-color:#6E6E6E"/></linearGradient><linearGradient x1="7.815970093361102e-14" y1="0.6888865886347375" x2="6.223346240266238" y2="0.6251253777777617" id="_2_" gradientUnits="userSpaceOnUse" gradientTransform="matrix(1 0 0 1 0 0)"><stop offset="0" style="stop-color:#B1B1B1"/><stop offset="0.4356" style="stop-color:#D7D7D7"/><stop offset="0.4366" style="stop-color:#D6D6D6"/><stop offset="0.5524" style="stop-color:#B1B1B1"/><stop offset="0.668" style="stop-color:#939393"/><stop offset="0.7819" style="stop-color:#7E7E7E"/><stop offset="0.8935" style="stop-color:#727272"/><stop offset="1" style="stop-color:#6E6E6E"/></linearGradient><linearGradient x1="-232.64722633113428" y1="891.0580398252818" x2="-231.11574327120644" y2="891.0580398252818" id="_3_" gradientUnits="userSpaceOnUse" gradientTransform="matrix(1 0 0 1 0 0)"><stop offset="0" style="stop-color:#D7D7D7"/><stop offset="0.0714" style="stop-color:#BFBFBF"/><stop offset="0.2301" style="stop-color:#929292"/><stop offset="0.3895" style="stop-color:#6C6C6C"/><stop offset="0.5472" style="stop-color:#4F4F4F"/><stop offset="0.7027" style="stop-color:#3A3A3A"/><stop offset="0.8549" style="stop-color:#2D2D2D"/><stop offset="1" style="stop-color:#292929"/></linearGradient><linearGradient x1="-228.66146794698642" y1="891.0580398252818" x2="-227.1299848870586" y2="891.0580398252818" id="_4_" gradientUnits="userSpaceOnUse" gradientTransform="matrix(1 0 0 1 0 0)"><stop offset="0" style="stop-color:#D7D7D7"/><stop offset="0.0714" style="stop-color:#BFBFBF"/><stop offset="0.2301" style="stop-color:#929292"/><stop offset="0.3895" style="stop-color:#6C6C6C"/><stop offset="0.5472" style="stop-color:#4F4F4F"/><stop offset="0.7027" style="stop-color:#3A3A3A"/><stop offset="0.8549" style="stop-color:#2D2D2D"/><stop offset="1" style="stop-color:#292929"/></linearGradient><linearGradient x1="-224.4629832062053" y1="891.0580398252818" x2="-222.9320869776061" y2="891.0580398252818" id="_5_" gradientUnits="userSpaceOnUse" gradientTransform="matrix(1 0 0 1 0 0)"><stop offset="0" style="stop-color:#D7D7D7"/><stop offset="0.0714" style="stop-color:#BFBFBF"/><stop offset="0.2301" style="stop-color:#929292"/><stop offset="0.3895" style="stop-color:#6C6C6C"/><stop offset="0.5472" style="stop-color:#4F4F4F"/><stop offset="0.7027" style="stop-color:#3A3A3A"/><stop offset="0.8549" style="stop-color:#2D2D2D"/><stop offset="1" style="stop-color:#292929"/></linearGradient></defs><style><![CDATA[ ]]></style><g transform="matrix(1 0 0 1 0 0)" type="LAYER" name="workspace" id="workspace"/><g transform="matrix(1 0 0 1 0 0)" id="Layer 01" type="LAYER" name="Layer 01"><g transform="matrix(1 0 0 1 246.78958330045407 -870.7830020559719)"><g transform="matrix(1 0 0 1 -5.684341886080802e-14 2.2737367544323206e-13)"><g transform="matrix(1 0 0 1 5.684341886080802e-14 -2.2737367544323206e-13)"><path transform="matrix(1 0 0 1 -234.56675160712783 884.2579850967916)" width="13.554336613347253" height="14.151437490242213" stroke-width="1.4670783216091856" stroke-miterlimit="3" stroke="none" fill="url(#_0_)" d="M13.554336613347331,14.151437490242003 L7.815970093361102e-14,14.151437490242003 L7.815970093361102e-14,-2.0961010704922955e-13 L13.554336613347331,-2.0961010704922955e-13 L13.554336613347331,14.151437490242003 Z "/><path transform="matrix(1 0 0 1 -236.2979040266267 882.7600981304284)" width="17.01664145234495" height="1.7062120880314833" stroke-width="1.4670783216091856" stroke-miterlimit="3" stroke="none" fill="url(#_1_)" d="M17.016641452345,1.7062120880312701 L4.973799150320701e-14,1.7062120880312701 L4.973799150320701e-14,-2.1316282072803006e-13 L17.016641452345,-2.1316282072803006e-13 L17.016641452345,1.7062120880312701 Z "/><path transform="matrix(1 0 0 1 -230.90052288142647 881.1565815249097)" width="6.22334624026616" height="1.6035166055188395" stroke-width="1.4670783216091856" stroke-miterlimit="3" stroke="none" fill="url(#_2_)" d="M6.223346240266238,1.6035166055185144 L7.815970093361102e-14,1.6035166055185144 L7.815970093361102e-14,-3.2507330161024584e-13 L6.223346240266238,-3.2507330161024584e-13 L6.223346240266238,1.6035166055185144 Z "/><path transform="matrix(1 0 0 1 -5.684341886080802e-14 2.2737367544323206e-13)" width="1.530162689438356" height="10.11257087085221" stroke-width="1.4670783216091856" stroke-miterlimit="3" stroke="none" fill="url(#_3_)" d="M-231.88053120026134,896.1149120920365 C-232.30451683520636,896.1149120920365 -232.64634608414133,895.8361672109307 -232.64634608414133,895.4943379619959 L-232.64634608414133,886.6229153512252 C-232.64634608414133,886.2810861022903 -232.30304975688475,886.0023412211843 -231.88053120026134,886.0023412211843 C-231.4580126436379,886.0023412211843 -231.11618339470297,886.2810861022903 -231.11618339470297,886.6229153512252 L-231.11618339470297,895.4943379619959 C-231.11618339470292,895.8361672109307 -231.45947972195947,896.1149120920365 -231.88053120026134,896.1149120920365 L-231.88053120026134,896.1149120920365 Z "/><path transform="matrix(1 0 0 1 -5.684341886080802e-14 2.2737367544323206e-13)" width="1.5316297677599948" height="10.11257087085221" stroke-width="1.4670783216091856" stroke-miterlimit="3" stroke="none" fill="url(#_4_)" d="M-227.89594647877078,896.1149120920365 C-228.31846503539424,896.1149120920365 -228.6617613626508,895.8361672109307 -228.6617613626508,895.4943379619959 L-228.6617613626508,886.6229153512252 C-228.6617613626508,886.2810861022903 -228.3184650353942,886.0023412211843 -227.89594647877078,886.0023412211843 C-227.47342792214738,886.0023412211843 -227.1301315948908,886.2810861022903 -227.1301315948908,886.6229153512252 L-227.1301315948908,895.4943379619959 C-227.1301315948908,895.8361672109307 -227.47342792214732,896.1149120920365 -227.89594647877078,896.1149120920365 L-227.89594647877078,896.1149120920365 Z "/><path transform="matrix(1 0 0 1 -5.684341886080802e-14 2.2737367544323206e-13)" width="1.5301626894383844" height="10.11257087085221" stroke-width="1.4670783216091856" stroke-miterlimit="3" stroke="none" fill="url(#_5_)" d="M-223.69716832232533,896.1149120920365 C-224.12115395727034,896.1149120920365 -224.4629832062053,895.8361672109307 -224.4629832062053,895.4943379619959 L-224.4629832062053,886.6229153512252 C-224.4629832062053,886.2810861022903 -224.12115395727034,886.0023412211843 -223.69716832232533,886.0023412211843 C-223.27464976570184,886.0023412211843 -222.93282051676692,886.2810861022903 -222.93282051676692,886.6229153512252 L-222.93282051676692,895.4943379619959 C-222.93282051676692,895.8361672109307 -223.27464976570184,896.1149120920365 -223.69716832232533,896.1149120920365 L-223.69716832232533,896.1149120920365 Z "/></g></g></g></g></svg>