<?xml version="1.0" encoding="utf-8"?><svg xmlns="http://www.w3.org/2000/svg" xmlns:xlink="http://www.w3.org/1999/xlink" version="1.1" x="0px" y="0px" width="38px" height="38px" viewBox="0 0 38 38" enable-background="new 0 0 38 38" xml:space="preserve" xmlns:xml="http://www.w3.org/XML/1998/namespace" preserveAspectRatio="xMidYMin"><defs/><style><![CDATA[ ]]></style><g transform="matrix(1 0 0 1 0 0)" type="LAYER" name="workspace" id="workspace"/><g transform="matrix(1 0 0 1 0 0)" type="LAYER" name="Layer 01" id="Layer 01"><g transform="matrix(1 0 0 1 -753.9005000000001 12.781500000000001)"><g transform="matrix(1 0 0 1 0 0)"><g transform="matrix(1 0 0 1 0 0)"><path transform="matrix(1 0 0 1 0 0)" width="13.231999999999971" height="10.765999999999998" stroke-width="2.6317" stroke-miterlimit="3" stroke="#DDDDDD" fill="none" d="M767.868,3.067 L775.716,3.067 C778.691,3.067 781.1,5.477 781.1,8.45 C781.1,11.424 778.69,13.832999999999998 775.716,13.832999999999998 L769.683,13.832999999999998 "/><path transform="matrix(1 0 0 1 0 0)" width="8.25" height="8.926" stroke-miterlimit="3" stroke="none" fill="#DDDDDD" d="M772.951,-1.396 L768.487,3.067 L772.951,7.53 L769.164,7.53 L764.701,3.067 L769.164,-1.396 Z "/></g></g></g></g></svg>