<?xml version="1.0" encoding="utf-8"?><svg xmlns="http://www.w3.org/2000/svg" xmlns:xlink="http://www.w3.org/1999/xlink" version="1.1" class="page" pageAlignment="none" x="0px" y="0px" width="38px" height="38px" viewBox="0 0 38 38" enable-background="new 0 0 38 38" xml:space="preserve" xmlns:xml="http://www.w3.org/XML/1998/namespace"><defs/><style><![CDATA[ ]]></style><g transform="matrix(1 0 0 1 0 0)" type="LAYER" name="workspace" id="workspace"/><g transform="matrix(1 0 0 1 0 0)" id="Layer 01" type="LAYER" name="Layer 01"><g transform="matrix(-1 1.224646798818428e-16 -1.224646798818428e-16 -1 296.2685412852724 48.94462201995723)"><g transform="matrix(1 0 0 1 0 0)"><g transform="matrix(1 0 0 1 0 0)"><path transform="matrix(1 0 0 1 0 0)" width="21.5781710914452" height="18.499785408709887" stroke-width="1.5963228413762947" stroke-miterlimit="3" stroke="none" fill="#F5F5F5" d="M277.2716996100141,37.138450904619546 L286.00677819802513,28.917388271531628 L279.8417793846299,28.917388271531628 L279.8417793846299,22.749196812453626 L274.7000235125568,22.749196812453626 L274.7000235125568,28.917388271531628 L268.53502469916157,28.917388271531625 L277.2716996100141,37.138450904619546 M281.8946505586398,22.750793135295 L281.8946505586398,26.86292077468034 L286.0051818751837,26.86292077468034 C286.83686607554074,26.86292077468034 287.58234884246355,27.362569824031112 287.90480605642153,28.128804787891738 C288.2192816561727,28.898232397435116 288.0436861436212,29.78259525155758 287.45623933799476,30.368445734342675 L278.722757072825,38.5895083674306 C278.323676362481,38.990185400616056 277.7952935019855,39.194514724312214 277.2716996100141,39.194514724312214 L277.2716996100141,39.194514724312214 C276.78003217487014,39.194514724312214 276.29634635393325,39.022111857443576 275.90365093495456,38.67411347802354 L267.16857234694356,30.453050844935614 C266.53163953323434,29.886356236247032 266.30975065828306,28.986030153710807 266.6146483209859,28.18786873302265 C266.91475701516464,27.389707312334505 267.6809919790253,26.862920774680337 268.5334283763202,26.862920774680337 L272.64395969286414,26.86292077468034 L272.64395969286414,22.750793135295 C272.64395969286414,21.617403917917827 273.56344164949695,20.694729315602327 274.69842718971546,20.694729315602327 L279.8401830617885,20.694729315602327 C280.9719759563243,20.694729315602327 281.8946505586398,21.61580759507645 281.8946505586398,22.750793135295 Z "/></g></g></g></g></svg>