<?xml version="1.0" encoding="utf-8"?><svg xmlns="http://www.w3.org/2000/svg" xmlns:xlink="http://www.w3.org/1999/xlink" version="1.1" x="0px" y="0px" width="38px" height="38px" viewBox="0 0 38 38" enable-background="new 0 0 38 38" xml:space="preserve" xmlns:xml="http://www.w3.org/XML/1998/namespace" preserveAspectRatio="xMidYMin"><defs/><style><![CDATA[ ]]></style><g transform="matrix(1 0 0 1 0 0)" type="LAYER" name="workspace" id="workspace"/><g transform="matrix(1 0 0 1 0 0)" type="LAYER" name="Layer 01" id="Layer 01"><g transform="matrix(1 0 0 1 10.60863602941174 10.773627807269797)"><g transform="matrix(1 0 0 1 -338.6821579472227 -11.242304040704628)"><path transform="matrix(1 0 0 1 0 1.7763568394002505e-15)" width="10.369968940915385" height="10.369733238375584" stroke-width="1.349380744861134" stroke-miterlimit="3" stroke="#ECE9E9" fill="none" d="M340.1989037908173,20.093170112627377 C338.17657599935785,18.068956700849462 338.17657599935785,14.783263296077202 340.1989037908173,12.75904988429928 C342.2268884432319,10.73672209283974 345.51069622768597,10.73672209283974 347.53396682930463,12.75904988429928 C349.5581802410826,14.783263296077202 349.5581802410826,18.068956700849462 347.53396682930463,20.093170112627377 C345.51069622768597,22.118326334564486 342.2268884432319,22.118326334564486 340.1989037908173,20.093170112627377 Z "/><path transform="matrix(1 0 0 1 0 1.7763568394002505e-15)" width="8.505090446040356" height="8.503440528261756" stroke-width="1.349380744861134" stroke-miterlimit="3" stroke="none" fill="#ECE9E9" d="M347.3586041396955,19.58876667746148 C347.8912918796371,19.058907367997485 348.755848795613,19.058907367997485 349.2885365355546,19.590652297779855 L355.0660771910623,25.366307332969207 C355.59782212084474,25.89805226275157 355.59782212084474,26.761666368568328 355.0660771910623,27.29623972882826 L355.0660771910623,27.29623972882826 C354.5324466409616,27.82798465861063 353.66883253514476,27.82798465861063 353.1361447952032,27.29623972882826 L347.3586041396955,21.52058469363891 C346.82685920991315,20.986954143538174 346.82685920991315,20.12334003772142 347.3586041396955,19.58876667746148 L347.3586041396955,19.58876667746148 Z "/></g></g></g></svg>